<?xml version="1.0" standalone="no"?>
<!DOCTYPE svg PUBLIC "-//W3C//DTD SVG 20010904//EN"
 "http://www.w3.org/TR/2001/REC-SVG-20010904/DTD/svg10.dtd">
<svg version="1.0" xmlns="http://www.w3.org/2000/svg"
 width="1902.000000pt" height="602.000000pt" viewBox="0 0 1902.000000 602.000000"
 preserveAspectRatio="xMidYMid meet">

<g transform="translate(0.000000,602.000000) scale(0.100000,-0.100000)"
fill="#000000" stroke="none">
<path d="M0 3005 l0 -3005 3780 0 3780 0 0 55 c0 32 7 69 16 87 9 18 14 42 11
58 -3 15 -1 32 5 38 5 5 11 59 12 119 2 59 8 132 14 162 7 29 9 57 6 62 -3 5
-1 9 4 9 4 0 15 22 22 50 7 27 17 50 20 50 4 0 15 28 25 62 10 35 22 67 27 73
4 5 8 21 8 36 0 15 5 31 10 34 16 10 12 45 -5 45 -12 0 -11 4 4 19 18 18 32
74 36 146 1 16 4 37 7 45 3 8 11 35 19 60 7 25 17 51 23 58 7 10 5 16 -5 23
-8 5 -9 9 -3 9 9 0 26 33 70 135 7 17 17 57 22 90 14 80 9 303 -8 336 -10 22
-9 32 3 60 9 19 19 50 22 69 17 99 24 176 19 195 -4 16 -3 17 5 5 9 -13 11
-12 11 5 0 12 4 25 8 30 4 6 14 28 21 50 7 22 19 54 26 70 7 17 20 48 30 70
43 106 156 237 265 306 41 27 95 63 120 81 59 44 101 67 123 68 10 0 43 9 74
20 32 11 74 20 95 20 24 0 65 13 106 34 85 42 122 54 199 61 81 8 119 19 146
44 88 79 120 97 195 107 47 6 50 8 63 47 17 52 96 138 144 157 32 12 36 18 31
40 -3 14 -8 61 -11 105 -6 86 -16 153 -46 311 -28 147 -47 204 -66 204 -19 0
-83 21 -98 32 -52 38 -75 64 -96 105 -13 26 -28 51 -32 54 -5 3 -8 9 -8 13 2
17 0 24 -17 42 -10 11 -24 40 -30 66 -15 57 -16 165 -2 173 6 3 10 15 10 26 0
61 57 102 127 92 25 -4 32 -1 37 15 4 11 13 23 21 26 21 8 18 -8 -5 -29 -20
-19 -20 -19 12 -52 17 -18 37 -33 44 -33 6 0 14 -11 16 -25 l5 -25 -33 21
c-19 11 -34 18 -34 14 0 -4 -14 5 -32 20 -26 22 -39 26 -71 22 -49 -7 -77 -32
-77 -69 0 -21 5 -28 19 -28 11 0 23 -5 26 -10 4 -7 19 -3 41 10 38 24 60 21
93 -14 23 -24 23 -25 5 -55 -19 -33 -18 -39 12 -44 10 -1 25 -6 31 -10 9 -5
17 1 25 17 21 47 46 23 53 -50 3 -27 7 -62 11 -78 3 -16 1 -39 -6 -51 -11 -20
-9 -28 9 -53 11 -17 21 -33 21 -36 0 -3 -14 -21 -31 -41 -29 -32 -30 -35 -10
-35 16 0 21 -6 21 -25 0 -14 10 -58 21 -98 25 -86 39 -168 44 -261 2 -39 7
-90 11 -115 9 -62 12 -79 18 -126 9 -68 14 -99 24 -135 10 -40 6 -60 -13 -60
-8 0 -16 17 -20 43 -10 57 -14 61 -33 35 -99 -136 -87 -223 51 -374 68 -74 98
-93 149 -91 40 1 68 -16 68 -42 0 -24 39 -83 50 -76 6 4 7 -1 3 -11 -5 -13 -3
-16 10 -11 10 4 24 -1 34 -12 10 -10 26 -21 37 -24 10 -4 16 -13 13 -20 -3 -8
8 -11 40 -10 42 2 87 -16 104 -40 3 -4 12 -1 19 8 7 8 20 15 30 15 15 0 152
55 225 91 12 6 47 32 79 60 32 27 67 54 77 60 12 6 19 20 19 37 0 33 49 88 96
108 40 17 110 114 164 226 l41 83 -34 6 c-82 13 -78 43 9 58 96 17 111 10 159
-74 37 -65 52 -83 97 -111 53 -34 64 -31 78 23 13 56 5 216 -15 278 -28 86
-58 222 -56 255 1 32 -27 131 -42 147 -4 3 -7 19 -7 34 0 15 -4 30 -9 33 -5 3
-7 15 -4 27 3 11 -1 37 -9 57 -34 82 -48 185 -28 197 7 4 7 12 0 25 -5 10 -10
42 -10 70 0 45 4 56 31 81 17 16 38 29 47 29 19 0 72 -49 72 -67 0 -17 4 -17
42 7 44 27 74 25 94 -4 15 -25 61 -140 71 -183 4 -18 12 -23 39 -23 31 0 36
-5 53 -42 47 -103 59 -136 71 -188 16 -69 47 -164 68 -210 8 -19 18 -50 21
-69 8 -45 29 -52 37 -12 4 17 11 31 16 31 5 0 7 4 4 8 -2 4 1 21 9 37 16 37
69 177 91 242 9 27 20 52 25 58 5 5 9 19 9 31 0 13 4 26 10 29 5 3 10 15 10
26 0 10 4 27 10 37 8 14 80 232 112 342 6 19 14 43 19 52 5 10 9 29 9 43 0 14
5 25 10 25 6 0 10 10 10 23 0 12 7 41 15 65 9 24 13 47 10 52 -3 4 -1 10 3 12
5 1 34 107 66 233 31 127 61 241 66 255 6 14 12 41 15 60 2 19 13 73 24 120
11 47 38 189 60 315 23 127 45 247 50 268 l8 37 -6168 0 -6169 0 0 -3005z
m10425 2531 c195 -6 264 -39 385 -192 9 -10 24 -41 33 -69 10 -27 23 -59 28
-70 27 -61 69 -207 69 -240 0 -11 -24 -3 -53 17 -89 64 -144 73 -182 32 -13
-14 -27 -24 -32 -22 -4 2 -10 -10 -11 -26 -3 -26 -2 -28 12 -17 14 12 16 11
15 -5 0 -12 -25 -36 -66 -62 -57 -38 -69 -42 -90 -33 -34 15 -83 14 -117 -4
-28 -15 -31 -14 -97 31 -60 41 -66 48 -53 62 13 13 12 16 -8 30 -13 9 -27 22
-31 29 -4 7 -13 13 -18 13 -6 0 -7 -5 -3 -11 3 -6 -5 -3 -20 6 -31 21 -73 16
-137 -14 -23 -12 -51 -21 -61 -21 -18 0 -61 -26 -104 -63 -12 -10 -29 -19 -37
-21 -35 -5 -77 -66 -46 -66 6 0 32 15 58 34 96 70 126 80 241 81 66 0 112 -5
125 -12 24 -15 9 -16 -53 -4 -64 12 -171 -3 -233 -32 -53 -26 -131 -85 -96
-73 14 5 16 2 8 -13 -12 -22 -69 -33 -79 -15 -11 19 -32 19 -91 1 -96 -30
-112 -21 -61 33 62 67 75 92 76 153 1 31 -2 57 -6 57 -8 0 -21 58 -22 103 -1
18 -5 26 -13 23 -10 -3 -12 12 -10 62 4 74 9 90 44 143 23 33 101 87 101 69 0
-9 81 9 95 21 5 5 15 9 22 9 8 0 33 9 55 20 23 11 47 20 54 20 7 0 36 12 66
26 49 23 60 25 148 19 52 -4 140 -8 195 -9z m-8883 -447 c169 -35 261 -128
318 -319 34 -115 39 -361 11 -489 -28 -129 -72 -220 -133 -277 -87 -82 -188
-114 -352 -114 -257 1 -398 103 -462 335 -22 80 -31 370 -14 472 35 218 130
340 298 384 78 21 254 25 334 8z m5141 0 c113 -17 117 -22 117 -133 0 -122 -2
-123 -119 -108 -49 7 -123 12 -165 12 -69 0 -79 -3 -103 -26 -22 -22 -25 -32
-20 -77 5 -60 21 -76 117 -119 278 -124 330 -185 330 -387 0 -115 -15 -171
-61 -236 -39 -54 -96 -91 -171 -111 -64 -17 -263 -18 -363 -3 -38 6 -142 11
-230 10 -88 -1 -166 2 -173 7 -6 4 -27 66 -45 138 l-34 129 -158 0 -159 0 -30
-121 c-17 -67 -37 -129 -45 -138 -12 -14 -33 -16 -150 -14 -162 4 -158 -2
-111 139 31 94 153 486 257 824 31 99 60 186 65 193 8 9 56 12 179 12 152 0
169 -2 178 -18 5 -10 34 -103 65 -207 30 -105 66 -221 80 -260 13 -38 54 -173
91 -300 37 -126 71 -237 76 -245 5 -10 8 3 9 36 0 78 7 81 158 61 254 -35 305
-16 289 106 -8 57 -54 96 -170 142 -224 89 -285 176 -274 389 11 228 116 315
380 316 65 0 151 -5 190 -11z m-4035 -21 c19 -19 16 -193 -4 -212 -13 -13 -46
-16 -205 -16 l-189 0 0 -115 0 -115 177 0 c220 0 213 4 213 -125 0 -65 -4 -96
-13 -104 -9 -6 -83 -12 -198 -13 l-184 -3 -1 -212 c-1 -154 -5 -217 -14 -228
-16 -19 -239 -22 -258 -3 -17 17 -17 1129 0 1146 17 17 659 17 676 0z m787 2
c3 -5 7 -53 8 -106 1 -73 -2 -97 -14 -105 -7 -5 -107 -9 -221 -9 l-208 0 0
-109 0 -110 200 -3 c165 -2 202 -6 210 -18 14 -22 12 -184 -2 -198 -9 -9 -69
-12 -210 -12 l-198 0 0 -125 0 -125 204 0 c113 0 216 -4 230 -10 26 -9 26 -11
26 -114 0 -85 -3 -105 -16 -110 -9 -3 -173 -6 -364 -6 -335 0 -350 1 -360 19
-15 30 -14 1123 2 1139 15 15 703 17 713 2z m715 -8 c85 -23 140 -59 179 -118
l31 -47 0 86 c0 82 1 87 23 92 12 3 213 4 447 3 l425 -3 3 -104 c2 -67 -1
-108 -9 -117 -9 -11 -44 -14 -155 -14 l-144 0 0 -453 c0 -339 -3 -456 -12
-465 -17 -17 -239 -17 -256 0 -9 9 -12 126 -12 464 l0 453 -147 3 -148 3 0
-130 c0 -128 -1 -132 -33 -198 -31 -63 -67 -101 -131 -136 -10 -6 12 -55 93
-207 79 -147 106 -207 104 -229 l-3 -30 -131 -3 c-157 -3 -156 -3 -206 113
-19 44 -57 130 -84 192 l-49 112 -57 1 -58 0 0 -198 c0 -141 -3 -201 -12 -210
-13 -13 -222 -18 -252 -6 -14 6 -16 66 -16 578 0 315 3 576 7 579 3 4 126 7
272 6 219 0 277 -3 331 -17z m6010 -198 c21 -5 38 -17 51 -38 26 -43 24 -48
-18 -46 -67 3 -70 1 -38 -25 l30 -25 -30 6 c-20 4 -63 -5 -125 -25 -52 -17
-96 -29 -98 -27 -2 2 13 16 33 31 43 33 39 44 -6 18 -44 -25 -79 -60 -80 -81
0 -12 -3 -10 -10 7 -12 31 -5 52 31 90 17 17 30 38 30 46 0 8 7 15 15 15 7 0
18 6 22 14 20 35 117 55 193 40z m708 -44 c6 0 12 -5 12 -12 0 -6 14 -40 31
-76 27 -58 31 -63 43 -46 12 15 15 11 26 -37 7 -30 16 -60 20 -68 7 -14 -22
-75 -41 -87 -24 -14 -126 -32 -155 -26 -20 4 -25 1 -22 -9 10 -30 129 -10 179
31 22 17 42 30 44 28 2 -2 0 -21 -5 -43 -5 -22 -10 -83 -10 -136 0 -131 -9
-186 -29 -192 -9 -2 -24 -28 -35 -58 -10 -30 -28 -74 -40 -99 -17 -38 -21 -41
-24 -22 -3 20 -13 27 -35 23 -4 -1 -3 8 3 19 9 16 8 18 -5 14 -9 -4 -15 0 -15
9 0 9 -4 18 -9 21 -5 4 -7 -4 -4 -15 8 -30 -6 -22 -56 33 -42 46 -43 49 -44
118 -1 38 -4 70 -9 70 -4 0 -17 10 -28 22 -15 17 -25 20 -36 13 -9 -6 -15 -14
-14 -19 6 -30 -91 -30 -138 0 -20 13 -30 13 -85 -2 -34 -9 -77 -19 -94 -21
-18 -3 -33 -9 -33 -14 0 -11 31 -43 56 -58 16 -9 17 -12 4 -20 -10 -7 -17 -6
-22 2 -5 8 -8 6 -8 -6 0 -10 -4 -15 -10 -12 -6 4 -10 -7 -10 -24 0 -17 -4 -31
-10 -31 -5 0 -7 7 -3 16 4 12 1 15 -13 12 -11 -2 -18 -11 -16 -20 3 -16 -26
-32 -69 -37 -5 0 -7 -6 -3 -13 5 -8 2 -9 -12 -3 -10 4 -27 7 -37 7 -31 -1 -30
25 2 94 17 36 31 68 31 70 0 2 -25 -23 -55 -56 -30 -33 -55 -68 -55 -79 0 -10
-7 -24 -16 -32 -8 -7 -13 -21 -11 -31 3 -10 1 -21 -5 -24 -29 -18 -29 -101 2
-179 19 -46 21 -132 4 -146 -10 -8 -14 -8 -14 -1 0 7 -8 9 -17 5 -16 -6 -16
-5 -4 10 7 9 9 17 4 17 -5 0 -9 20 -8 45 1 24 -1 42 -6 39 -9 -5 -21 50 -18
81 5 46 -1 64 -18 58 -14 -5 -15 0 -11 43 2 27 3 41 1 32 -6 -25 -43 -23 -43
2 0 11 -5 20 -11 20 -5 0 -8 4 -4 9 3 5 1 12 -4 16 -5 3 -14 -3 -20 -12 -9
-15 -11 -14 -11 12 -1 26 -3 27 -10 10 -8 -19 -9 -19 -9 3 -1 25 -22 52 -41
52 -6 0 -8 5 -5 11 4 5 -4 20 -17 32 -14 13 -23 28 -20 35 2 7 -1 12 -7 12 -6
0 -11 8 -11 18 0 10 -15 42 -34 71 -33 52 -33 54 -15 72 22 22 26 94 6 102 -7
3 -24 25 -37 50 -23 43 -23 45 -7 80 22 45 21 50 -3 72 -11 10 -20 24 -20 31
0 15 94 46 144 48 26 1 30 -2 27 -19 -2 -11 -3 -32 -4 -47 0 -15 -6 -29 -13
-32 -38 -15 1 -51 63 -60 44 -5 53 -11 87 -56 21 -28 43 -50 49 -50 5 0 3 8
-6 18 -10 10 -17 23 -17 29 0 6 -7 16 -15 23 -8 7 -15 23 -15 37 0 19 10 29
53 48 28 14 58 25 65 25 6 0 12 5 12 11 0 7 11 8 30 4 17 -4 69 -4 116 0 75 7
83 9 72 23 -11 13 -9 15 21 9 18 -4 43 -7 54 -7 17 0 19 -5 13 -37 -14 -87
-18 -99 -35 -123 -18 -25 -17 -25 4 -26 32 -2 73 73 100 181 19 79 25 91 48
99 37 13 75 -6 82 -41 25 -122 72 -211 131 -249 61 -39 90 -54 103 -54 24 0 8
17 -34 38 -45 22 -81 66 -110 135 -14 35 -14 38 2 43 10 4 36 15 59 25 31 15
47 17 65 10 17 -7 19 -10 7 -10 -10 -1 -18 -7 -18 -15 0 -9 20 -19 52 -27 29
-6 72 -21 96 -31 33 -15 47 -17 55 -9 9 9 6 13 -11 18 -15 3 -21 11 -18 22 8
24 -37 106 -60 108 -10 2 -13 0 -6 -3 29 -13 8 -22 -50 -22 -41 0 -82 -7 -116
-21 -29 -12 -57 -21 -63 -21 -21 0 87 74 126 86 36 11 37 14 18 20 -13 3 -23
10 -23 13 0 8 34 26 60 34 8 2 26 -2 40 -10 14 -7 31 -13 38 -13z m172 -192
c0 -7 -7 -22 -15 -32 -16 -21 -18 -15 -9 22 7 23 24 31 24 10z m-496 -545 c10
-6 27 -8 36 -6 10 3 21 0 24 -6 4 -6 14 -11 23 -11 18 0 53 -28 53 -42 0 -5
-17 -6 -37 -3 -21 3 -32 2 -25 -1 43 -20 -38 -36 -206 -39 -75 -1 -105 2 -113
12 -15 18 -36 16 -88 -8 -46 -20 -61 -15 -60 21 0 10 3 8 9 -5 6 -17 9 -14 15
18 6 29 10 35 20 27 10 -8 16 -7 22 3 10 17 63 32 63 17 0 -5 5 -10 10 -10 6
0 10 9 10 20 0 25 14 26 38 2 18 -18 20 -18 41 -1 17 14 28 16 46 9 18 -7 28
-6 37 4 14 15 55 14 82 -1z m39 -144 c26 -7 41 -18 48 -35 12 -33 3 -47 -21
-32 -15 9 -24 9 -43 -1 -18 -9 -30 -10 -44 -3 -12 7 -25 7 -34 1 -18 -11 -66
-12 -73 0 -10 16 -80 19 -98 4 -14 -13 -18 -12 -36 7 -17 18 -21 19 -32 5 -13
-16 -30 -12 -30 8 0 16 56 45 95 50 69 7 233 5 268 -4z m-653 -95 c0 -8 -5
-12 -10 -9 -6 4 -8 11 -5 16 9 14 15 11 15 -7z m142 -36 c3 -7 13 -13 23 -13
12 0 29 -19 49 -56 17 -31 37 -64 45 -73 14 -16 16 -16 28 8 24 45 140 47 175
3 15 -19 18 -20 18 -4 0 24 37 22 52 -3 7 -11 21 -20 31 -20 23 0 66 -49 67
-75 0 -32 56 41 76 100 9 28 26 70 37 94 18 39 22 42 33 27 11 -16 13 -16 22
1 10 16 12 15 22 -12 8 -21 8 -31 1 -33 -6 -2 -11 -18 -11 -35 l0 -32 19 24
18 24 7 -33 c7 -37 1 -49 -15 -33 -6 6 -17 9 -25 6 -10 -3 -5 -14 16 -36 23
-24 26 -33 15 -35 -8 -2 -15 -8 -15 -13 0 -6 -4 -7 -10 -4 -5 3 -10 -2 -10
-13 0 -10 -9 -28 -20 -40 -23 -25 -25 -33 -6 -26 8 3 17 0 22 -7 4 -7 3 -10
-3 -6 -6 4 -13 -3 -16 -14 -3 -12 -10 -18 -16 -15 -6 4 -8 -2 -6 -14 5 -25 -4
-50 -17 -50 -5 0 -6 9 -3 20 4 11 2 20 -4 20 -6 0 -11 -5 -11 -11 0 -5 -5 -7
-10 -4 -6 4 -17 2 -25 -5 -11 -9 -11 -3 1 37 14 47 13 86 -1 48 -10 -26 -108
-119 -116 -110 -2 1 -44 5 -94 7 -65 2 -89 0 -88 -9 3 -13 -28 -10 -72 7 -21
8 -25 7 -25 -9 0 -10 7 -32 16 -49 8 -18 13 -36 10 -41 -3 -5 0 -13 7 -19 57
-46 381 -39 352 8 -6 10 43 55 51 47 4 -4 2 -26 -4 -49 -6 -24 -13 -55 -17
-70 -3 -16 -10 -28 -15 -28 -6 0 -10 -7 -10 -16 0 -8 -4 -13 -9 -9 -5 3 -12 1
-16 -4 -3 -6 -13 -7 -21 -4 -10 4 -15 1 -14 -8 5 -34 1 -42 -15 -29 -12 10
-15 9 -15 -6 0 -15 -2 -16 -9 -5 -6 9 -33 13 -90 14 -44 0 -81 4 -81 7 0 4
-12 5 -27 2 -18 -3 -30 1 -39 13 -7 9 -17 14 -23 10 -6 -3 -11 2 -11 12 0 9
-16 32 -36 49 -31 28 -40 44 -43 78 -1 5 -8 3 -16 -4 -13 -11 -13 -8 -3 21 9
25 9 34 0 37 -7 2 -12 12 -12 23 0 10 -4 19 -10 19 -5 0 -10 11 -10 24 0 14
-5 28 -12 32 -7 5 -8 3 -3 -5 6 -10 3 -11 -15 -1 -18 10 -20 14 -9 21 11 6 6
16 -21 46 -19 21 -39 41 -44 44 -5 4 2 22 16 40 27 38 31 95 7 110 -11 7 -11
11 -1 17 9 6 10 16 4 33 -10 25 1 69 17 69 5 0 11 -6 13 -12z m746 -40 c-4
-51 -20 -59 -36 -16 -10 27 -9 33 6 44 28 22 33 16 30 -28z m-8489 -71 c29 -8
57 -21 62 -28 5 -8 9 -56 9 -106 0 -90 -1 -93 -25 -99 -13 -3 -71 0 -129 6
-122 15 -210 10 -233 -13 -9 -8 -18 -38 -21 -65 -4 -44 -1 -52 27 -85 21 -23
58 -46 109 -67 176 -74 240 -121 290 -215 25 -46 27 -59 27 -165 -1 -106 -3
-119 -30 -173 -81 -163 -257 -217 -557 -172 -146 22 -148 24 -148 140 0 88 2
96 24 110 20 14 31 14 93 1 119 -25 242 -31 285 -13 45 19 64 69 47 129 -13
49 -50 77 -175 128 -196 81 -264 164 -272 333 -10 199 71 320 242 363 66 17
301 12 375 -9z m2524 12 c116 -18 107 2 107 -242 0 -152 -3 -216 -12 -225 -8
-8 -46 -12 -104 -12 -124 0 -124 0 -124 146 l0 115 -57 -6 c-157 -19 -197 -93
-196 -365 0 -224 25 -313 98 -350 41 -20 171 -25 278 -10 118 16 122 12 122
-110 0 -114 -11 -128 -111 -140 -93 -12 -289 -12 -344 1 -55 12 -144 53 -187
85 -45 34 -101 135 -125 224 -15 54 -22 120 -25 238 -14 412 75 593 317 648
70 16 270 17 363 3z m3063 0 c123 -21 124 -23 124 -145 0 -89 -1 -95 -23 -103
-13 -5 -43 -5 -68 -1 -70 14 -225 23 -253 16 -42 -10 -66 -44 -66 -94 0 -64
48 -108 160 -151 87 -33 192 -95 222 -130 36 -42 59 -105 70 -184 9 -72 8 -92
-10 -164 -23 -91 -49 -136 -97 -173 -18 -14 -31 -29 -27 -34 3 -5 0 -6 -6 -2
-6 4 -31 -4 -54 -16 -40 -22 -55 -23 -223 -23 -187 0 -274 12 -307 42 -15 13
-18 32 -18 109 0 132 9 138 163 109 43 -8 114 -15 158 -15 69 0 79 2 79 18 0
14 2 15 10 2 8 -13 11 -13 27 3 12 12 17 33 17 70 0 80 -28 106 -185 167 -123
48 -199 111 -239 199 -22 48 -25 68 -25 165 0 102 2 115 28 166 48 94 102 137
207 166 56 16 256 18 336 3z m-6266 -19 c11 -7 16 -33 18 -97 5 -134 16 -128
-230 -130 -112 -1 -206 -2 -210 -3 -5 0 -8 -49 -8 -110 l0 -110 198 0 c141 0
201 -3 210 -12 16 -16 16 -190 0 -206 -9 -9 -69 -12 -210 -12 l-198 0 0 -125
0 -125 218 0 c119 0 223 -4 231 -9 21 -13 28 -179 9 -203 -12 -16 -43 -18
-366 -18 -194 -1 -357 2 -362 5 -16 10 -13 1138 2 1153 15 15 675 17 698 2z
m1427 -4 c193 -41 274 -159 274 -397 -1 -157 -43 -272 -124 -333 -70 -53 -131
-69 -284 -74 l-143 -4 0 -159 c0 -204 4 -199 -147 -199 -85 0 -110 3 -125 17
-17 15 -18 46 -18 578 0 423 3 564 12 573 17 17 472 16 555 -2z m1053 -1 c15
-18 14 -195 -1 -210 -6 -6 -97 -11 -224 -13 l-215 -3 0 -110 0 -109 196 0
c115 0 203 -4 215 -10 17 -9 19 -22 19 -103 0 -59 -4 -97 -12 -105 -9 -9 -71
-12 -215 -12 l-204 0 3 -122 3 -123 219 -3 c141 -1 224 -6 233 -13 17 -15 18
-200 1 -217 -16 -16 -690 -17 -719 -2 -18 10 -19 27 -19 578 0 429 3 571 12
580 9 9 101 12 354 12 291 0 343 -2 354 -15z m1540 -11 c13 -32 13 -174 0
-194 -7 -11 -33 -16 -100 -18 l-90 -4 2 -346 3 -347 82 -1 c47 -1 88 -6 96
-13 12 -9 17 -5 27 21 6 18 16 42 21 53 4 11 38 121 74 243 37 123 79 261 95
305 15 45 40 123 55 172 15 50 34 105 42 123 l15 32 163 0 c142 0 164 -2 177
-17 14 -16 30 -65 89 -268 11 -38 31 -104 45 -145 30 -90 39 -118 98 -325 26
-88 51 -169 55 -180 5 -11 13 -36 19 -55 l10 -35 1 37 c1 44 24 54 123 53 63
-1 67 1 73 23 7 29 5 640 -2 659 -4 9 -28 13 -83 13 -105 0 -110 5 -110 124 0
58 4 96 12 104 9 9 96 12 330 12 303 0 318 -1 328 -19 13 -25 13 -181 0 -201
-7 -11 -33 -16 -100 -18 l-90 -4 0 -344 c0 -387 -9 -349 82 -344 26 1 63 -3
83 -10 l35 -12 0 -102 c0 -66 -4 -106 -12 -114 -9 -9 -126 -12 -464 -12 -403
0 -453 2 -465 16 -7 9 -27 71 -45 138 l-31 121 -159 0 -158 0 -27 -112 c-14
-61 -33 -123 -43 -137 l-16 -26 -443 0 c-331 0 -446 3 -455 12 -17 17 -16 202
1 216 7 6 51 12 97 14 l85 3 3 347 2 346 -90 4 c-67 2 -93 7 -100 18 -13 20
-13 176 0 201 10 18 25 19 331 19 l319 0 10 -26z m-1021 -1364 c68 -35 119
-105 141 -195 7 -27 8 -25 9 18 l1 47 60 0 60 0 0 -104 c0 -119 12 -164 45
-172 65 -16 85 25 85 179 l0 97 85 0 85 0 0 28 c0 15 4 32 8 38 8 13 112 47
120 40 2 -3 5 -26 6 -53 l2 -48 101 -3 101 -3 4 -125 c3 -111 5 -127 22 -140
25 -18 47 -18 72 0 17 13 19 29 22 140 l4 126 64 0 64 0 -2 -192 -3 -193 -75
-2 c-41 -1 -100 -5 -131 -9 -80 -9 -132 21 -157 91 -10 28 -10 26 -11 -26 l-1
-56 -38 -7 c-40 -6 -96 6 -123 27 -30 23 -43 62 -48 152 -5 81 -8 90 -26 90
-19 0 -20 -8 -23 -133 l-3 -134 -77 2 c-42 0 -103 -2 -134 -6 -53 -6 -61 -4
-94 21 -45 34 -64 80 -66 153 0 31 -3 50 -5 42 -22 -77 -103 -180 -140 -180
-7 0 -13 -4 -13 -9 0 -16 -90 -34 -148 -28 -145 13 -242 113 -250 259 -7 114
46 220 132 266 80 42 196 43 275 2z m-1909 -23 c22 -30 40 -59 40 -65 0 -19
-105 -15 -120 3 -12 14 -15 14 -30 0 -10 -9 -36 -15 -69 -15 -61 0 -61 2 -6
79 36 50 37 51 91 51 53 0 54 0 94 -53z m952 -104 l3 -148 23 46 c14 29 39 58
65 75 37 25 51 29 117 29 84 0 117 -16 167 -81 22 -30 27 -46 27 -102 l1 -67
-130 -5 c-111 -4 -127 -7 -108 -17 27 -16 67 -16 108 -2 27 10 36 9 73 -15 23
-14 42 -28 42 -31 0 -15 -71 -65 -107 -75 -105 -30 -207 12 -253 105 l-25 50
-5 -75 -5 -75 -54 -3 c-30 -2 -58 1 -63 6 -7 7 -22 5 -44 -4 -71 -30 -137 -11
-196 54 -50 56 -65 108 -50 178 13 62 38 103 85 136 26 18 45 23 98 23 41 0
72 -5 82 -14 16 -12 17 -6 17 73 l0 86 65 0 64 0 3 -147z m2278 67 c0 -44 2
-80 5 -80 3 0 22 7 43 16 31 13 45 14 89 3 74 -17 126 -69 143 -142 7 -28 8
-26 10 23 4 115 -3 105 68 108 52 2 62 0 62 -13 0 -14 4 -14 29 4 15 11 31 18
34 14 4 -3 13 0 21 6 20 17 32 -1 35 -51 1 -13 5 -18 9 -13 22 33 95 66 152
70 71 6 165 -58 196 -130 18 -44 18 -113 0 -156 -16 -39 -83 -105 -121 -119
-43 -16 -122 -12 -164 10 -75 38 -129 134 -118 208 9 53 -26 54 -57 2 -13 -24
-17 -50 -15 -123 l2 -92 -62 -3 c-58 -3 -61 -2 -62 20 -1 13 -2 28 -4 33 -1 6
-3 33 -4 60 l-2 50 -15 -45 c-17 -49 -80 -116 -120 -126 -13 -3 -47 -3 -76 0
-29 3 -87 7 -128 8 l-75 3 -3 268 -2 267 65 0 65 0 0 -80z m-4740 -78 c42 -20
70 -71 71 -127 l0 -40 20 52 c56 146 242 179 346 60 90 -103 60 -245 -67 -310
-64 -33 -112 -33 -184 3 -53 25 -85 66 -102 129 -13 46 -13 45 -13 -46 l-1
-93 -60 0 -60 0 0 124 c0 117 -1 126 -22 140 -25 18 -67 12 -85 -12 -9 -11
-13 -54 -13 -134 l0 -118 -60 0 -60 0 0 190 0 190 60 0 c33 0 60 -4 60 -10 0
-5 15 -3 33 5 44 19 95 18 137 -3z m921 0 c35 -18 37 -18 70 0 101 54 218 -19
220 -136 l0 -51 13 48 c31 113 122 170 241 153 30 -5 57 -19 87 -46 l44 -38
27 33 c45 56 138 71 214 34 49 -24 70 -53 54 -73 -6 -7 -29 -21 -50 -31 -37
-16 -41 -16 -56 -1 -18 18 -55 22 -55 6 0 -6 8 -13 18 -16 125 -41 162 -74
162 -147 0 -51 -25 -86 -78 -108 -75 -32 -164 -19 -218 32 -15 14 -24 17 -29
10 -3 -6 -28 -23 -55 -36 -126 -64 -284 8 -308 140 -6 33 -8 24 -12 -55 l-5
-95 -52 -1 c-28 -1 -56 2 -62 5 -6 4 -11 58 -13 136 l-3 130 -38 3 c-32 3 -38
0 -47 -23 -6 -14 -10 -78 -10 -141 l0 -114 -44 0 c-77 0 -76 -3 -76 134 0 132
-5 146 -52 146 -40 0 -48 -25 -48 -154 0 -113 -1 -116 -24 -122 -13 -3 -38 -4
-57 -2 l-34 3 -3 193 -2 192 60 0 c35 0 60 -4 60 -10 0 -6 12 -4 28 4 37 21
91 20 133 -2z m3370 -826 c97 -30 187 -105 237 -199 40 -74 56 -194 37 -267
-16 -60 -52 -137 -75 -160 -10 -10 -19 -22 -21 -26 -7 -17 -93 -80 -133 -99
-22 -9 -65 -20 -95 -24 -31 -3 -1008 -4 -2171 -1 l-2115 5 -57 27 c-80 37
-152 107 -190 186 -43 86 -51 215 -19 304 45 128 152 227 278 257 22 5 963 9
2158 10 1797 1 2127 -1 2166 -13z m2236 -298 c-2 -13 -4 -5 -4 17 -1 22 1 32
4 23 2 -10 2 -28 0 -40z m-2027 -348 c0 -5 -5 -10 -11 -10 -5 0 -7 5 -4 10 3
6 8 10 11 10 2 0 4 -4 4 -10z m1820 -610 c0 -5 -4 -10 -10 -10 -5 0 -10 5 -10
10 0 6 5 10 10 10 6 0 10 -4 10 -10z"/>
<path d="M1289 4841 c-75 -41 -102 -129 -102 -336 -1 -207 27 -310 95 -350 18
-10 58 -20 97 -22 55 -4 74 -1 111 19 24 13 53 37 63 54 28 51 47 160 47 284
0 196 -27 295 -93 344 -41 30 -167 34 -218 7z"/>
<path d="M5580 4708 c-44 -160 -80 -293 -80 -300 0 -5 47 -8 104 -8 l104 0 -8
33 c-75 287 -92 352 -94 354 -2 2 -13 -34 -26 -79z"/>
<path d="M3820 4701 l0 -161 80 0 c90 0 132 14 170 54 20 22 25 40 28 95 7
125 -32 161 -185 169 l-93 5 0 -162z"/>
<path d="M10285 4479 c-4 -6 -5 -12 -2 -15 2 -3 7 2 10 11 7 17 1 20 -8 4z"/>
<path d="M9972 4468 c5 -15 28 -23 28 -10 0 5 -7 13 -16 16 -10 4 -14 1 -12
-6z"/>
<path d="M10210 4455 c-14 -16 -3 -20 19 -6 8 5 9 11 3 15 -5 3 -15 -1 -22 -9z"/>
<path d="M10036 4438 c7 -10 124 -11 124 0 0 4 -29 7 -64 7 -36 1 -62 -3 -60
-7z"/>
<path d="M10755 4170 c4 -14 12 -29 17 -35 7 -7 8 -2 3 15 -4 14 -12 30 -17
35 -7 7 -8 2 -3 -15z"/>
<path d="M9835 4080 c-3 -5 -1 -10 4 -10 6 0 11 5 11 10 0 6 -2 10 -4 10 -3 0
-8 -4 -11 -10z"/>
<path d="M9870 4040 c0 -5 5 -10 10 -10 6 0 10 5 10 10 0 6 -4 10 -10 10 -5 0
-10 -4 -10 -10z"/>
<path d="M10410 3642 c0 -12 19 -26 26 -19 2 2 -2 10 -11 17 -9 8 -15 8 -15 2z"/>
<path d="M10042 3581 c4 -13 18 -16 19 -4 0 4 -5 9 -11 12 -7 2 -11 -2 -8 -8z"/>
<path d="M2800 3284 l0 -177 79 6 c144 9 186 49 186 177 -1 134 -40 170 -185
170 l-80 0 0 -176z"/>
<path d="M6151 3395 c-1 -5 -10 -41 -21 -80 -31 -112 -67 -248 -74 -277 l-6
-28 100 0 c59 0 100 4 100 10 0 10 -87 356 -95 375 -2 7 -4 7 -4 0z"/>
<path d="M4444 2194 c-90 -44 -98 -201 -12 -254 43 -28 141 -24 176 5 65 55
68 172 7 229 -42 39 -116 48 -171 20z"/>
<path d="M5357 2053 c-7 -14 -9 -102 -2 -123 5 -15 15 -20 41 -20 l34 0 0 75
0 75 -34 0 c-19 0 -37 -3 -39 -7z"/>
<path d="M3858 2069 c-10 -5 -18 -17 -18 -25 0 -11 13 -14 60 -12 65 3 81 21
34 38 -32 13 -54 12 -76 -1z"/>
<path d="M3425 2045 c-39 -38 -27 -116 19 -132 64 -21 116 13 116 76 0 74 -83
109 -135 56z"/>
<path d="M3691 1964 c0 -11 3 -14 6 -6 3 7 2 16 -1 19 -3 4 -6 -2 -5 -13z"/>
<path d="M5993 2044 c-22 -22 -25 -32 -20 -67 7 -49 28 -67 78 -67 51 0 83 39
75 90 -11 69 -84 93 -133 44z"/>
<path d="M6634 2059 c-11 -6 -26 -26 -33 -45 -11 -30 -10 -39 6 -67 16 -27 26
-33 60 -35 36 -3 44 1 62 27 12 16 21 36 21 45 0 28 -22 64 -47 75 -29 13 -41
13 -69 0z"/>
<path d="M1470 2057 c-16 -8 -28 -26 -34 -50 -14 -53 15 -91 72 -95 52 -4 82
23 82 73 0 66 -60 102 -120 72z"/>
<path d="M2613 2068 c-45 -22 -27 -38 42 -38 68 0 79 9 43 34 -26 18 -53 19
-85 4z"/>
<path d="M2848 1963 l-3 -28 -130 -5 c-111 -4 -127 -7 -108 -17 28 -16 87 -17
113 -1 16 10 26 8 58 -10 22 -12 43 -18 48 -13 5 5 27 18 48 30 40 20 40 20
58 1 19 -20 78 -28 78 -11 0 5 -17 15 -37 21 -49 15 -84 31 -105 48 -15 12
-17 11 -20 -15z"/>
<path d="M1273 1127 c-101 -38 -150 -153 -108 -254 21 -49 54 -78 115 -98 48
-16 54 -16 103 0 28 9 62 27 75 40 l23 24 -29 15 c-26 14 -31 14 -42 1 -30
-36 -120 -34 -161 3 -45 43 -47 126 -4 176 21 24 32 29 79 30 39 1 59 -4 74
-17 19 -18 22 -18 53 -1 l33 17 -31 26 c-32 26 -98 52 -130 50 -10 0 -32 -6
-50 -12z"/>
<path d="M1613 1128 c-18 -6 -33 -15 -33 -19 0 -5 -7 -9 -15 -9 -8 0 -27 -19
-42 -42 -23 -34 -28 -54 -30 -107 -2 -66 7 -91 46 -132 29 -30 85 -53 133 -53
57 0 133 43 161 92 23 39 26 116 7 164 -18 45 -70 92 -118 106 -46 14 -65 14
-109 0z m128 -81 c29 -18 51 -73 46 -114 -7 -50 -37 -86 -84 -99 -112 -33
-198 103 -123 194 34 41 112 50 161 19z"/>
<path d="M3643 1128 c-18 -6 -33 -15 -33 -19 0 -5 -6 -9 -14 -9 -27 0 -67 -68
-73 -125 -21 -199 200 -285 331 -128 21 25 27 43 29 91 2 67 -12 101 -59 147
-31 29 -96 56 -131 54 -10 -1 -33 -6 -50 -11z m128 -81 c42 -26 58 -101 34
-159 -11 -27 -68 -58 -106 -58 -48 0 -81 20 -101 60 -48 95 19 191 121 174 18
-3 42 -11 52 -17z"/>
<path d="M5311 1123 c-40 -20 -65 -71 -56 -114 8 -34 53 -70 112 -89 85 -26
96 -82 18 -88 -27 -2 -47 3 -67 18 -27 20 -31 20 -53 6 -33 -21 -42 -20 -50 7
-3 12 -10 31 -14 42 -5 11 -21 58 -36 105 -41 124 -39 122 -91 118 l-45 -3
-31 -85 c-17 -47 -31 -95 -30 -107 0 -13 -4 -23 -8 -23 -5 0 -16 -25 -24 -55
-9 -30 -19 -61 -22 -70 -5 -12 2 -15 34 -15 36 0 40 3 46 30 l6 30 74 0 c72 0
74 0 86 -30 11 -26 18 -30 50 -30 35 0 37 2 32 26 -5 29 4 28 40 -3 47 -41
161 -32 198 15 25 31 26 92 3 121 -10 11 -47 31 -83 45 -71 26 -91 46 -74 73
14 23 43 25 85 7 29 -13 41 -13 58 -5 29 16 13 44 -39 71 -47 24 -74 25 -119
3z m-202 -148 c12 -36 19 -70 16 -75 -3 -6 -27 -10 -51 -10 l-46 0 7 41 c9 50
32 109 43 109 5 0 18 -29 31 -65z"/>
<path d="M1890 951 l1 -181 35 0 34 0 0 101 c0 57 4 99 9 97 5 -1 41 -46 78
-98 72 -99 107 -122 115 -78 2 13 4 93 4 178 l-1 155 -32 3 -33 3 0 -100 c0
-58 -4 -101 -10 -101 -5 0 -27 26 -49 58 -22 31 -53 75 -69 97 -19 27 -37 41
-55 43 l-27 3 0 -180z"/>
<path d="M2219 1126 c-2 -2 -3 -83 -1 -180 l3 -176 34 0 34 0 3 68 3 67 65 5
c61 5 65 6 65 30 0 24 -3 25 -68 28 l-67 3 0 44 0 44 68 3 67 3 3 33 3 32
-104 0 c-57 0 -106 -2 -108 -4z"/>
<path d="M2468 1124 c-4 -3 -7 -84 -8 -180 l-1 -174 111 0 110 0 0 30 0 29
-72 3 -73 3 0 40 0 40 60 0 60 0 3 32 3 32 -63 3 -63 3 -3 37 -3 37 73 3 73 3
2 33 3 32 -103 0 c-57 0 -106 -3 -109 -6z"/>
<path d="M2715 954 l0 -179 33 -3 c31 -3 32 -3 33 40 2 71 3 73 31 76 27 3 34
-5 84 -93 7 -13 24 -21 49 -23 l37 -3 -37 66 -37 66 26 20 c38 30 51 90 30
135 -26 54 -52 66 -157 72 l-93 5 1 -179z m181 89 c19 -25 17 -63 -3 -79 -23
-17 -103 -18 -104 -1 -4 38 -4 83 -1 90 2 4 24 7 49 7 32 0 50 -5 59 -17z"/>
<path d="M3010 950 l-1 -180 36 0 35 0 0 180 0 180 -34 0 -34 0 -2 -180z"/>
<path d="M3125 1119 c-3 -8 -4 -89 -3 -179 l3 -165 38 -3 37 -3 0 60 c0 60 1
61 28 61 23 0 32 -9 58 -57 28 -53 35 -58 68 -61 20 -2 36 -1 36 2 0 3 -13 27
-30 53 -36 57 -37 67 -5 105 47 55 45 107 -5 159 -27 29 -34 31 -124 36 -78 5
-97 3 -101 -8z m188 -92 c15 -46 -13 -77 -68 -77 l-45 0 0 56 0 55 52 -3 c46
-3 52 -6 61 -31z"/>
<path d="M3920 949 l0 -180 33 3 c32 3 32 3 37 68 l5 65 68 3 c67 3 67 3 67
32 l0 30 -70 0 -70 0 0 45 0 45 70 0 70 0 0 35 0 35 -105 0 -105 0 0 -181z"/>
<path d="M4160 950 l0 -180 110 0 110 0 0 30 0 30 -70 0 c-75 0 -70 -4 -74 60
-1 23 2 24 41 22 64 -5 83 4 83 39 0 29 0 29 -59 29 -57 0 -59 1 -65 31 -3 17
-3 35 0 40 3 5 36 9 75 9 l69 0 0 35 0 35 -110 0 -110 0 0 -180z"/>
<path d="M4418 1125 c-4 -5 -8 -86 -7 -182 l0 -173 33 0 c39 0 46 12 46 76 0
43 1 45 27 42 21 -2 34 -16 60 -60 31 -53 37 -58 69 -58 l36 0 -23 38 c-51 85
-51 84 -25 112 34 36 46 64 46 104 0 36 0 36 45 36 l45 0 0 -145 0 -145 35 0
35 0 0 144 0 145 48 3 c45 3 47 4 47 33 l0 30 -127 3 -128 3 0 -26 c0 -31 -16
-32 -46 -4 -19 18 -39 23 -116 26 -51 3 -96 2 -100 -2z m186 -97 c10 -50 -15
-78 -68 -78 -49 0 -54 7 -48 72 l4 38 53 0 c51 0 53 -1 59 -32z"/>
<path d="M12956 5832 c-4 -10 -21 -25 -39 -33 -23 -10 -33 -22 -35 -41 -2 -14
-10 -32 -18 -38 -8 -7 -14 -27 -14 -46 0 -18 -4 -36 -10 -39 -15 -9 -12 -25 4
-25 7 0 20 -7 27 -16 11 -14 10 -18 -5 -29 -20 -15 -14 -55 8 -55 17 0 44 -66
53 -126 4 -30 13 -54 25 -62 10 -7 18 -20 18 -28 0 -8 7 -14 15 -14 12 0 12
-5 4 -24 -9 -18 -7 -32 6 -60 10 -20 18 -57 20 -83 1 -37 6 -48 23 -54 25 -9
30 -39 7 -39 -22 0 -18 -18 9 -43 36 -34 58 -86 59 -139 1 -36 4 -47 14 -44 7
3 18 -5 24 -17 7 -12 16 -25 22 -28 5 -4 6 -12 2 -18 -5 -9 -10 -9 -21 0 -11
9 -14 8 -14 -5 0 -9 7 -19 15 -22 25 -10 58 -77 59 -121 1 -25 6 -43 12 -43 6
0 17 -7 24 -15 11 -13 10 -18 -6 -30 -18 -15 -18 -16 9 -38 15 -12 27 -27 27
-32 0 -4 7 -16 16 -26 10 -11 17 -38 17 -68 1 -33 6 -51 14 -51 20 0 38 -41
23 -50 -10 -6 -5 -18 18 -46 34 -41 42 -88 17 -98 -8 -3 -15 -15 -15 -26 0
-11 -5 -20 -10 -20 -6 0 -15 -10 -20 -22 -6 -13 -14 -30 -20 -38 -20 -32 -50
-105 -50 -123 0 -11 12 -31 27 -45 25 -23 30 -24 70 -14 24 7 48 12 53 12 11
0 70 -125 70 -150 0 -17 40 -59 75 -78 19 -11 18 -11 -7 -12 -18 0 -33 9 -48
30 -13 18 -30 30 -43 30 -16 0 -18 -3 -8 -9 11 -7 11 -9 0 -14 -11 -3 -10 -6
4 -12 17 -7 17 -8 0 -22 -13 -10 -15 -16 -5 -19 6 -3 12 -12 12 -20 0 -19 30
-50 55 -57 11 -4 50 -7 87 -8 78 -2 101 -11 69 -28 -20 -11 -21 -19 -21 -152
l0 -139 -27 -11 c-16 -6 -47 -8 -70 -5 l-43 6 0 -139 c0 -125 28 -373 45 -401
10 -17 78 -30 158 -30 78 0 95 -10 55 -31 -20 -11 -20 -13 -5 -24 25 -18 21
-32 -14 -44 -69 -24 -134 -13 -211 38 -44 28 -46 33 -16 63 l21 21 -24 -6
c-13 -4 -58 -7 -99 -8 -41 -1 -67 -3 -58 -6 16 -4 16 -6 2 -29 -14 -20 -14
-27 -3 -40 7 -9 14 -23 16 -32 6 -45 73 -57 270 -49 78 3 162 1 185 -5 l42 -9
61 63 c34 35 87 93 119 131 32 37 70 70 83 73 15 4 72 -6 142 -25 139 -39 128
-36 221 -60 159 -41 281 -74 431 -116 86 -25 201 -56 255 -69 107 -26 360 -92
409 -106 80 -23 81 -23 111 23 16 23 39 61 52 85 29 54 53 82 64 76 5 -3 7 -2
6 3 -2 4 5 19 15 33 11 15 17 19 17 10 1 -8 7 0 15 18 14 32 35 36 35 7 0 -28
-22 -63 -36 -58 -10 4 -14 -4 -13 -28 1 -24 3 -27 6 -11 5 27 15 28 36 4 26
-29 23 -145 -4 -189 -29 -46 -18 -56 91 -82 111 -27 232 -60 237 -64 2 -2 -6
-24 -17 -48 -11 -24 -20 -54 -20 -66 0 -12 -5 -25 -10 -28 -6 -4 -8 -11 -4
-16 3 -5 2 -15 -3 -22 -5 -7 -10 -23 -11 -37 -1 -14 -13 -80 -28 -145 -18 -84
-28 -159 -30 -248 -4 -105 -8 -136 -25 -170 -18 -34 -248 -435 -295 -514 -20
-32 -64 -38 -121 -14 -43 18 -540 171 -556 171 -4 0 -4 -13 -1 -29 12 -60 -85
-93 -153 -52 -30 19 -31 23 -30 75 1 30 -2 58 -5 62 -4 3 -123 41 -265 85
-143 43 -268 81 -279 85 -10 4 1 -8 25 -27 67 -52 87 -83 73 -113 -44 -97
-342 3 -342 114 0 37 32 60 85 61 22 1 31 3 20 6 -11 3 -87 27 -170 55 -82 27
-253 79 -380 114 -126 36 -238 67 -247 70 -16 5 -18 -4 -18 -89 0 -52 3 -121
6 -155 6 -53 10 -61 31 -67 99 -24 236 -132 286 -223 32 -59 49 -138 38 -178
l-8 -29 -13 40 c-39 121 -148 243 -272 305 -145 72 -256 76 -349 15 -42 -27
-89 -112 -89 -161 0 -49 36 -156 70 -205 16 -24 30 -56 30 -70 0 -75 131 -144
330 -174 121 -19 216 -19 305 0 77 17 108 39 108 81 0 27 -4 32 -92 106 -18
15 -30 32 -26 38 3 6 10 8 14 5 10 -5 58 -18 296 -80 176 -45 334 -91 515
-150 183 -59 465 -125 535 -125 11 0 67 -14 125 -31 l106 -30 17 -47 c9 -26
27 -60 41 -75 l24 -28 65 17 c36 9 72 24 81 33 34 37 75 75 135 124 35 29 75
72 88 97 66 117 175 240 215 240 30 0 118 -59 118 -79 0 -30 21 -41 67 -34 26
3 43 2 43 -4 0 -6 10 -13 23 -16 12 -3 54 -17 92 -32 86 -32 315 -88 450 -110
55 -9 141 -27 190 -39 50 -13 115 -24 146 -24 l57 0 -2 84 c-3 102 -11 93 199
229 83 54 227 148 320 210 641 423 645 426 645 409 0 -5 -35 -31 -78 -58 -42
-27 -84 -54 -93 -60 -43 -28 -354 -243 -375 -259 l-24 -19 21 -17 c16 -13 20
-23 14 -40 -8 -26 -28 -23 -33 5 -7 35 -19 35 -73 4 -100 -59 -219 -142 -219
-154 0 -6 4 -5 9 3 7 11 10 11 12 -4 4 -15 6 -15 31 4 14 12 31 21 37 21 14 0
14 -17 1 -25 -5 -3 -10 -15 -10 -27 0 -18 2 -19 16 -7 15 12 16 11 9 -11 -8
-28 -34 -52 -46 -44 -5 3 -6 -2 -3 -10 4 -11 -6 -21 -33 -33 -21 -10 -47 -26
-58 -36 -15 -13 -21 -15 -24 -5 -7 25 -45 58 -66 58 -37 0 -75 -96 -45 -115
19 -12 10 -31 -32 -63 -23 -18 -39 -32 -36 -32 25 0 162 32 193 44 21 9 66 45
99 80 34 34 75 69 91 78 17 8 47 24 68 36 20 12 54 31 75 43 182 102 526 340
625 433 20 19 43 39 50 43 29 19 105 115 110 140 3 14 0 38 -6 51 -12 26 -27
26 -149 6 -25 -4 -38 -2 -38 5 0 12 -35 -6 -125 -66 -33 -22 -85 -56 -115 -76
-30 -20 -87 -57 -125 -84 -132 -90 -154 -103 -160 -93 -3 5 34 35 82 66 48 31
133 86 188 123 55 36 107 70 115 76 9 5 31 19 49 30 82 49 80 45 82 200 1 77
-2 160 -6 184 -4 26 -3 51 3 65 14 27 30 150 31 241 1 39 7 142 13 230 17 245
16 278 -4 281 -9 1 -22 -4 -29 -12 -6 -8 -16 -14 -22 -14 -5 0 -32 -14 -59
-30 -27 -17 -53 -28 -59 -25 -5 4 -9 2 -9 -4 0 -5 -9 -12 -19 -16 -11 -3 -57
-27 -103 -54 -46 -26 -180 -98 -298 -161 -388 -204 -424 -223 -472 -251 -27
-16 -48 -25 -48 -22 0 4 -4 3 -9 -2 -5 -6 -19 -63 -30 -128 -12 -64 -32 -166
-46 -225 -13 -59 -27 -124 -30 -146 -10 -65 -13 -35 -5 49 5 47 4 82 -1 86 -5
3 -114 25 -242 49 -127 23 -237 45 -242 49 -7 3 -8 18 -4 36 5 22 7 24 8 8 1
-18 10 -23 54 -32 317 -65 443 -88 449 -83 13 13 57 277 47 286 -5 6 -50 18
-101 28 -95 20 -143 37 -101 38 12 0 57 -7 100 -15 97 -19 113 -19 113 0 0 8
-13 17 -32 20 -61 11 -73 13 -80 14 -9 1 -11 45 -3 53 3 3 25 2 48 -3 23 -4
44 -5 46 -3 3 3 -6 16 -20 30 -20 20 -55 31 -179 59 -199 44 -408 80 -588 100
-129 15 -145 15 -174 1 -17 -9 -33 -16 -35 -16 -6 0 8 83 23 135 14 52 16 58
35 183 6 42 22 127 35 187 12 61 26 142 30 180 7 68 8 65 26 -120 13 -130 17
-233 14 -326 -3 -75 -2 -146 1 -157 5 -20 5 -20 49 -1 24 11 48 18 53 14 5 -3
11 -2 13 3 4 11 99 54 105 48 11 -11 -10 -26 -38 -26 -24 0 -29 -4 -29 -24 0
-16 -8 -26 -22 -31 l-23 -8 24 -4 c19 -4 21 -7 10 -15 -11 -7 -8 -9 9 -5 12 3
20 2 17 -3 -5 -9 43 -20 87 -20 16 0 31 6 34 15 5 12 20 14 82 9 42 -3 79 -7
82 -9 40 -25 401 -43 465 -24 108 32 190 63 203 75 7 8 26 14 42 14 16 0 33 6
37 13 4 7 24 19 43 27 19 8 38 19 42 26 4 6 27 15 51 18 34 5 47 13 55 31 7
16 17 23 27 19 8 -3 28 5 44 19 16 13 46 28 66 31 20 4 51 16 68 26 18 10 67
37 110 59 43 22 89 51 102 65 14 15 35 26 49 26 28 0 43 15 24 23 -7 3 3 3 22
0 19 -3 46 -12 58 -20 13 -8 26 -12 28 -10 3 3 0 42 -5 88 -12 92 -24 246 -41
494 -13 185 -24 290 -45 430 -9 55 -20 159 -25 230 -24 315 -87 474 -234 585
-47 36 -194 114 -259 139 -28 11 -29 13 -23 59 19 142 19 139 -12 206 -39 84
-94 137 -189 184 -103 51 -139 59 -333 72 -222 16 -299 14 -367 -5 -74 -22
-189 -80 -212 -108 -11 -12 -38 -44 -60 -71 -70 -81 -98 -148 -100 -241 -1
-43 -5 -83 -7 -87 -3 -4 -31 -15 -62 -24 -87 -26 -171 -64 -230 -104 -57 -40
-125 -124 -142 -176 l-11 -34 -23 27 -23 27 33 44 c27 34 34 53 34 88 0 52
-19 94 -55 123 l-26 20 35 52 c50 72 45 151 -12 203 -20 17 -24 17 -65 3 -34
-11 -48 -12 -57 -4 -10 9 -12 8 -7 -4 4 -12 0 -15 -19 -11 -15 3 -24 0 -24 -9
0 -10 -3 -10 -12 -1 -19 19 -27 14 -37 -25 -14 -51 -49 -105 -64 -101 -7 2
-18 19 -26 36 -23 52 -41 40 -21 -13 9 -23 8 -26 -7 -21 -10 2 -56 7 -103 11
-151 11 -160 13 -167 46 -4 20 -11 29 -25 29 -13 0 -24 11 -31 31 -11 28 -15
30 -48 25 -28 -5 -38 -2 -43 10 -5 14 -9 12 -26 -9 -11 -14 -17 -32 -14 -41 4
-10 1 -16 -7 -16 -47 0 -273 30 -280 37 -5 5 -13 26 -18 48 -5 22 -9 32 -10
23 -1 -14 -10 -18 -38 -18 -81 0 -82 2 -82 96 0 80 1 84 22 84 20 1 20 2 5 11
-19 11 -25 64 -8 74 24 15 4 24 -77 34 -49 7 -100 16 -115 21 -24 7 -31 4 -47
-18 -21 -29 -5 -26 -246 -32 -134 -4 -243 -17 -151 -19 58 -1 38 -11 -33 -16
-34 -2 -66 -7 -71 -10 -6 -4 -10 -2 -10 3 0 6 -10 8 -22 6 -20 -4 -21 -3 -4 4
13 5 16 11 9 15 -6 4 -17 1 -25 -6 -17 -17 -51 -30 -43 -17 3 6 -1 10 -9 10
-9 0 -16 -4 -16 -10 0 -5 -7 -10 -15 -10 -26 0 -63 -30 -80 -63 -31 -62 -17
-123 44 -189 13 -15 22 -31 18 -34 -13 -13 -33 5 -56 52 -13 27 -51 94 -84
149 -33 55 -89 156 -125 225 -35 69 -69 131 -74 138 -17 20 -47 14 -52 -10
-47 -226 -43 -211 -56 -203 -6 3 -7 17 -4 31 4 17 2 24 -9 24 -8 0 -21 7 -28
16 -11 13 -10 17 4 26 14 7 15 13 6 29 -6 11 -16 18 -22 16 -12 -4 -67 69 -67
89 0 7 -16 36 -35 64 -22 32 -39 73 -44 104 -5 28 -9 42 -10 31 -1 -19 -3 -18
-21 5 -22 28 -25 47 -9 52 15 5 -6 48 -24 48 -15 0 -67 64 -67 82 0 7 -9 19
-20 26 -12 7 -25 24 -30 37 -9 25 -30 35 -30 15 0 -5 -14 -10 -30 -10 -24 0
-30 4 -28 18 4 25 -38 29 -46 4z m-46 -72 c0 -5 -2 -10 -4 -10 -3 0 -8 5 -11
10 -3 6 -1 10 4 10 6 0 11 -4 11 -10z m165 -31 c19 -17 35 -37 35 -44 0 -21
50 -103 66 -109 9 -3 14 -12 11 -20 -7 -17 30 -79 43 -71 6 3 7 -1 4 -10 -4
-9 0 -21 8 -28 8 -7 20 -30 26 -52 6 -23 21 -50 32 -62 11 -12 20 -30 20 -40
0 -16 2 -16 11 -3 9 13 10 12 5 -2 -7 -24 3 -48 21 -48 10 0 12 -6 8 -20 -4
-13 -2 -20 7 -20 8 0 18 -22 26 -52 6 -30 21 -61 33 -70 11 -10 18 -22 14 -28
-4 -6 6 -32 22 -58 27 -46 37 -69 72 -162 9 -25 20 -51 24 -57 5 -7 5 -18 2
-23 -4 -6 -2 -16 3 -23 6 -7 13 -33 17 -60 4 -26 11 -50 16 -52 4 -3 6 -12 2
-20 -3 -9 -1 -21 5 -28 6 -6 13 -33 17 -60 4 -26 11 -49 15 -52 5 -3 6 -14 3
-25 -3 -12 0 -20 7 -20 7 0 10 -7 6 -15 -3 -8 -1 -27 4 -40 8 -22 7 -27 -13
-34 -12 -5 -28 -6 -35 -3 -14 5 -52 -25 -52 -40 0 -5 -16 -30 -36 -54 -20 -24
-40 -59 -44 -77 l-7 -32 -22 50 c-12 28 -28 57 -36 65 -7 8 -18 35 -25 60 -6
25 -20 60 -31 78 -10 18 -19 40 -19 48 0 8 -11 39 -24 67 -13 29 -31 76 -41
104 -9 29 -21 55 -26 58 -5 4 -9 16 -9 28 0 12 -11 42 -25 66 -14 23 -25 48
-25 55 0 6 -5 29 -11 50 -8 30 -13 36 -21 25 -8 -11 -8 -10 -4 5 4 10 1 25 -5
33 -7 7 -9 16 -6 19 3 4 -5 31 -19 61 -13 31 -24 64 -24 75 0 12 -4 16 -12 12
-7 -4 -8 -3 -4 4 10 16 -4 63 -17 55 -6 -3 -7 -1 -3 6 4 6 3 17 -2 24 -6 7
-12 27 -15 45 -3 19 -12 41 -20 50 -9 10 -19 31 -23 47 -4 17 -9 34 -13 40 -3
5 -6 17 -6 25 -2 28 -29 110 -37 110 -4 0 -5 6 -2 13 3 8 -4 33 -14 58 -10 24
-17 50 -15 57 3 6 1 12 -4 12 -17 0 -8 75 12 96 50 53 99 57 150 13z m-165
-185 c0 -8 -5 -12 -10 -9 -6 4 -8 11 -5 16 9 14 15 11 15 -7z m1415 -460 c-8
-6 -30 -10 -47 -8 -18 2 -35 -1 -40 -8 -6 -10 -8 -8 -8 4 0 18 15 23 72 23 31
0 35 -2 23 -11z m55 6 c0 -5 -2 -10 -4 -10 -3 0 -8 5 -11 10 -3 6 -1 10 4 10
6 0 11 -4 11 -10z m35 0 c-3 -5 -11 -10 -16 -10 -6 0 -7 5 -4 10 3 6 11 10 16
10 6 0 7 -4 4 -10z m90 0 c-3 -5 -12 -10 -18 -10 -7 0 -6 4 3 10 19 12 23 12
15 0z m-84 -53 c-10 -9 -11 -8 -5 6 3 10 9 15 12 12 3 -3 0 -11 -7 -18z m2196
-503 c-3 -3 -12 -4 -19 -1 -8 3 -5 6 6 6 11 1 17 -2 13 -5z m1063 -59 c0 -7
-57 -35 -71 -35 -24 0 17 24 69 39 1 1 2 -1 2 -4z m-550 -35 c-20 -13 -60 -13
-60 0 0 6 17 10 38 10 27 0 33 -3 22 -10z m-4 -85 c2 -30 -1 -55 -6 -55 -5 0
-11 -15 -13 -32 -2 -18 -5 6 -5 53 -2 78 3 107 16 94 3 -3 7 -30 8 -60z
m-3040 -43 c-4 -3 -12 0 -19 7 -9 9 -9 14 3 21 11 7 16 5 18 -6 2 -9 1 -18 -2
-22z m-43 -36 c11 -3 18 -8 15 -11 -15 -15 -48 16 -47 43 l2 27 4 -26 c3 -17
12 -29 26 -33z m3097 -11 c0 -14 -4 -25 -9 -25 -4 0 -6 11 -3 25 2 14 6 25 8
25 2 0 4 -11 4 -25z m-3757 -45 c-3 -11 -9 -20 -14 -20 -10 0 -12 24 -2 33 13
13 21 7 16 -13z m344 -66 c29 -40 0 -84 -61 -90 -42 -4 -58 14 -54 58 5 53 83
75 115 32z m96 -256 c-2 -4 10 -36 27 -70 34 -71 39 -98 15 -78 -9 7 -14 19
-11 27 3 7 2 13 -3 13 -5 0 -19 26 -31 58 -13 31 -27 62 -32 68 -4 6 -5 13 -2
17 7 7 42 -26 37 -35z m-91 4 c-7 -2 -12 -10 -12 -18 0 -12 -4 -12 -21 -3
l-21 11 23 12 c13 7 28 10 34 8 5 -3 4 -7 -3 -10z m23 -42 c3 -5 1 -10 -4 -10
-6 0 -11 5 -11 10 0 6 2 10 4 10 3 0 8 -4 11 -10z m-37 -25 c-3 -3 -9 2 -12
12 -6 14 -5 15 5 6 7 -7 10 -15 7 -18z m26 -31 c9 -24 7 -27 -9 -10 -17 17
-19 26 -6 26 5 0 12 -7 15 -16z m46 -4 c0 -5 -7 -7 -15 -4 -8 4 -15 8 -15 10
0 2 7 4 15 4 8 0 15 -4 15 -10z m40 -87 c0 -7 -9 -17 -20 -23 -16 -8 -22 -6
-34 12 -23 38 -30 69 -13 62 8 -3 18 0 22 6 8 13 45 -35 45 -57z m3508 20 c-4
-21 -45 -30 -62 -13 -14 14 8 30 42 30 17 0 23 -5 20 -17z m-23 -53 c-3 -6 0
-17 9 -25 16 -16 31 -95 23 -117 -3 -7 -6 3 -7 22 -1 19 -6 44 -11 55 -6 15
-8 6 -6 -32 3 -76 -10 -50 -19 35 -5 53 -3 72 5 72 7 0 9 -5 6 -10z m-3438
-234 c-3 -8 -1 -16 6 -19 15 -5 -18 -50 -88 -116 -50 -48 -56 -58 -51 -84 3
-16 6 -50 6 -76 1 -41 6 -52 50 -100 44 -48 50 -59 48 -95 -1 -40 -1 -41 -5
-6 -3 26 -18 50 -57 90 l-54 55 -5 122 -5 123 70 60 c68 59 95 74 85 46z
m-198 -608 c1 -93 2 -98 28 -123 27 -24 27 -26 11 -52 -9 -16 -25 -29 -35 -31
-18 -3 -20 10 -32 160 -6 90 -14 175 -17 190 -4 20 -1 27 13 30 23 4 31 -40
32 -174z m3927 135 c-45 -24 -198 -84 -203 -79 -2 2 9 9 24 15 15 5 64 26 108
45 83 36 121 47 71 19z m-31 -310 c-4 -26 -9 -43 -12 -37 -4 12 -51 0 -118
-30 -16 -7 -61 -21 -98 -31 -37 -10 -66 -23 -64 -29 2 -6 23 -16 48 -22 24 -7
38 -12 32 -13 -7 -1 -13 -8 -13 -16 0 -8 -6 -15 -14 -15 -9 0 -12 7 -9 19 4
16 1 19 -19 14 -12 -4 -29 -13 -36 -20 -21 -20 -32 -6 -32 40 l0 43 168 76
c92 41 169 74 171 72 2 -2 0 -25 -4 -51z m-3665 -88 c7 -9 11 -18 8 -20 -9
-10 -38 7 -38 21 0 18 14 18 30 -1z m3884 -153 c-12 -9 -30 -22 -40 -29 -18
-12 -18 -12 1 -6 11 3 33 15 48 26 16 10 31 16 34 13 10 -10 -5 -20 -104 -71
-81 -41 -97 -46 -133 -40 -22 4 -38 11 -35 15 3 5 1 11 -5 15 -17 10 0 26 21
20 27 -9 48 6 23 16 -17 7 -17 8 -1 8 9 1 17 5 17 9 0 16 83 36 170 40 l25 1
-21 -17z m596 -42 c0 -6 6 -10 13 -9 30 4 35 -1 28 -28 -5 -19 -15 -29 -30
-31 -42 -6 -50 3 -37 42 10 34 26 49 26 26z m-1679 -82 c-3 -20 -6 -26 -9 -15
-2 9 -13 17 -25 17 -21 1 -21 1 3 15 35 20 37 19 31 -17z m-1 -223 c6 -8 10
-22 8 -32 -5 -25 -51 -25 -56 0 -8 42 23 63 48 32z m37 -27 c-3 -8 -6 -5 -6 6
-1 11 2 17 5 13 3 -3 4 -12 1 -19z m121 -3 c48 -9 52 -31 6 -28 -87 4 -104 8
-104 25 0 19 5 19 98 3z m-322 -26 c53 -14 109 -72 125 -132 12 -46 3 -128
-17 -154 -13 -17 -15 -17 -28 0 -11 14 -11 24 2 63 15 47 15 49 -13 118 -6 14
-5 17 3 12 7 -4 12 -2 12 4 0 7 -6 10 -12 7 -7 -2 -26 7 -41 19 -18 15 -43 24
-65 25 -107 4 -112 21 -14 48 2 1 23 -4 48 -10z m465 1 c11 0 19 -6 19 -14 0
-8 3 -16 8 -19 4 -2 1 -2 -5 -1 -7 2 -16 -3 -20 -10 -11 -17 -93 -9 -93 10 0
8 5 14 11 14 6 0 8 7 5 16 -5 14 -1 16 25 10 17 -3 40 -6 50 -6z m86 -16 c13
-4 20 -11 16 -18 -3 -6 0 -6 8 2 19 18 29 15 29 -10 0 -28 -15 -54 -24 -40 -3
5 -16 8 -28 5 -31 -5 -57 12 -41 28 6 6 9 18 6 25 -6 15 1 17 34 8z m-679 -58
c48 -47 37 -163 -18 -191 -65 -34 -133 -3 -146 65 -4 16 -11 30 -16 30 -5 0
-2 7 6 16 9 8 16 21 16 28 0 19 39 66 64 76 29 13 67 3 94 -24z m446 8 c27 -3
57 -9 65 -14 9 -4 38 -11 66 -16 35 -5 44 -9 31 -14 -10 -3 -70 3 -133 14
-112 19 -113 19 -128 0 -12 -16 -14 -17 -15 -2 0 36 12 50 39 44 14 -3 48 -9
75 -12z m1036 -3 c0 -5 -79 -53 -176 -106 -96 -53 -174 -99 -172 -101 4 -4 75
32 231 119 58 31 112 57 121 57 9 0 16 7 16 15 0 8 5 15 10 15 6 0 10 -4 10
-9 0 -5 3 -17 7 -27 4 -11 2 -15 -8 -12 -8 3 -20 -8 -29 -26 -16 -33 -80 -75
-240 -159 -52 -27 -102 -55 -110 -62 -22 -19 -67 -29 -74 -16 -10 15 -22 14
-41 -5 -25 -26 -28 -9 -7 40 22 49 39 62 187 141 50 26 124 67 165 90 63 35
89 48 108 54 1 1 2 -3 2 -8z m432 -21 c-9 -16 -18 -25 -20 -20 -4 12 17 50 28
50 5 0 1 -13 -8 -30z m-1427 -60 c8 -13 -25 -13 -45 0 -12 8 -9 10 12 10 15 0
30 -4 33 -10z m1045 -10 c0 -5 -5 -10 -11 -10 -5 0 -7 5 -4 10 3 6 8 10 11 10
2 0 4 -4 4 -10z m-900 -22 c0 -6 -7 -7 -16 -4 -9 3 -20 6 -25 6 -5 0 -9 4 -9
9 0 4 11 6 25 3 14 -2 25 -9 25 -14z m1237 -10 c-3 -8 -6 -5 -6 6 -1 11 2 17
5 13 3 -3 4 -12 1 -19z m-1360 -20 c-3 -7 -5 -2 -5 12 0 14 2 19 5 13 2 -7 2
-19 0 -25z m42 -22 c-9 -8 -10 -7 -5 7 3 10 7 24 7 30 1 7 3 4 6 -7 3 -10 -1
-23 -8 -30z m1221 24 c-24 -15 -37 -11 -16 5 11 8 22 12 25 9 3 -3 -1 -9 -9
-14z m-977 -5 c11 -10 13 -23 8 -42 -10 -37 -29 -40 -33 -6 -4 35 -31 33 -66
-4 -17 -18 -26 -22 -35 -14 -10 8 -16 0 -25 -34 -13 -48 -32 -60 -32 -21 0 34
-11 38 -65 24 -33 -9 -50 -20 -56 -35 -9 -24 -33 -28 -94 -14 -28 6 -29 8 -10
18 11 6 49 18 85 27 37 9 72 25 82 36 12 15 29 20 62 20 31 0 52 6 64 18 10
10 24 16 30 14 7 -2 20 -1 30 3 15 6 15 8 -3 15 -17 7 -15 9 12 9 17 1 38 -6
46 -14z m687 0 c0 -6 -56 -35 -67 -35 -4 1 8 9 27 20 39 22 40 22 40 15z m38
-30 c9 -19 9 -25 -1 -25 -6 -1 -21 -15 -32 -33 -18 -28 -76 -66 -275 -179 -19
-11 -49 -28 -66 -39 -17 -10 -34 -16 -37 -12 -4 3 -9 -2 -13 -11 -8 -21 -24
-20 -39 1 -12 17 -14 17 -35 -2 l-21 -19 7 29 c10 45 21 62 57 88 38 29 187
111 187 104 0 -3 -34 -25 -77 -48 -76 -42 -113 -71 -113 -88 0 -5 99 46 220
113 137 76 218 126 215 134 -8 23 12 12 23 -13z m-1054 6 c11 -4 15 -10 10
-13 -5 -3 -22 0 -39 7 -23 10 -25 13 -10 13 11 1 29 -3 39 -7z m1266 5 c0 -2
-7 -7 -16 -10 -8 -3 -12 -2 -9 4 6 10 25 14 25 6z m146 -23 c-4 -9 -2 -19 4
-23 15 -9 1 -40 -17 -40 -8 0 -19 -13 -25 -28 -9 -23 -15 -27 -42 -24 -17 2
-53 -6 -79 -17 -27 -12 -57 -21 -67 -21 -9 0 -23 -6 -30 -14 -16 -20 -40 -9
-40 18 1 19 2 19 11 4 15 -26 29 -22 29 10 0 20 3 23 10 12 7 -12 12 -12 34 0
14 7 29 23 32 34 8 25 33 56 47 56 6 0 3 -8 -6 -18 -34 -37 -14 -44 25 -9 14
12 28 29 31 37 4 11 6 9 7 -5 l1 -20 17 20 c10 11 24 21 32 23 8 2 17 8 18 13
2 5 6 9 9 9 3 0 2 -8 -1 -17z m-1480 -40 c-10 -26 -18 -8 -9 23 5 21 8 24 11
11 2 -10 1 -25 -2 -34z m-89 5 c-3 -8 -6 -5 -6 6 -1 11 2 17 5 13 3 -3 4 -12
1 -19z m1209 -26 c-18 -16 -18 -16 -6 6 6 13 14 21 18 18 3 -4 -2 -14 -12 -24z
m-826 6 c0 -25 -12 -58 -21 -58 -10 0 -12 53 -2 63 10 11 23 8 23 -5z m630 7
c0 -2 -10 -9 -22 -15 -22 -11 -22 -10 -4 4 21 17 26 19 26 11z m342 -47 c-6
-6 -7 0 -4 19 5 21 7 23 10 9 2 -10 0 -22 -6 -28z m-1472 21 c0 -5 5 -7 10 -4
6 3 10 0 11 -7 0 -10 2 -10 6 0 7 17 23 15 23 -4 0 -12 -6 -15 -22 -10 -13 3
-31 6 -40 6 -10 0 -18 7 -18 15 0 8 7 15 15 15 8 0 15 -5 15 -11z m590 -11 c0
-7 -5 -20 -10 -28 -8 -12 -10 -9 -10 13 0 15 5 27 10 27 6 0 10 -6 10 -12z
m857 -10 c-3 -8 -6 -5 -6 6 -1 11 2 17 5 13 3 -3 4 -12 1 -19z m-1053 -3 c26
-20 15 -29 -26 -19 -18 4 -37 7 -42 5 -5 -1 -4 5 4 13 16 20 39 20 64 1z
m1013 -17 c-3 -8 -6 -5 -6 6 -1 11 2 17 5 13 3 -3 4 -12 1 -19z m-128 -2 c-10
-9 -89 -46 -89 -41 0 6 72 44 84 45 5 0 7 -2 5 -4z m63 -30 c10 -5 10 -7 1
-12 -7 -3 -13 -17 -13 -30 0 -13 -5 -24 -10 -24 -6 0 -8 12 -4 28 l6 27 -29
-30 c-30 -31 -112 -88 -173 -121 -19 -11 -39 -24 -45 -30 -17 -18 -63 -44 -78
-44 -8 0 -26 -12 -41 -26 -14 -15 -26 -22 -26 -15 0 6 -4 11 -10 11 -5 0 -10
-6 -10 -14 0 -7 -6 -19 -13 -25 -11 -8 -18 -6 -32 9 -17 19 -19 19 -37 4 -17
-16 -18 -16 -18 3 0 34 43 85 98 115 65 37 68 31 4 -9 -27 -17 -51 -40 -55
-52 -6 -24 5 -28 23 -6 7 8 38 29 69 47 31 17 120 69 199 115 78 46 147 83
152 83 5 0 6 8 3 18 -6 16 -6 16 10 0 9 -9 22 -19 29 -22z m-793 8 c2 -2 2 -6
-1 -9 -8 -9 -58 6 -58 16 0 8 48 2 59 -7z m611 -39 c0 -2 -10 -9 -22 -15 -22
-11 -22 -10 -4 4 21 17 26 19 26 11z m-150 -90 c0 -2 -10 -9 -22 -15 -22 -11
-22 -10 -4 4 21 17 26 19 26 11z m310 -57 c0 -21 -5 -38 -11 -38 -6 0 -8 8 -4
20 3 10 1 29 -5 40 -6 11 -8 25 -4 31 11 18 24 -11 24 -53z m-70 47 c0 -2 -10
-9 -22 -15 -22 -11 -22 -10 -4 4 21 17 26 19 26 11z m-60 -36 c-25 -17 -96
-52 -87 -43 12 12 81 52 92 53 6 0 3 -4 -5 -10z m100 1 c0 -5 -21 -25 -47 -44
-41 -30 -245 -158 -305 -192 -32 -19 -44 -34 -27 -34 7 0 3 -6 -11 -14 -17 -9
-29 -10 -38 -2 -10 7 -20 6 -33 -2 -17 -11 -19 -9 -19 15 0 29 60 93 118 126
48 27 39 13 -12 -19 -25 -16 -47 -37 -50 -48 -7 -27 -3 -29 20 -10 34 28 379
233 392 234 6 0 12 -4 12 -10z m-1440 -44 c0 -2 -8 -10 -17 -17 -16 -13 -17
-12 -4 4 13 16 21 21 21 13z m1235 -16 c-3 -5 -12 -10 -18 -10 -7 0 -6 4 3 10
19 12 23 12 15 0z m225 -102 c0 -20 -4 -39 -8 -42 -5 -3 -7 8 -4 23 2 16 -1
38 -7 49 -6 10 -7 22 -4 26 11 11 23 -17 23 -56z m-4171 2 c82 -41 109 -127
55 -169 -15 -12 -33 -21 -41 -21 -12 0 -12 4 0 28 29 54 34 86 19 110 -14 22
-48 30 -54 12 -1 -5 -13 -7 -26 -4 -17 5 -21 11 -16 28 5 16 -3 12 -35 -18
-42 -41 -58 -43 -46 -6 8 24 60 60 88 60 10 0 35 -9 56 -20z m4021 16 c0 -2
-7 -7 -16 -10 -8 -3 -12 -2 -9 4 6 10 25 14 25 6z m130 -5 c0 -5 -15 -16 -32
-25 -18 -9 -91 -57 -163 -106 -71 -50 -141 -98 -155 -107 -14 -9 -35 -25 -46
-36 -12 -10 -30 -17 -40 -16 -11 2 -25 0 -32 -5 -46 -29 -8 61 40 95 29 20 31
20 16 3 -26 -30 -23 -49 5 -29 54 39 383 235 395 235 6 0 12 -4 12 -9z m-4360
-21 c22 -22 24 -29 11 -49 -12 -19 -57 -6 -72 21 -10 18 -8 24 7 35 24 17 30
17 54 -7z m2537 -12 c-3 -8 -6 -5 -6 6 -1 11 2 17 5 13 3 -3 4 -12 1 -19z
m1693 17 c0 -2 -10 -9 -22 -15 -22 -11 -22 -10 -4 4 21 17 26 19 26 11z
m-4000 -71 c0 -8 -4 -12 -10 -9 -5 3 -10 10 -10 16 0 5 5 9 10 9 6 0 10 -7 10
-16z m4150 -81 c0 -23 -6 -36 -22 -44 -22 -12 -22 -11 -5 8 19 21 23 58 7 68
-5 3 -10 14 -10 23 1 34 30 -20 30 -55z m-3992 31 c26 -18 28 -36 7 -54 -31
-26 -89 26 -64 56 15 18 29 18 57 -2z m3968 -27 c2 -18 -55 -68 -116 -101
l-35 -19 35 31 c19 17 30 31 24 32 -39 1 -254 -165 -254 -196 0 -20 -19 -27
-36 -13 -11 9 -20 9 -37 1 -41 -20 -67 -24 -67 -10 0 28 39 74 81 97 l44 24
-20 -23 c-23 -27 -26 -28 90 40 94 56 127 76 210 128 54 35 77 37 81 9z
m-4441 -32 c39 -17 21 -18 -25 0 -19 7 -28 14 -20 14 8 0 29 -6 45 -14z m75
-41 c0 -2 -9 0 -20 6 -11 6 -20 13 -20 16 0 2 9 0 20 -6 11 -6 20 -13 20 -16z
m159 -157 c12 -23 16 -34 9 -23 -7 10 -33 44 -57 75 -41 51 -41 53 -9 23 19
-18 45 -52 57 -75z m2450 -128 c-6 -11 -18 -19 -27 -17 -22 5 -19 56 6 107
l17 36 7 -53 c5 -34 4 -61 -3 -73z m293 84 c34 -33 38 -43 38 -85 0 -38 -4
-50 -22 -62 -50 -32 -71 -30 -111 12 -35 36 -38 43 -35 88 3 45 6 50 38 66 48
23 49 23 92 -19z m1293 17 c-10 -11 -23 -20 -29 -20 -6 1 0 10 13 20 30 26 39
26 16 0z m-180 -119 c-6 -4 -79 -57 -163 -116 -140 -98 -187 -123 -151 -78 9
11 10 14 2 9 -10 -5 -13 11 -13 70 0 73 1 76 22 71 12 -3 55 0 96 8 41 8 79
12 84 9 5 -3 20 1 33 10 13 9 27 16 31 16 4 0 -25 -23 -64 -50 -40 -28 -72
-53 -72 -56 0 -3 3 -3 8 -1 4 3 48 30 97 61 87 54 110 66 90 47z m-2199 -38
c-11 -11 -17 4 -9 23 7 18 8 18 11 1 2 -10 1 -21 -2 -24z m1683 -1 c26 -22 34
-37 38 -74 5 -40 2 -50 -20 -72 -36 -36 -75 -34 -114 7 -54 55 -56 124 -5 151
40 22 64 19 101 -12z m-1351 -37 c-1 -30 -6 -55 -11 -55 -6 0 -7 16 -3 38 3
20 6 45 6 55 0 9 2 17 5 17 2 0 4 -25 3 -55z m-334 -27 c14 -23 -11 -53 -30
-37 -23 19 -15 64 10 56 5 -2 14 -10 20 -19z m323 -60 c-3 -8 -6 -5 -6 6 -1
11 2 17 5 13 3 -3 4 -12 1 -19z"/>
<path d="M17670 2355 c-25 -13 -40 -24 -35 -24 6 0 30 11 55 24 25 13 41 24
35 24 -5 0 -30 -11 -55 -24z"/>
<path d="M16640 1800 c0 -5 5 -10 11 -10 5 0 7 5 4 10 -3 6 -8 10 -11 10 -2 0
-4 -4 -4 -10z"/>
<path d="M16955 2000 c-3 -5 -1 -10 4 -10 6 0 11 5 11 10 0 6 -2 10 -4 10 -3
0 -8 -4 -11 -10z"/>
<path d="M16997 2003 c-4 -3 -7 -13 -7 -22 1 -13 3 -13 11 2 11 19 8 33 -4 20z"/>
<path d="M17508 1723 c-25 -16 -43 -41 -35 -49 2 -2 19 12 37 31 38 39 37 42
-2 18z"/>
<path d="M13495 1271 c-3 -6 3 -15 14 -20 29 -16 33 -14 19 9 -14 22 -24 25
-33 11z"/>
<path d="M13890 1146 c0 -8 7 -17 16 -20 21 -8 26 -3 18 18 -8 20 -34 21 -34
2z"/>
<path d="M17820 1100 c-8 -5 -10 -10 -5 -10 6 0 17 5 25 10 8 5 11 10 5 10 -5
0 -17 -5 -25 -10z"/>
<path d="M16342 847 c-20 -24 -24 -63 -8 -76 9 -8 16 -19 16 -27 0 -7 9 -18
21 -24 16 -9 25 -8 40 6 17 16 18 19 4 40 -8 13 -15 29 -15 36 0 8 5 6 11 -4
13 -23 29 -23 29 0 0 42 -73 79 -98 49z m28 -51 c0 -3 -4 -8 -10 -11 -5 -3
-10 -1 -10 4 0 6 5 11 10 11 6 0 10 -2 10 -4z"/>
<path d="M16942 707 c-23 -27 -24 -63 -2 -100 23 -39 49 -47 70 -22 7 8 9 15
4 15 -5 0 -10 23 -12 52 -1 28 1 49 4 45 4 -3 7 -16 8 -28 1 -26 26 -39 26
-14 0 22 -45 65 -68 65 -11 0 -24 -6 -30 -13z m18 -46 c0 -5 3 -18 6 -28 6
-16 5 -16 -9 2 -19 23 -21 35 -7 35 6 0 10 -4 10 -9z"/>
<path d="M15316 651 c-4 -5 -2 -12 3 -15 5 -4 12 -2 15 3 4 5 2 12 -3 15 -5 4
-12 2 -15 -3z"/>
<path d="M12950 5265 c0 -5 5 -17 10 -25 5 -8 10 -10 10 -5 0 6 -5 17 -10 25
-5 8 -10 11 -10 5z"/>
<path d="M15668 5123 c7 -3 16 -2 19 1 4 3 -2 6 -13 5 -11 0 -14 -3 -6 -6z"/>
<path d="M14060 5091 c0 -4 14 -7 32 -5 45 6 48 14 5 14 -20 0 -37 -4 -37 -9z"/>
<path d="M15287 5093 c-4 -3 -7 -11 -7 -17 0 -6 5 -5 12 2 6 6 9 14 7 17 -3 3
-9 2 -12 -2z"/>
<path d="M14907 4989 c4 -26 2 -44 -6 -48 -9 -6 -9 -10 1 -19 11 -8 14 1 16
49 2 33 -1 59 -6 59 -6 0 -8 -17 -5 -41z"/>
<path d="M15236 5013 c-3 -3 -6 -13 -6 -21 0 -12 2 -12 16 -1 15 12 16 11 10
-11 -6 -20 -5 -22 4 -8 8 14 16 15 36 8 32 -13 54 -13 54 0 0 5 -17 12 -37 16
-21 4 -45 10 -54 15 -9 5 -19 5 -23 2z"/>
<path d="M15372 5008 c-18 -18 -15 -28 8 -28 13 0 20 7 20 20 0 23 -10 26 -28
8z"/>
<path d="M15690 4986 c0 -14 5 -26 10 -26 6 0 10 9 10 19 0 11 -4 23 -10 26
-6 4 -10 -5 -10 -19z"/>
<path d="M14833 4933 c9 -2 23 -2 30 0 6 3 -1 5 -18 5 -16 0 -22 -2 -12 -5z"/>
<path d="M15720 4891 c0 -23 2 -41 4 -41 8 0 12 71 4 76 -4 3 -8 -13 -8 -35z"/>
<path d="M15220 4911 c0 -13 18 -17 75 -20 28 -1 54 -6 60 -12 12 -12 45 -12
45 0 0 5 -15 14 -32 20 -44 15 -148 23 -148 12z"/>
<path d="M15670 4865 c0 -8 7 -15 15 -15 8 0 15 4 15 9 0 5 -7 11 -15 15 -9 3
-15 0 -15 -9z"/>
<path d="M15814 4854 c-8 -32 -2 -37 35 -29 39 8 40 27 1 42 -28 10 -31 9 -36
-13z"/>
<path d="M15760 4776 c0 -27 -16 -43 -23 -24 -2 7 -8 10 -13 5 -4 -4 2 -17 14
-29 l21 -22 16 37 c19 46 19 57 0 57 -9 0 -15 -9 -15 -24z"/>
<path d="M9304 4235 c20 -34 53 -65 68 -65 16 0 5 14 -42 56 -42 37 -44 37
-26 9z"/>
<path d="M11217 3849 c4 -13 9 -17 15 -11 11 11 3 32 -12 32 -4 0 -6 -9 -3
-21z"/>
<path d="M11335 3590 c-3 -5 -1 -10 4 -10 6 0 11 5 11 10 0 6 -2 10 -4 10 -3
0 -8 -4 -11 -10z"/>
<path d="M13271 3429 c39 -42 42 -93 8 -141 -13 -18 -18 -35 -13 -52 l6 -26
-85 0 c-47 0 -97 4 -110 9 -22 8 -24 7 -20 -10 7 -27 24 -29 227 -32 152 -2
179 0 182 13 2 8 10 33 18 55 20 52 20 118 1 155 -24 45 -62 60 -159 60 l-84
0 29 -31z"/>
<path d="M13490 3190 c0 -5 9 -10 19 -10 11 0 23 5 26 10 4 6 -5 10 -19 10
-14 0 -26 -4 -26 -10z"/>
<path d="M10680 2790 c0 -4 33 -18 73 -30 39 -12 83 -28 97 -36 20 -12 18 -9
-7 15 -38 36 -163 75 -163 51z"/>
<path d="M9632 2747 c-12 -13 -22 -29 -22 -35 0 -16 37 -15 47 2 4 7 14 15 21
17 10 3 9 9 -6 22 -18 16 -20 16 -40 -6z"/>
<path d="M9948 2621 c9 -16 22 -27 29 -24 19 7 16 20 -9 37 -33 23 -39 20 -20
-13z"/>
<path d="M10952 2619 c2 -5 18 -19 36 -31 30 -19 32 -19 26 -2 -4 11 -11 25
-17 32 -11 15 -50 16 -45 1z"/>
<path d="M11062 2534 c15 -15 30 -26 33 -23 2 3 -10 16 -28 29 l-32 23 27 -29z"/>
<path d="M10262 2538 c-14 -14 -16 -28 -2 -28 5 0 14 9 20 20 12 22 1 27 -18
8z"/>
<path d="M13273 2536 c0 -8 12 -18 26 -22 l26 -7 -25 -7 c-14 -5 -51 -8 -82
-9 l-57 -1 5 -32 c12 -65 31 -80 129 -103 l30 -8 -30 -12 -30 -13 25 -6 c14
-3 121 -7 238 -8 192 -3 212 -1 212 14 0 9 -6 18 -12 21 -9 3 -7 9 6 19 38 30
10 35 -157 30 l-163 -4 -31 35 c-17 20 -37 52 -44 71 -8 23 -19 36 -31 36 -10
0 -18 5 -18 10 0 6 -4 10 -8 10 -5 0 -9 -6 -9 -14z"/>
<path d="M10800 2506 c-83 -41 -139 -76 -122 -76 7 0 20 4 30 10 9 5 47 22 83
39 36 16 69 36 72 45 4 9 5 16 4 15 -1 0 -31 -15 -67 -33z"/>
<path d="M13168 2523 c7 -3 16 -2 19 1 4 3 -2 6 -13 5 -11 0 -14 -3 -6 -6z"/>
<path d="M12983 2425 c-116 -95 -135 -130 -136 -253 -1 -48 4 -122 10 -166 6
-43 9 -85 6 -92 -2 -7 -35 -23 -71 -34 -89 -29 -132 -51 -132 -70 0 -8 6 -37
13 -64 10 -40 18 -51 38 -57 62 -16 224 -19 382 -6 l168 14 35 34 c44 43 318
356 322 369 2 6 -58 10 -158 10 l-161 0 -19 48 c-35 83 -46 96 -104 125 -65
32 -84 65 -95 160 l-6 57 -92 -75z m145 -208 c-52 -52 -129 -110 -135 -103 -4
3 13 23 37 44 99 84 162 122 98 59z m12 -252 c0 -8 0 -18 1 -22 0 -4 -4 -9
-10 -11 -6 -2 -8 3 -5 12 3 9 1 16 -5 16 -6 0 -11 -8 -12 -17 0 -11 -2 -13 -6
-5 -7 19 4 42 22 42 8 0 15 -7 15 -15z m-50 -5 c0 -3 -5 -12 -10 -20 -7 -11
-14 -12 -27 -4 -28 18 -26 31 7 30 16 -1 30 -3 30 -6z m158 -3 c6 -5 12 -3 12
2 0 6 9 11 20 11 24 0 25 -10 4 -36 -11 -14 -17 -16 -21 -6 -3 9 -9 10 -18 2
-15 -12 -45 -3 -45 14 0 6 -7 3 -15 -7 -13 -18 -14 -18 -24 2 -6 11 -11 21
-11 24 0 7 85 1 98 -6z m152 -2 c9 -11 16 -12 25 -5 13 11 25 4 25 -16 0 -7
-17 -12 -50 -12 -41 0 -50 4 -50 17 0 33 28 42 50 16z m-60 -27 c0 -5 -9 -8
-20 -8 -23 0 -26 10 -8 28 9 9 14 9 20 -1 4 -6 8 -15 8 -19z m-191 -27 c8 -6
24 -6 38 0 13 5 23 5 23 0 0 -22 -49 -26 -76 -6 -21 16 -8 21 15 6z"/>
<path d="M10359 2463 c-7 -16 -15 -31 -16 -34 -2 -3 19 -5 46 -5 l50 1 -31 33
c-18 17 -33 32 -33 32 -1 0 -8 -12 -16 -27z"/>
<path d="M11180 2440 c33 -26 137 -76 175 -84 21 -5 45 -24 75 -63 34 -41 46
-51 48 -38 2 10 0 20 -5 24 -4 3 -16 16 -27 28 -14 17 -16 26 -7 36 9 12 27 8
105 -19 l94 -33 23 25 22 24 -30 0 c-33 0 -50 29 -30 49 8 8 3 11 -16 11 -15
0 -43 7 -62 14 -35 15 -45 10 -23 -12 19 -19 0 -27 -32 -15 -25 9 -30 9 -30
-4 0 -11 -7 -13 -29 -8 -17 3 -32 2 -36 -4 -11 -19 -23 -12 -34 22 -11 32 -14
34 -60 36 -27 1 -65 8 -85 16 -49 21 -66 18 -36 -5z"/>
<path d="M15890 2429 c0 -11 5 -17 10 -14 6 3 10 13 10 21 0 8 -4 14 -10 14
-5 0 -10 -9 -10 -21z"/>
<path d="M14411 2424 c0 -11 3 -14 6 -6 3 7 2 16 -1 19 -3 4 -6 -2 -5 -13z"/>
<path d="M10058 2423 c44 -6 36 -29 -9 -26 -26 1 -30 -1 -17 -8 10 -5 21 -10
25 -10 5 0 13 -5 20 -11 7 -5 17 -7 23 -3 6 3 34 0 63 -8 81 -22 101 -20 130
13 l27 29 -29 -5 c-16 -3 -66 3 -112 15 -45 12 -99 20 -118 19 l-36 -1 33 -4z"/>
<path d="M10625 2410 c-3 -6 1 -7 9 -4 18 7 21 14 7 14 -6 0 -13 -4 -16 -10z"/>
<path d="M14376 2401 c-8 -12 4 -41 16 -41 6 0 6 6 -1 14 -9 11 -9 15 1 18 9
3 9 6 1 11 -7 4 -14 3 -17 -2z"/>
<path d="M10556 2381 c-4 -5 3 -7 14 -4 23 6 26 13 6 13 -8 0 -17 -4 -20 -9z"/>
<path d="M14465 2370 c-3 -6 2 -13 12 -16 40 -12 80 -39 127 -83 45 -43 47
-44 32 -14 -16 33 -39 51 -118 96 -28 17 -49 23 -53 17z"/>
<path d="M11695 2350 c-3 -5 -2 -10 4 -10 5 0 13 5 16 10 3 6 2 10 -4 10 -5 0
-13 -4 -16 -10z"/>
<path d="M14423 2343 c9 -9 20 -13 24 -9 4 4 1 11 -7 16 -25 16 -35 11 -17 -7z"/>
<path d="M13357 2250 c12 -5 104 -10 204 -12 139 -2 183 0 186 10 4 9 -41 12
-204 11 -130 0 -200 -4 -186 -9z"/>
<path d="M13838 2233 c7 -3 16 -2 19 1 4 3 -2 6 -13 5 -11 0 -14 -3 -6 -6z"/>
<path d="M16502 2211 l-32 -19 34 -4 c29 -3 34 -1 34 19 0 13 -1 23 -2 22 0 0
-16 -8 -34 -18z"/>
<path d="M15860 2190 c-7 -16 -16 -30 -20 -30 -4 0 -12 -12 -18 -26 -7 -14 -8
-23 -3 -20 15 10 72 106 62 106 -5 0 -14 -13 -21 -30z"/>
<path d="M13958 2203 c7 -3 16 -2 19 1 4 3 -2 6 -13 5 -11 0 -14 -3 -6 -6z"/>
<path d="M13526 2135 c-19 -14 -19 -15 6 -15 14 0 47 3 74 7 42 6 45 8 24 14
-42 12 -84 9 -104 -6z"/>
<path d="M14300 2109 c0 -5 5 -7 10 -4 6 3 10 8 10 11 0 2 -4 4 -10 4 -5 0
-10 -5 -10 -11z"/>
<path d="M16075 1979 c-4 -6 -5 -12 -2 -15 2 -3 7 2 10 11 7 17 1 20 -8 4z"/>
<path d="M14720 1963 c0 -25 -55 -104 -81 -119 l-22 -12 22 -7 c12 -4 24 -5
25 -3 37 46 84 128 76 133 -6 4 -8 11 -5 16 4 5 1 9 -4 9 -6 0 -11 -8 -11 -17z"/>
<path d="M15419 1948 c-17 -24 -18 -29 -6 -19 18 14 42 51 33 51 -3 0 -15 -15
-27 -32z"/>
<path d="M16120 1966 c0 -2 7 -6 15 -10 8 -3 15 -1 15 4 0 6 -7 10 -15 10 -8
0 -15 -2 -15 -4z"/>
<path d="M15183 1943 c-7 -3 -13 -12 -13 -21 0 -15 2 -15 17 1 18 18 16 27 -4
20z"/>
<path d="M15230 1946 c0 -2 8 -10 18 -17 15 -13 16 -12 3 4 -13 16 -21 21 -21
13z"/>
<path d="M14382 1884 c10 -10 20 -15 24 -12 3 4 -5 12 -18 18 -22 12 -22 12
-6 -6z"/>
<path d="M15380 1866 c0 -9 5 -16 10 -16 6 0 10 4 10 9 0 6 -4 13 -10 16 -5 3
-10 -1 -10 -9z"/>
<path d="M12027 1863 c-4 -3 -7 -25 -6 -47 l1 -41 9 33 c6 18 16 35 24 39 8 3
15 9 15 14 0 10 -33 12 -43 2z"/>
<path d="M15326 1845 c-3 -8 -1 -15 4 -15 13 0 22 18 11 24 -5 3 -11 -1 -15
-9z"/>
<path d="M12070 1840 c0 -5 5 -10 10 -10 6 0 10 5 10 10 0 6 -4 10 -10 10 -5
0 -10 -4 -10 -10z"/>
<path d="M12046 1824 c-4 -9 -4 -19 -1 -22 2 -3 7 3 11 12 4 9 4 19 1 22 -2 3
-7 -3 -11 -12z"/>
<path d="M12170 1820 c0 -5 5 -10 10 -10 6 0 10 5 10 10 0 6 -4 10 -10 10 -5
0 -10 -4 -10 -10z"/>
<path d="M14491 1737 c-16 -35 -40 -94 -52 -130 -12 -37 -27 -67 -33 -67 -7 0
-26 -20 -43 -44 -31 -44 -30 -66 5 -66 18 0 79 66 139 148 24 34 49 60 54 57
5 -4 7 0 4 7 -5 14 38 68 53 68 9 0 23 30 26 54 1 8 -81 34 -110 36 -7 0 -26
-29 -43 -63z"/>
<path d="M13650 1745 c7 -9 15 -13 17 -11 7 7 -7 26 -19 26 -6 0 -6 -6 2 -15z"/>
<path d="M8020 1746 c0 -2 7 -9 15 -16 13 -11 14 -10 9 4 -5 14 -24 23 -24 12z"/>
<path d="M13580 1730 c0 -5 9 -10 20 -10 11 0 20 5 20 10 0 6 -9 10 -20 10
-11 0 -20 -4 -20 -10z"/>
<path d="M12068 1683 c7 -3 16 -2 19 1 4 3 -2 6 -13 5 -11 0 -14 -3 -6 -6z"/>
<path d="M14650 1680 c-13 -9 -13 -11 0 -20 20 -14 45 -8 45 10 0 18 -25 24
-45 10z"/>
<path d="M8040 1661 c6 -12 15 -21 20 -21 18 0 11 19 -11 30 -19 11 -20 10 -9
-9z"/>
<path d="M12216 1671 c-4 -5 -3 -16 0 -25 3 -9 1 -16 -5 -16 -6 0 -11 -5 -11
-11 0 -5 4 -8 9 -4 15 9 24 -15 11 -30 -6 -8 -9 -23 -6 -33 4 -11 2 -31 -3
-46 -14 -36 13 -36 36 2 9 15 19 29 21 32 1 2 8 -2 13 -10 9 -12 9 -11 4 5 -3
11 -15 48 -27 83 -19 59 -30 73 -42 53z"/>
<path d="M14920 1665 c0 -18 12 -19 28 -3 9 9 12 9 12 0 0 -7 7 -12 15 -12 8
0 15 7 15 15 0 10 -11 15 -35 15 -24 0 -35 -5 -35 -15z"/>
<path d="M8000 1627 c0 -9 5 -19 11 -22 5 -4 14 -18 20 -32 5 -13 13 -22 18
-19 11 7 -12 58 -34 76 -12 10 -15 9 -15 -3z"/>
<path d="M8070 1621 c0 -6 4 -13 10 -16 6 -3 7 1 4 9 -7 18 -14 21 -14 7z"/>
<path d="M11710 1585 c0 -8 4 -15 10 -15 5 0 7 7 4 15 -4 8 -8 15 -10 15 -2 0
-4 -7 -4 -15z"/>
<path d="M12106 1542 c-4 -13 -5 -26 -2 -29 10 -11 18 4 14 29 l-4 23 -8 -23z"/>
<path d="M7990 1536 c0 -2 7 -6 15 -10 8 -3 15 -1 15 4 0 6 -7 10 -15 10 -8 0
-15 -2 -15 -4z"/>
<path d="M14840 1530 c0 -5 9 -10 21 -10 11 0 17 5 14 10 -3 6 -13 10 -21 10
-8 0 -14 -4 -14 -10z"/>
<path d="M12157 1487 c-3 -7 -2 -19 3 -26 5 -10 8 -9 13 2 3 7 2 19 -3 26 -5
10 -8 9 -13 -2z"/>
<path d="M8356 1455 c5 -31 4 -35 -15 -35 -12 0 -21 6 -21 15 0 8 -4 15 -10
15 -6 0 -5 -10 2 -25 14 -30 4 -43 -21 -28 -16 10 -17 8 -13 -13 3 -19 0 -24
-16 -24 -14 0 -22 9 -27 33 -5 22 -9 26 -12 15 -2 -10 -10 -18 -16 -18 -8 0
-7 -4 1 -12 12 -12 17 -48 6 -48 -3 0 -19 13 -36 29 -17 16 -37 27 -45 24 -19
-7 -2 -31 77 -110 41 -42 56 -63 45 -63 -9 0 -28 9 -42 20 -29 22 -43 25 -43
9 0 -5 6 -7 13 -3 9 5 9 4 0 -6 -10 -11 -18 -8 -43 18 -17 18 -38 32 -47 32
-21 0 54 -75 78 -76 9 -1 30 -12 48 -25 18 -13 51 -31 74 -39 46 -17 51 -32
15 -41 -22 -6 -22 -7 -3 -15 11 -4 26 -14 33 -21 11 -11 3 -13 -45 -14 -62 -1
-62 -2 5 -19 46 -12 55 -33 25 -56 -27 -20 1 -35 39 -22 21 7 26 13 17 18 -9
6 0 20 32 50 24 23 43 47 42 54 -2 6 12 17 30 24 61 23 61 23 32 93 -15 35
-40 100 -55 144 -38 109 -51 132 -78 145 -33 14 -34 14 -26 -25z"/>
<path d="M12290 1434 c0 -14 7 -32 15 -40 12 -13 15 -12 23 3 10 20 5 44 -12
55 -19 13 -26 9 -26 -18z"/>
<path d="M12150 1424 c0 -8 5 -12 10 -9 6 4 8 11 5 16 -9 14 -15 11 -15 -7z"/>
<path d="M12216 1349 c-3 -17 -3 -56 1 -87 4 -40 3 -53 -5 -48 -9 5 -12 -7
-12 -39 0 -25 4 -44 9 -41 4 3 6 16 4 29 -3 16 1 26 11 30 10 4 16 1 16 -7 0
-7 7 -19 15 -26 17 -14 20 -40 5 -40 -5 0 -10 7 -10 15 0 8 -4 15 -10 15 -12
0 -13 -20 -2 -37 12 -20 52 -4 52 21 0 11 3 31 6 43 4 16 2 21 -12 20 -19 -2
-37 46 -28 76 6 18 -19 51 -30 40 -3 -4 -6 -1 -6 5 0 6 5 14 10 17 12 8 13 45
1 45 -5 0 -11 -14 -15 -31z"/>
<path d="M12340 1372 c0 -4 5 -13 12 -20 6 -6 8 -15 4 -19 -4 -4 -11 -1 -15 6
-7 10 -10 10 -16 1 -4 -7 -2 -16 4 -20 8 -4 10 -17 5 -33 -4 -20 -2 -27 9 -27
8 0 18 7 21 16 3 8 10 12 16 9 14 -9 12 9 -6 55 -14 35 -34 54 -34 32z"/>
<path d="M15121 1343 c-6 -21 -11 -43 -11 -50 0 -6 -5 -13 -12 -15 -9 -3 -9
-6 0 -12 7 -4 17 12 28 49 9 31 14 59 11 62 -3 3 -10 -12 -16 -34z"/>
<path d="M8020 1339 c0 -13 42 -36 78 -44 38 -8 41 3 10 32 -22 20 -88 29 -88
12z"/>
<path d="M11630 1311 c0 -22 -7 -69 -15 -104 -8 -35 -16 -91 -17 -123 -5 -97
23 -582 38 -681 8 -51 14 -112 14 -135 0 -24 8 -94 17 -155 l18 -113 46 0 c45
0 47 1 62 43 9 23 24 72 33 110 16 64 34 89 34 46 0 -11 7 -41 15 -67 8 -26
19 -66 25 -90 l11 -43 346 1 c210 1 341 5 332 10 -20 13 2 45 31 45 29 0 36
-18 15 -39 -15 -15 0 -16 192 -16 l209 0 4 32 c7 54 2 159 -10 213 -23 100
-86 265 -102 265 -4 0 -8 6 -8 14 0 8 -7 17 -16 20 -8 3 -13 10 -10 14 3 5 -5
8 -17 8 -14 -1 -23 6 -25 19 -4 17 -2 18 12 6 9 -8 16 -9 16 -3 0 6 -9 14 -20
17 -11 3 -20 11 -20 17 0 6 -3 8 -7 4 -4 -4 -15 8 -26 26 l-18 33 6 -43 c4
-33 2 -43 -7 -39 -7 2 -12 10 -10 17 1 7 -2 17 -7 24 -5 6 -8 27 -7 48 0 20
-2 34 -6 32 -3 -2 -10 6 -14 18 -3 12 -20 34 -37 48 -53 44 -127 125 -127 138
0 7 -7 15 -15 18 -8 4 -15 16 -16 28 0 20 -1 20 -9 1 -7 -18 -9 -18 -15 -3 -4
9 -3 23 1 30 4 7 -1 4 -12 -6 -19 -19 -27 -76 -11 -76 5 0 6 -9 2 -19 -4 -14
-1 -19 12 -17 19 1 22 -21 9 -61 -10 -30 8 -30 22 0 l11 22 0 -22 c1 -13 5
-23 10 -23 12 0 1 -73 -12 -81 -5 -4 -3 -9 4 -11 12 -4 11 -9 0 -34 -11 -23
-15 -25 -18 -11 -3 9 -8 17 -13 17 -4 0 -11 11 -14 25 -4 14 -10 23 -15 20 -5
-2 -16 6 -25 20 -9 14 -25 25 -36 25 -11 0 -24 9 -30 20 -17 31 -30 24 -27
-15 1 -19 5 -35 8 -35 3 0 5 -28 4 -62 -1 -35 2 -69 8 -75 6 -9 4 -15 -7 -19
-10 -4 -16 -18 -16 -38 0 -21 3 -27 9 -18 6 10 10 3 15 -22 4 -21 13 -36 21
-36 11 0 13 -11 8 -53 -7 -59 -18 -87 -36 -86 -9 0 -8 2 1 6 10 4 10 8 1 19
-7 8 -7 14 -1 14 5 0 9 23 9 50 0 28 -5 50 -9 50 -5 0 -13 10 -18 23 -7 16 -8
10 -3 -23 4 -31 2 -42 -5 -35 -13 12 -19 66 -9 81 4 7 -10 29 -32 52 -30 31
-41 52 -46 86 -4 25 -11 46 -16 46 -12 0 -11 -12 5 -62 8 -24 13 -59 12 -79
-2 -43 -30 -77 -50 -60 -7 6 -15 9 -18 6 -3 -3 -11 1 -18 10 -10 12 -10 18 1
32 10 11 10 17 3 20 -14 5 -6 53 12 73 9 11 11 25 5 45 -8 28 -9 27 -20 -28
-7 -31 -16 -55 -21 -52 -9 5 -30 -47 -30 -75 0 -22 -24 -32 -39 -17 -18 18
-13 42 15 67 17 17 23 31 19 47 -3 12 -1 25 5 28 5 3 10 15 10 27 0 20 -1 20
-27 3 -25 -17 -26 -17 -18 1 15 35 11 99 -9 146 l-20 48 -11 -28 c-7 -15 -15
-43 -18 -62 l-7 -35 20 24 c22 26 23 25 20 -39 -1 -25 -8 -52 -16 -61 -10 -12
-12 -27 -6 -60 6 -30 4 -52 -5 -69 -11 -21 -10 -27 2 -36 22 -16 19 -21 -15
-26 -43 -6 -50 2 -57 65 -4 42 -10 56 -24 60 -21 6 -46 -17 -29 -28 5 -3 10
-3 10 2 0 10 20 -19 20 -30 0 -5 -7 -1 -16 7 -8 9 -19 16 -24 16 -13 0 -21 33
-10 44 5 5 10 21 10 34 0 28 37 85 51 77 14 -9 11 3 -7 30 -18 28 -34 33 -34
10 0 -8 -9 -15 -21 -15 -11 0 -18 -4 -14 -9 6 -11 -64 -121 -77 -121 -4 0 -9
-17 -9 -37 -2 -35 -2 -35 -9 12 -6 38 -4 58 8 84 13 26 14 35 5 38 -18 6 -16
18 4 39 16 15 16 17 0 29 -9 7 -17 22 -17 34 0 14 -7 21 -20 22 -41 3 -45 5
-44 22 1 11 -6 17 -21 17 -35 0 -43 18 -48 105 -6 86 -23 195 -26 157 0 -13
-5 -20 -11 -17 -14 9 -12 71 4 133 14 53 12 82 -5 82 -5 0 -9 -18 -9 -39z
m937 -403 c-3 -7 -5 -2 -5 12 0 14 2 19 5 13 2 -7 2 -19 0 -25z m-117 -227 c0
-6 -4 -13 -10 -16 -5 -3 -10 1 -10 9 0 9 5 16 10 16 6 0 10 -4 10 -9z m341
-128 c-12 -20 -14 -14 -5 12 4 9 9 14 11 11 3 -2 0 -13 -6 -23z m-611 -22 c0
-11 -4 -23 -10 -26 -6 -4 -10 5 -10 19 0 14 5 26 10 26 6 0 10 -9 10 -19z
m277 -16 c8 -22 -6 -33 -17 -15 -13 20 -12 30 0 30 6 0 13 -7 17 -15z m155
-17 c-7 -7 -12 -8 -12 -2 0 14 12 26 19 19 2 -3 -1 -11 -7 -17z m-262 -101 c0
-5 -4 -6 -9 -2 -6 3 -16 -5 -23 -17 -14 -26 -15 -29 -17 -60 l-2 -23 -9 23
c-7 17 -4 34 11 66 11 24 19 50 18 58 -5 37 3 39 16 3 8 -22 15 -44 15 -48z
m220 -32 c0 -8 -4 -15 -10 -15 -5 0 -7 7 -4 15 4 8 8 15 10 15 2 0 4 -7 4 -15z
m60 -7 c0 -19 -2 -20 -10 -8 -13 19 -13 30 0 30 6 0 10 -10 10 -22z m-20 -28
c0 -5 9 -12 20 -15 15 -5 20 -15 20 -44 0 -20 -6 -46 -14 -56 -12 -16 -12 -22
1 -42 9 -13 11 -23 5 -23 -16 0 -41 40 -36 55 3 7 1 16 -5 20 -10 6 -17 -44
-12 -83 1 -6 -6 -12 -15 -12 -10 0 -14 5 -11 14 3 8 0 16 -7 18 -10 2 -10 18
1 83 7 44 15 86 18 92 5 13 35 7 35 -7z m-63 -202 c-3 -8 -6 -5 -6 6 -1 11 2
17 5 13 3 -3 4 -12 1 -19z"/>
<path d="M12592 270 c0 -14 2 -19 5 -12 2 6 2 18 0 25 -3 6 -5 1 -5 -13z"/>
<path d="M12563 195 c-3 -9 -3 -18 -1 -21 3 -3 8 4 11 16 6 23 -1 27 -10 5z"/>
<path d="M11900 1279 c0 -5 5 -7 10 -4 6 3 10 8 10 11 0 2 -4 4 -10 4 -5 0
-10 -5 -10 -11z"/>
<path d="M15010 1258 c0 -36 11 -31 15 7 2 14 -1 25 -6 25 -5 0 -9 -14 -9 -32z"/>
<path d="M12403 1258 c3 -10 2 -20 -3 -23 -6 -4 -10 -15 -10 -26 0 -17 3 -18
20 -7 24 15 25 26 3 53 -12 16 -14 16 -10 3z"/>
<path d="M15060 1250 c0 -19 3 -21 12 -12 9 9 9 15 0 24 -9 9 -12 7 -12 -12z"/>
<path d="M14984 1227 c-6 -17 2 -37 16 -37 5 0 7 10 5 21 -6 29 -13 35 -21 16z"/>
<path d="M15100 1226 c0 -9 -4 -14 -10 -11 -5 3 -10 -1 -10 -9 0 -9 4 -16 9
-16 12 0 25 39 17 47 -3 4 -6 -1 -6 -11z"/>
<path d="M15030 1190 c0 -5 5 -10 10 -10 6 0 10 5 10 10 0 6 -4 10 -10 10 -5
0 -10 -4 -10 -10z"/>
<path d="M7871 1156 c-6 -16 -9 -31 -6 -34 2 -3 -3 -10 -12 -17 -9 -7 -17 -21
-18 -31 0 -11 -4 -24 -7 -29 -3 -6 -16 -62 -28 -125 -25 -129 -31 -149 -88
-271 -48 -100 -52 -129 -55 -349 -2 -132 -6 -170 -19 -190 -8 -14 -18 -44 -21
-68 l-5 -42 324 0 324 0 1 33 c1 30 1 31 9 7 7 -21 8 -22 9 -5 1 12 6 26 12
32 23 23 11 323 -13 323 -5 0 -6 5 -3 10 3 5 3 10 -2 10 -4 0 -9 22 -10 48 -2
45 24 117 56 156 13 15 101 253 101 272 0 8 9 33 21 56 l21 40 -57 -32 c-30
-17 -63 -29 -71 -26 -8 3 -12 2 -9 -3 9 -16 -83 -24 -141 -13 -128 26 -213 91
-269 208 l-33 69 -11 -29z"/>
<path d="M12563 1139 c20 -11 37 -25 37 -31 0 -6 3 -8 6 -5 4 3 15 2 25 -4 11
-5 19 -7 19 -5 0 8 -103 66 -115 65 -5 0 7 -9 28 -20z"/>
<path d="M15560 1149 c0 -5 5 -7 10 -4 6 3 10 8 10 11 0 2 -4 4 -10 4 -5 0
-10 -5 -10 -11z"/>
<path d="M15606 1132 c-3 -5 6 -12 20 -15 15 -3 23 0 21 7 -5 14 -33 20 -41 8z"/>
<path d="M12200 1099 c0 -5 5 -7 10 -4 6 3 10 8 10 11 0 2 -4 4 -10 4 -5 0
-10 -5 -10 -11z"/>
<path d="M11790 1050 c0 -5 5 -10 11 -10 5 0 7 5 4 10 -3 6 -8 10 -11 10 -2 0
-4 -4 -4 -10z"/>
<path d="M11874 1044 c9 -8 16 -22 16 -29 0 -12 -5 -11 -27 1 -16 7 -34 14
-40 14 -18 0 -16 -17 2 -24 8 -3 15 -10 15 -16 0 -6 -4 -9 -9 -6 -13 8 -21
-20 -20 -67 2 -41 2 -41 8 -9 6 33 23 45 29 20 2 -9 0 -8 -8 2 -10 13 -11 12
-6 -3 3 -10 6 -25 6 -33 0 -8 4 -14 10 -14 5 0 7 7 3 16 -4 10 1 17 16 21 11
3 19 9 16 13 -3 5 -1 11 4 14 9 6 25 -47 22 -74 -1 -13 0 -13 8 0 13 22 -9
100 -29 100 -12 1 -12 2 3 11 9 5 17 16 17 24 0 17 -30 55 -43 55 -5 0 -1 -7
7 -16z"/>
<path d="M11915 1051 c-3 -5 -1 -12 5 -16 5 -3 10 1 10 9 0 18 -6 21 -15 7z"/>
<path d="M12225 1050 c3 -5 8 -10 11 -10 2 0 4 5 4 10 0 6 -5 10 -11 10 -5 0
-7 -4 -4 -10z"/>
<path d="M11726 1020 c-36 -44 -47 -120 -17 -120 5 0 11 21 14 47 3 31 12 53
26 64 22 18 28 39 12 39 -5 0 -21 -14 -35 -30z"/>
<path d="M12281 1002 c-7 -21 -11 -47 -9 -58 4 -16 8 -13 20 14 8 18 19 33 24
33 16 -2 10 44 -7 47 -10 2 -20 -10 -28 -36z"/>
<path d="M12338 985 c-4 -4 -4 -14 0 -23 5 -14 3 -15 -9 -5 -12 10 -13 4 -10
-34 2 -27 6 -40 11 -33 6 10 9 9 13 -1 3 -8 6 -4 6 9 1 12 7 22 14 22 9 0 9 2
0 8 -6 4 -13 20 -15 35 -1 16 -6 26 -10 22z"/>
<path d="M15056 969 c-11 -10 -17 -22 -14 -25 10 -9 48 16 48 31 0 20 -11 18
-34 -6z"/>
<path d="M8575 958 c-4 -14 -15 -34 -26 -43 -10 -10 -23 -33 -29 -51 -7 -19
-16 -34 -21 -34 -5 0 -9 -5 -9 -12 0 -7 -17 -48 -39 -93 -21 -44 -44 -91 -50
-105 -6 -14 -20 -38 -31 -55 -39 -61 -52 -88 -47 -104 3 -9 13 -35 21 -57 11
-31 16 -90 17 -223 l2 -181 102 0 102 0 7 118 c5 64 10 151 12 192 2 41 8 95
13 120 6 25 13 68 16 95 4 28 13 64 20 80 l13 30 1 -28 c1 -16 7 -34 14 -41
19 -21 38 -44 184 -226 72 -90 128 -158 180 -216 34 -38 72 -82 85 -97 15 -19
31 -28 45 -25 18 2 4 22 -91 129 -61 70 -180 218 -264 330 -84 112 -159 213
-167 224 -8 10 -15 23 -15 28 0 4 -5 5 -10 2 -6 -3 -13 2 -17 11 -4 10 -2 19
3 21 7 2 7 22 0 59 -7 40 -6 65 1 85 9 23 9 37 -2 62 l-13 32 -7 -27z"/>
<path d="M12655 970 c-3 -5 -1 -10 4 -10 6 0 11 5 11 10 0 6 -2 10 -4 10 -3 0
-8 -4 -11 -10z"/>
<path d="M14990 965 c0 -8 2 -15 4 -15 2 0 12 -3 20 -6 12 -4 15 -2 10 9 -8
21 -34 30 -34 12z"/>
<path d="M11772 900 c0 -19 2 -27 5 -17 2 9 2 25 0 35 -3 9 -5 1 -5 -18z"/>
<path d="M12053 893 c-15 -5 -17 -23 -4 -23 5 0 11 7 15 15 3 8 4 15 3 14 -1
0 -8 -3 -14 -6z"/>
<path d="M11877 859 c-8 -28 -3 -34 11 -16 6 7 7 19 3 26 -6 9 -10 6 -14 -10z"/>
<path d="M12140 870 c0 -5 5 -10 11 -10 5 0 7 5 4 10 -3 6 -8 10 -11 10 -2 0
-4 -4 -4 -10z"/>
<path d="M12381 854 c0 -11 3 -14 6 -6 3 7 2 16 -1 19 -3 4 -6 -2 -5 -13z"/>
<path d="M11972 840 c-1 -8 5 -28 13 -45 12 -27 13 -28 14 -7 1 15 7 22 21 22
11 0 20 6 20 14 0 23 -17 28 -33 11 -20 -19 -25 -19 -30 3 -3 12 -5 12 -5 2z"/>
<path d="M11986 690 c-10 -54 -7 -68 9 -40 13 21 14 22 13 5 -4 -56 2 -73 22
-68 24 6 26 19 5 27 -8 3 -15 14 -15 25 0 10 -6 33 -14 51 l-13 32 -7 -32z"/>
<path d="M12350 695 c-1 -5 -1 -14 0 -20 1 -5 2 -36 1 -67 -1 -66 13 -78 23
-19 3 22 9 48 13 58 6 16 5 16 -9 5 -15 -12 -17 -9 -21 20 -2 18 -5 29 -7 23z"/>
<path d="M11631 174 c0 -11 3 -14 6 -6 3 7 2 16 -1 19 -3 4 -6 -2 -5 -13z"/>
<path d="M11642 100 c0 -14 2 -19 5 -12 2 6 2 18 0 25 -3 6 -5 1 -5 -13z"/>
</g>
</svg>
