<?xml version="1.0" standalone="no"?>
<!DOCTYPE svg PUBLIC "-//W3C//DTD SVG 20010904//EN"
 "http://www.w3.org/TR/2001/REC-SVG-20010904/DTD/svg10.dtd">
<svg version="1.0" xmlns="http://www.w3.org/2000/svg"
 width="1902.000000pt" height="603.000000pt" viewBox="0 0 1902.000000 603.000000"
 preserveAspectRatio="xMidYMid meet">

<g transform="translate(0.000000,603.000000) scale(0.100000,-0.100000)"
fill="#000000" stroke="none">
<path d="M26 5907 c1 -130 0 -127 24 -127 20 0 26 11 13 23 -9 10 -10 177 0
177 4 0 7 7 7 15 0 9 -9 15 -22 15 -22 0 -23 -3 -22 -103z"/>
<path d="M506 5963 c14 -80 9 -162 -11 -177 -13 -10 -15 -17 -8 -30 6 -11 7
-35 2 -60 -8 -47 -9 -45 19 -49 28 -4 41 -17 18 -17 -14 0 -17 -5 -13 -22 4
-14 0 -29 -10 -40 -13 -14 -14 -21 -5 -30 7 -7 12 -23 11 -37 l-1 -26 -8 25
c-7 19 -8 14 -7 -24 2 -49 21 -74 30 -39 4 14 5 14 6 2 0 -9 -10 -29 -24 -45
-23 -27 -24 -38 -4 -40 5 -1 13 -2 18 -3 12 -1 20 -50 10 -57 -5 -3 -5 -14 1
-24 5 -10 10 -36 10 -57 0 -28 3 -34 10 -23 11 17 13 10 10 -41 -1 -22 5 -41
14 -48 9 -8 16 -20 16 -27 0 -8 5 -14 12 -14 6 0 20 -8 31 -17 20 -18 20 -18
0 22 -11 22 -25 52 -32 68 -6 15 -15 37 -20 50 -25 59 -31 148 -31 477 l0 350
-26 0 c-25 0 -25 -1 -18 -47z m32 -222 c2 -15 0 -21 -7 -17 -7 4 -11 -1 -11
-13 0 -11 -5 -23 -12 -27 -8 -5 -9 0 -4 17 4 13 7 34 7 47 -1 30 23 24 27 -7z"/>
<path d="M7584 5988 c-12 -13 -38 -52 -59 -88 -22 -36 -44 -72 -50 -80 -6 -8
-17 -40 -25 -70 -7 -30 -20 -60 -28 -66 -12 -8 -16 -29 -15 -77 0 -35 4 -71 8
-78 5 -7 9 -27 10 -46 1 -19 9 -39 20 -46 11 -9 15 -19 10 -27 -5 -8 -4 -11 2
-7 6 4 17 -18 27 -53 9 -33 22 -65 29 -72 24 -25 47 -68 47 -86 0 -10 11 -29
25 -42 14 -13 25 -29 25 -37 0 -7 4 -13 9 -13 5 0 21 -24 36 -52 15 -29 36
-62 46 -74 10 -11 19 -27 19 -36 0 -26 49 -126 65 -132 8 -3 15 -14 15 -25 0
-11 9 -23 20 -26 11 -4 20 -12 18 -18 -4 -22 13 -57 33 -67 11 -6 19 -21 19
-35 0 -13 6 -28 13 -32 20 -12 77 -117 77 -142 0 -12 16 -36 35 -54 19 -17 35
-38 35 -45 0 -6 14 -26 30 -44 19 -19 30 -42 30 -59 0 -16 9 -35 23 -46 12
-10 39 -52 60 -93 20 -41 50 -90 66 -108 16 -18 32 -45 36 -60 5 -24 16 -41
64 -98 5 -7 7 -15 4 -18 -4 -3 -1 -6 5 -6 7 0 12 -6 12 -14 0 -7 7 -19 15 -26
9 -7 28 -38 43 -69 15 -31 42 -69 60 -84 24 -22 32 -37 32 -63 0 -21 5 -34 13
-34 19 0 70 -57 62 -69 -3 -6 5 -15 19 -21 18 -6 26 -17 26 -32 0 -13 9 -29
19 -35 11 -7 22 -29 26 -52 5 -29 16 -47 40 -65 19 -15 36 -39 40 -56 4 -16
13 -34 21 -38 13 -7 20 -24 23 -54 1 -5 8 -8 16 -8 8 0 15 -3 15 -7 0 -5 20
-30 45 -58 25 -27 45 -57 45 -67 0 -10 9 -26 21 -36 11 -9 31 -40 44 -69 13
-28 34 -57 46 -64 32 -17 45 -31 54 -59 10 -31 76 -109 93 -110 6 0 12 -9 12
-20 0 -11 5 -20 10 -20 6 0 10 -9 10 -20 0 -11 6 -20 13 -20 6 0 26 -24 42
-52 34 -57 67 -98 82 -98 5 0 20 -22 33 -50 13 -27 35 -57 49 -67 26 -16 44
-39 47 -58 0 -5 2 -16 2 -22 1 -7 7 -13 13 -13 11 0 39 -25 39 -35 0 -3 31
-38 70 -77 38 -39 77 -82 85 -95 9 -13 24 -27 33 -30 9 -4 35 -24 57 -45 22
-21 47 -38 56 -38 8 0 34 -9 57 -20 50 -24 50 -24 54 -3 2 10 8 -20 12 -67 12
-138 56 -478 76 -585 14 -75 24 -211 15 -203 -11 10 -35 -11 -35 -29 0 -8 -11
-28 -25 -45 -14 -16 -25 -37 -25 -47 0 -9 -7 -27 -17 -40 -13 -19 -14 -28 -5
-42 7 -10 12 -35 12 -54 0 -20 4 -34 9 -30 5 3 15 -11 21 -30 7 -20 18 -35 27
-35 9 0 14 -2 11 -5 -3 -3 10 -21 28 -39 24 -24 34 -43 34 -64 0 -21 6 -33 18
-36 33 -11 111 -103 107 -126 -3 -14 1 -20 16 -20 10 0 19 -5 19 -10 0 -14 43
-80 53 -80 4 0 7 8 7 18 0 11 7 6 20 -16 11 -18 20 -42 20 -54 0 -12 3 -19 6
-15 4 3 22 -23 41 -59 19 -37 45 -84 59 -105 l24 -39 856 0 856 0 -28 38 c-43
57 -193 231 -249 288 -27 28 -59 62 -70 76 -11 13 -63 73 -115 134 -52 60 -99
116 -105 125 -39 62 -137 203 -166 240 -20 24 -39 51 -42 60 -3 9 -26 43 -50
75 -24 33 -51 73 -60 89 -8 17 -24 39 -36 49 -12 11 -21 25 -21 31 0 7 -7 18
-15 25 -16 13 -42 50 -121 168 -23 35 -51 70 -62 77 -11 8 -34 37 -51 64 -19
29 -53 63 -82 82 -49 31 -49 32 -32 52 108 126 391 366 676 573 94 69 178 131
185 138 10 10 11 22 2 58 -11 43 0 339 16 462 6 40 9 44 25 35 11 -5 19 -6 19
-1 0 4 15 9 32 10 18 2 37 7 42 12 6 6 18 10 28 10 18 0 25 3 86 33 19 9 42
17 52 17 10 0 31 11 47 24 29 24 132 76 152 76 6 0 15 8 20 19 6 10 34 33 63
52 52 32 170 127 176 141 2 5 12 8 23 8 10 0 19 6 19 14 0 8 34 43 76 77 42
34 90 83 105 108 16 25 29 40 29 33 0 -7 7 -5 19 5 10 10 18 21 17 24 -1 4 11
21 27 38 17 20 22 31 13 31 -7 0 -19 -7 -26 -15 -25 -30 -210 -165 -325 -237
-159 -100 -313 -178 -288 -146 6 7 10 27 8 45 -1 18 2 30 7 27 5 -3 17 5 28
18 10 14 38 33 62 43 24 10 63 33 88 50 25 17 65 43 90 58 57 32 210 174 210
193 0 8 -20 -5 -45 -31 -25 -25 -50 -45 -56 -45 -6 0 -24 13 -39 29 -16 16
-41 31 -55 35 -14 4 -25 11 -25 16 0 6 -9 10 -20 10 -23 0 -24 4 -9 32 10 19
9 20 -17 14 -24 -6 -26 -5 -14 9 7 8 9 19 5 23 -4 4 -14 -3 -22 -16 -9 -12
-23 -22 -32 -22 -10 0 -2 13 25 38 41 37 47 62 15 62 -9 0 -26 7 -37 15 -10 8
-28 15 -39 15 -15 0 -16 3 -7 12 20 20 15 40 -8 33 -21 -7 -29 10 -7 18 7 2 8
8 3 13 -5 5 -15 -1 -23 -13 -9 -13 -23 -23 -32 -22 -9 0 -11 3 -4 5 7 3 22 21
34 40 21 34 22 35 46 18 19 -12 24 -13 21 -2 -2 7 -23 23 -46 36 -35 20 -42
29 -42 54 0 21 -6 31 -19 35 -11 3 -22 11 -25 19 -3 8 -14 14 -24 14 -11 0
-18 7 -18 20 0 11 4 20 8 20 4 0 8 8 8 18 -1 16 -1 16 -11 -1 -5 -9 -17 -17
-24 -17 -18 0 -20 16 -2 23 10 4 10 6 0 6 -7 1 -13 10 -13 20 0 22 -35 51 -62
51 -22 0 -22 7 -4 43 8 15 11 27 6 27 -4 0 -16 3 -25 6 -13 5 -15 2 -9 -20 4
-16 2 -26 -5 -26 -6 0 -11 5 -11 11 0 8 -5 7 -16 -2 -14 -11 -15 -10 -12 7 1
10 10 26 18 34 19 18 15 50 -6 50 -10 0 -13 7 -9 23 4 15 -1 32 -15 49 -17 22
-26 26 -54 21 -40 -6 -56 11 -25 27 18 10 19 13 5 23 -8 7 -16 19 -18 27 -2 8
-12 19 -22 25 -10 5 -27 26 -38 45 -10 19 -21 33 -25 32 -3 -2 -10 3 -15 12
-5 9 -17 16 -28 16 -26 0 -30 22 -7 40 18 15 16 18 -37 75 -31 32 -56 65 -56
72 0 8 -7 25 -16 39 -16 23 -15 26 2 46 l19 22 -30 -19 c-121 -76 -315 -208
-311 -212 2 -3 12 0 22 5 17 9 50 -7 91 -45 16 -14 6 -43 -14 -43 -8 0 -11 -4
-8 -10 3 -5 -11 -18 -32 -27 -21 -10 -41 -22 -45 -28 -4 -5 -10 -6 -15 -2 -4
5 -1 12 6 16 17 11 3 19 -31 19 -15 0 -42 5 -58 12 l-31 13 21 22 c25 27 26
39 1 25 -16 -8 -21 -6 -26 9 -3 10 -14 26 -25 36 -11 10 -20 26 -20 36 0 10
-8 24 -18 31 -9 7 -23 24 -30 38 -7 14 -26 43 -42 65 -17 22 -46 64 -66 93
-33 48 -45 56 -81 55 -7 -1 -13 1 -13 3 0 3 84 61 188 129 103 69 230 157 282
196 52 38 131 94 175 124 123 82 270 207 273 233 5 35 -16 26 -87 -36 -36 -32
-93 -78 -126 -102 -33 -24 -80 -62 -105 -85 -25 -23 -83 -66 -130 -95 -47 -29
-130 -83 -185 -120 -137 -91 -302 -190 -317 -190 -10 0 -9 3 1 9 12 8 10 17
-11 58 -14 26 -46 88 -72 138 -25 49 -54 110 -63 135 -9 25 -26 56 -38 70 -12
14 -28 41 -36 60 -7 19 -27 54 -44 77 -48 67 -83 126 -90 155 -4 15 -13 32
-21 39 -8 6 -14 17 -14 25 0 7 -9 15 -19 19 -10 3 -24 19 -31 35 l-13 30 -649
0 -649 0 6 -23 c4 -12 20 -41 36 -65 16 -23 29 -46 29 -51 0 -14 69 -112 109
-156 21 -22 45 -51 54 -65 9 -14 33 -50 53 -80 32 -48 86 -119 119 -156 6 -7
26 -31 45 -55 19 -24 47 -57 62 -74 47 -52 54 -60 91 -117 20 -30 46 -63 56
-73 11 -9 25 -34 32 -54 6 -20 22 -47 34 -61 13 -14 37 -52 54 -84 31 -59 43
-75 89 -119 26 -24 82 -103 82 -115 0 -4 -21 -25 -46 -46 -39 -32 -48 -36 -59
-25 -28 30 -146 201 -208 302 -74 120 -112 174 -287 403 -171 224 -218 287
-265 354 -41 59 -82 110 -147 185 -21 23 -38 46 -38 51 -1 5 -20 34 -43 64
-28 36 -51 56 -68 58 -21 2 -22 1 -8 -10 9 -7 24 -28 33 -46 9 -18 21 -30 26
-27 6 4 10 -2 10 -12 0 -9 11 -27 24 -38 23 -20 26 -25 26 -46 0 -5 4 -7 10
-4 5 3 8 0 5 -7 -3 -7 5 -25 17 -40 13 -14 59 -78 103 -142 44 -64 117 -169
162 -234 46 -64 92 -130 103 -147 11 -16 68 -97 127 -180 58 -82 130 -188 161
-235 83 -129 202 -290 215 -290 26 0 -52 -60 -266 -203 -310 -206 -421 -271
-372 -217 10 11 14 20 8 20 -5 0 -15 10 -21 23 -6 12 -23 40 -37 62 -33 53
-65 117 -65 133 0 17 -58 102 -69 102 -5 0 -16 18 -25 40 -9 23 -23 43 -30 46
-8 3 -20 18 -26 32 -19 47 -41 82 -51 82 -5 0 -9 8 -9 19 0 10 -6 24 -14 30
-8 7 -37 58 -65 115 -28 57 -58 109 -66 116 -8 7 -15 19 -15 26 0 8 -5 14 -11
14 -5 0 -16 15 -24 34 -8 18 -29 53 -47 77 -46 61 -68 96 -68 109 0 6 -20 45
-45 86 -25 40 -45 77 -45 81 0 4 -8 16 -19 27 -10 12 -36 55 -57 96 -21 41
-58 103 -81 138 -24 34 -43 66 -43 71 0 5 -11 22 -23 38 -13 15 -29 43 -35 62
-7 19 -28 53 -47 77 -19 23 -35 49 -35 58 0 10 -9 16 -22 17 -22 0 -22 1 -5
12 10 7 26 17 35 23 13 9 -63 12 -319 13 l-335 2 -20 -23z m1805 -103 c-3 -2
-16 10 -29 28 l-23 32 29 -27 c15 -15 26 -30 23 -33z m59 -70 c42 -56 19 -49
-27 9 -34 42 -37 50 -20 44 6 -2 27 -26 47 -53z m2096 -981 c4 -10 1 -14 -6
-12 -15 5 -23 28 -10 28 5 0 13 -7 16 -16z m-38 -14 c0 -11 -6 -20 -13 -20
-16 0 -17 12 -1 28 7 7 12 12 13 12 0 0 1 -9 1 -20z m144 -114 c0 -27 -38 -44
-53 -23 -6 8 -7 6 -3 -5 7 -22 -10 -33 -18 -12 -8 21 3 56 15 49 5 -4 9 -1 9
4 0 6 11 11 25 11 20 0 25 -5 25 -24z m-172 -64 c2 -7 -2 -10 -12 -6 -9 3 -16
1 -16 -5 0 -6 -9 -11 -20 -11 -27 0 -25 18 3 30 26 10 39 8 45 -8z m282 -2 c0
-4 -11 -15 -25 -24 -33 -21 -32 -36 2 -36 19 0 24 -3 16 -11 -5 -5 -22 -7 -37
-3 -22 5 -26 11 -26 44 0 37 1 38 35 38 19 0 35 -4 35 -8z m-210 -20 c0 -5 -3
-10 -8 -10 -4 0 -16 -16 -26 -35 -10 -19 -22 -33 -26 -30 -3 2 -14 -5 -23 -16
-33 -38 -51 -14 -22 28 9 13 22 20 30 17 9 -4 18 1 21 12 4 11 11 25 17 32 11
14 37 16 37 2z m-1284 -151 c24 -39 44 -74 44 -79 0 -4 7 -10 15 -13 8 -4 24
-25 36 -49 12 -24 30 -53 41 -65 l21 -22 -52 -50 c-28 -28 -53 -51 -55 -51 -3
0 -21 28 -42 63 -48 79 -211 314 -224 322 -19 12 -9 24 48 59 l57 35 34 -40
c18 -21 53 -71 77 -110z m1304 110 c0 -5 -7 -9 -15 -9 -9 0 -12 6 -9 15 6 15
24 11 24 -6z m102 -34 c3 -16 1 -25 -7 -25 -7 0 -18 -6 -24 -14 -10 -11 -8
-15 6 -19 10 -3 5 -5 -13 -6 -24 -1 -36 6 -48 24 -17 26 -17 26 26 45 55 25
55 25 60 -5z m-1653 -92 c41 -63 123 -184 190 -279 50 -71 53 -79 37 -88 -10
-6 -72 -51 -139 -100 -210 -154 -495 -332 -472 -296 3 6 1 10 -4 10 -6 0 -17
15 -26 33 -20 43 -33 63 -77 118 -21 26 -38 51 -38 56 0 5 -18 35 -39 66 -22
30 -41 63 -43 73 -1 9 -9 19 -16 22 -8 2 -10 -2 -6 -13 6 -15 4 -15 -14 -4
-12 7 -20 14 -19 15 24 20 114 84 193 135 55 36 173 118 263 182 89 65 166
117 171 117 4 0 22 -21 39 -47z m1506 11 c0 -22 -5 -30 -22 -32 -25 -4 -28 4
-13 43 13 34 35 27 35 -11z m247 9 c3 -10 -6 -27 -19 -38 -22 -19 -22 -21 -8
-50 15 -27 15 -30 -2 -43 -16 -12 -15 -13 12 -11 37 3 72 -8 78 -24 6 -19 -4
-87 -14 -87 -5 0 -9 -7 -9 -15 0 -8 5 -15 10 -15 6 0 10 -13 10 -30 0 -16 -5
-30 -11 -30 -7 0 -9 9 -5 24 4 15 0 28 -9 36 -16 13 -18 9 -16 -25 1 -19 1
-19 -10 -1 -8 13 -8 25 0 43 15 33 14 41 -3 18 -13 -18 -15 -18 -39 -2 -23 15
-28 15 -41 2 -19 -19 -26 -19 -26 0 0 9 -6 15 -14 13 -16 -3 -16 -2 -16 37 0
16 6 25 16 25 12 0 14 4 7 13 -17 20 -24 65 -12 72 6 4 8 13 5 21 -3 8 0 11
10 7 9 -3 14 1 14 14 0 43 84 84 92 46z m233 -23 c0 -8 -10 -16 -22 -18 -25
-4 -26 -2 -17 23 8 19 39 16 39 -5z m-376 -107 c13 -28 13 -28 -8 -9 -22 20
-27 36 -13 36 5 0 14 -12 21 -27z m306 5 c-19 -11 -19 -11 0 -19 18 -7 19 -8
2 -8 -11 -1 -27 -11 -37 -23 -22 -27 -44 -14 -38 23 2 19 11 25 38 30 53 10
57 9 35 -3z m-1222 -325 c167 -266 364 -611 625 -1095 47 -88 47 -121 1 -173
-10 -11 -33 -40 -52 -65 -107 -145 -621 -489 -767 -514 l-35 -6 40 15 c48 19
67 35 40 35 -17 0 -17 1 -2 18 9 9 72 53 142 97 139 88 218 148 115 87 -36
-21 -94 -55 -130 -75 -36 -21 -82 -49 -102 -62 -30 -20 -38 -22 -38 -10 0 8 7
15 15 15 8 0 15 6 15 13 0 16 39 52 65 61 24 7 61 61 57 82 -3 13 1 13 17 4
12 -6 21 -8 21 -5 0 3 9 1 20 -5 16 -8 28 -8 50 2 17 7 30 16 30 20 0 5 9 17
20 28 19 19 19 22 5 36 -19 20 -19 38 0 30 9 -3 15 0 15 9 0 8 -5 15 -11 15
-18 0 2 22 35 36 l31 13 -32 1 c-18 0 -33 4 -33 10 0 5 -8 7 -17 4 -15 -5 -16
-4 -3 5 11 8 12 13 3 22 -8 8 -14 6 -22 -10 -7 -12 -16 -21 -22 -21 -6 0 -7 5
-3 11 9 16 -18 30 -33 18 -6 -6 -9 -17 -6 -25 3 -9 -2 -14 -16 -14 -24 0 -24
1 -12 32 29 71 29 77 3 116 -9 14 -15 39 -13 56 3 27 1 29 -14 16 -16 -13 -55
-25 -55 -16 0 8 71 46 86 46 8 0 14 9 14 19 0 11 6 22 13 24 6 3 2 6 -10 6
-14 1 -23 -5 -23 -14 0 -8 -4 -15 -9 -15 -14 0 -57 39 -44 40 7 0 10 6 7 14
-3 8 -1 17 5 21 19 11 12 25 -13 25 -19 0 -22 -4 -18 -25 3 -21 0 -25 -18 -25
-16 0 -20 -4 -16 -15 6 -16 -9 -21 -18 -6 -5 7 -56 7 -59 -1 -1 -2 -8 -14 -16
-28 -10 -17 -10 -25 -2 -28 16 -5 14 -22 -4 -22 -10 0 -15 10 -15 30 0 28 -2
29 -21 18 -11 -7 -27 -28 -34 -46 -10 -23 -27 -38 -60 -52 -45 -19 -53 -32
-36 -59 8 -13 15 -13 50 -1 37 12 43 11 61 -5 16 -14 36 -19 85 -18 55 0 62
-2 49 -14 -17 -17 -19 -47 -3 -37 7 4 10 1 7 -6 -5 -17 29 -53 42 -45 11 7 14
-83 4 -109 -8 -21 -38 -20 -70 1 -20 12 -24 22 -19 40 5 22 3 24 -17 18 -32
-11 -58 -46 -52 -71 3 -12 1 -25 -5 -29 -15 -8 -53 4 -46 15 3 5 1 11 -5 15
-6 4 -7 12 -3 18 15 25 11 99 -7 114 -18 16 -62 58 -77 74 -4 5 -21 19 -36 30
-20 15 -25 25 -18 32 14 14 14 27 1 27 -5 0 -10 -7 -10 -15 0 -8 -8 -15 -19
-15 -10 0 -24 -7 -31 -15 -11 -13 -15 -10 -33 22 -11 21 -20 50 -19 66 2 18
-3 27 -13 27 -17 0 -20 16 -5 25 16 10 12 28 -4 22 -10 -4 -13 -1 -9 8 3 8 -2
17 -10 21 -8 3 -13 13 -10 24 8 30 -13 58 -39 53 -34 -6 -78 13 -78 35 0 26
-9 33 -30 20 -25 -16 -46 -4 -54 29 -6 23 -3 31 18 48 30 24 33 40 10 53 -12
7 -17 25 -18 71 -1 48 -4 61 -17 61 -8 0 -20 5 -26 11 -14 14 -62 -1 -100 -31
-28 -22 -43 -25 -43 -9 0 5 5 7 10 4 18 -11 11 37 -7 51 -16 12 -16 13 -2 14
9 0 20 7 23 16 5 14 1 16 -24 11 -27 -6 -30 -4 -30 19 0 19 4 25 15 20 13 -5
14 -2 5 15 -6 11 -18 23 -26 26 -8 3 -14 13 -14 23 0 24 -50 80 -72 80 -9 0
-20 5 -23 10 -3 6 -1 10 5 10 6 0 8 4 5 10 -3 5 6 12 20 16 14 3 25 13 25 21
0 10 -5 13 -17 8 -10 -4 -25 -9 -33 -12 -8 -3 21 18 65 47 45 29 81 48 83 41
5 -16 50 -2 99 31 42 28 43 29 68 11 18 -14 25 -28 26 -58 1 -22 3 -32 6 -22
4 14 11 8 35 -28 21 -31 34 -43 42 -36 6 5 27 13 46 18 22 6 36 16 39 29 2 10
8 23 15 27 7 5 4 13 -11 24 -13 8 -23 24 -23 35 0 23 -33 54 -72 69 -32 12
-35 21 -13 39 8 7 13 21 10 34 -4 16 3 27 32 46 20 14 66 46 101 73 61 44 90
59 77 38 -3 -6 4 -15 15 -21 12 -6 29 -19 39 -28 41 -39 67 -57 83 -57 26 0
34 -15 11 -21 -12 -3 -24 -12 -27 -20 -6 -15 14 -59 29 -61 5 -1 13 -10 17
-20 6 -16 7 -16 14 5 4 13 14 22 26 22 11 0 16 -4 12 -11 -11 -19 16 -57 38
-51 14 3 21 -1 25 -17 3 -11 9 -21 14 -21 5 0 9 -10 9 -22 -1 -22 -1 -22 -15
-4 -13 18 -15 18 -21 2 -4 -10 -2 -27 4 -39 6 -12 14 -37 17 -54 6 -31 9 -33
48 -33 46 0 57 -5 73 -35 6 -11 23 -21 38 -23 20 -3 28 2 36 22 11 29 28 34
37 10 3 -9 16 -28 29 -41 13 -14 21 -30 17 -36 -4 -6 0 -8 9 -5 44 17 47 -39
3 -68 -18 -12 -31 -13 -59 -6 -26 8 -39 7 -53 -3 -24 -18 -17 -23 37 -26 25
-1 55 -9 68 -16 13 -8 30 -12 39 -9 20 8 53 -11 53 -31 0 -12 -3 -14 -11 -6
-20 20 -71 0 -88 -35 -15 -30 -19 -32 -49 -27 -23 4 -32 3 -27 -4 3 -6 17 -11
30 -11 13 0 27 -4 30 -10 3 -5 -1 -10 -9 -10 -25 0 -19 -12 30 -56 l46 -42
-17 -32 c-9 -17 -14 -34 -11 -38 3 -3 1 -11 -5 -19 -9 -10 -6 -13 15 -13 37 0
66 -17 66 -39 0 -21 26 -36 35 -21 4 6 10 10 16 10 12 0 12 -37 -1 -45 -16
-10 -12 -25 6 -25 14 0 14 -2 3 -16 -11 -13 -10 -15 5 -12 14 2 19 -4 21 -24
3 -26 10 -37 46 -78 12 -13 14 -21 6 -29 -8 -8 -5 -11 11 -11 12 0 22 4 22 10
0 5 20 15 45 21 39 10 45 15 45 38 l1 26 24 -30 c23 -28 25 -29 42 -13 16 17
16 20 -3 54 -13 26 -30 41 -54 49 -35 12 -35 12 -12 26 12 7 22 18 22 24 0 6
-19 42 -41 80 -41 70 -69 119 -128 227 -17 31 -38 59 -46 62 -8 3 -15 15 -15
26 0 33 -37 97 -60 103 -13 3 -20 13 -20 30 0 14 -7 32 -15 41 -8 8 -15 19
-15 25 0 13 -40 81 -48 81 -21 1 -44 33 -46 62 -1 23 -32 80 -102 188 -55 85
-122 189 -147 231 -26 42 -56 84 -67 94 -19 18 -19 19 27 65 l48 48 31 -47
c17 -25 88 -137 157 -248z m1247 138 c0 -6 -4 -12 -9 -15 -5 -3 -7 -15 -4 -25
6 -25 -34 -50 -43 -26 -3 8 -10 12 -15 9 -18 -11 -9 20 13 43 21 23 58 32 58
14z m100 -15 c0 -8 -7 -22 -17 -31 -14 -14 -14 -18 -2 -26 10 -6 11 -9 1 -9
-7 0 -15 7 -18 15 -5 11 -10 13 -19 5 -9 -8 -17 -3 -30 16 -9 14 -14 29 -10
32 3 4 10 0 14 -7 7 -11 13 -11 32 3 29 20 49 21 49 2z m-1626 -124 c4 -7 13
-12 19 -12 7 0 6 4 -3 10 -12 8 -12 10 3 16 12 4 23 0 32 -12 9 -12 14 -14 15
-6 0 7 4 11 10 7 6 -4 6 -15 -1 -32 -7 -19 -6 -28 3 -34 19 -12 -7 -59 -32
-59 -11 0 -20 -4 -20 -10 0 -5 -4 -10 -10 -10 -5 0 -9 3 -9 8 6 34 -4 93 -17
106 -8 9 -13 16 -11 16 3 0 1 17 -3 37 -5 20 -6 42 -2 47 4 6 9 -5 12 -24 4
-20 10 -41 14 -48z m1512 26 c4 -6 -1 -17 -11 -25 -18 -13 -18 -13 1 -13 18
-1 18 -1 1 -11 -9 -5 -22 -7 -27 -4 -6 3 -10 1 -10 -5 0 -6 -4 -9 -9 -6 -10 7
-3 44 12 64 12 15 34 16 43 0z m179 -149 c-4 -5 0 -9 8 -9 10 0 13 -8 9 -25
-2 -14 -9 -25 -14 -25 -5 0 -6 9 -3 20 6 20 -9 28 -20 10 -3 -5 -10 -10 -16
-10 -5 0 -9 5 -9 10 0 6 7 10 15 10 8 0 15 9 15 21 0 11 5 17 10 14 6 -4 8
-11 5 -16z m115 -49 c0 -17 -27 -36 -38 -25 -8 8 20 55 30 49 4 -3 8 -13 8
-24z m-100 -70 c0 -5 -7 -10 -15 -10 -9 0 -12 -6 -9 -15 4 -8 1 -15 -5 -15
-17 0 -13 28 7 39 22 13 22 13 22 1z m20 -2 c0 -19 -18 -44 -25 -36 -4 3 0 15
7 27 15 24 18 26 18 9z m100 -8 c0 -5 -4 -10 -10 -10 -5 0 -10 5 -10 10 0 6 5
10 10 10 6 0 10 -4 10 -10z m93 -90 c4 -16 0 -20 -17 -20 -32 0 -37 9 -18 29
20 21 28 19 35 -9z m-1670 -52 c-13 -12 -26 -18 -30 -14 -4 4 1 14 11 22 31
22 43 17 19 -8z m1697 -13 c-7 -9 -15 -13 -19 -10 -3 3 1 10 9 15 21 14 24 12
10 -5z m-143 -6 c-9 -6 -15 -15 -11 -20 4 -6 11 -6 20 2 8 6 17 9 20 6 3 -3
-8 -13 -25 -21 -16 -9 -32 -13 -34 -8 -9 14 13 52 30 52 17 -1 17 -1 0 -11z
m317 5 c9 -3 16 -10 16 -15 0 -14 -24 -11 -46 6 -16 12 -17 14 -2 15 9 0 23
-3 32 -6z m-1624 -310 c0 -8 -5 -12 -10 -9 -6 4 -8 11 -5 16 9 14 15 11 15 -7z
m59 -66 c13 -36 2 -40 -25 -11 -29 31 -29 33 -4 33 12 0 24 -9 29 -22z m26
-128 c-3 -5 -12 -7 -20 -3 -21 7 -19 13 6 13 11 0 18 -4 14 -10z m31 -82 c-16
-52 -15 -66 4 -71 12 -3 24 1 29 11 17 31 24 3 10 -43 -14 -47 -22 -54 -36
-32 -4 8 -16 16 -25 20 -31 11 -24 127 7 127 8 0 13 -6 11 -12z m66 -143 c0
-5 -5 -11 -11 -13 -6 -2 -11 4 -11 13 0 9 5 15 11 13 6 -2 11 -8 11 -13z m68
-21 c0 -8 -4 -12 -10 -9 -5 3 -10 10 -10 16 0 5 5 9 10 9 6 0 10 -7 10 -16z
m-571 -5 c25 -9 30 -15 26 -30 -4 -10 -2 -19 3 -19 6 0 12 -19 14 -42 3 -24 6
-49 9 -57 2 -7 0 -15 -6 -17 -15 -5 -48 73 -41 99 4 18 -1 27 -24 41 -28 16
-40 36 -21 36 4 0 22 -5 40 -11z m-69 -49 c0 -5 -6 -10 -14 -10 -8 0 -22 -10
-30 -22 l-16 -22 0 22 c0 12 -5 22 -11 22 -5 0 -7 5 -4 10 3 6 22 10 41 10 19
0 34 -4 34 -10z m-186 -146 c9 -24 7 -31 -9 -31 -9 0 -14 6 -11 14 3 7 1 13
-4 13 -6 0 -10 5 -10 10 0 16 27 11 34 -6z m342 -20 c-27 -14 -30 -11 -16 15
9 17 13 19 24 9 11 -10 9 -15 -8 -24z m4 -69 c0 -19 -4 -35 -9 -35 -7 0 -8 35
-3 63 5 20 12 3 12 -28z m911 16 c-17 -11 -4 -19 47 -27 29 -4 42 -3 42 5 0 6
4 11 9 11 13 0 5 -118 -9 -135 -6 -7 -17 -12 -24 -9 -8 3 -16 -5 -20 -21 -5
-18 -12 -25 -21 -21 -8 3 -21 -4 -28 -14 -14 -20 -61 -54 -109 -79 -16 -8 -28
-20 -28 -26 0 -7 -19 -18 -42 -25 -24 -7 -51 -22 -60 -33 -10 -10 -29 -20 -43
-21 -14 0 -25 -4 -25 -8 0 -4 -15 -14 -32 -21 -18 -8 -49 -29 -68 -46 -19 -18
-49 -35 -66 -38 -18 -3 -45 -18 -60 -34 -18 -19 -31 -26 -39 -19 -7 6 -21 0
-42 -18 -17 -15 -49 -43 -72 -62 -22 -19 -41 -40 -41 -47 0 -7 -5 -13 -11 -13
-5 0 -7 -4 -4 -10 6 -10 -7 -14 -32 -11 -12 2 -56 -52 -66 -81 -4 -10 -13 -18
-21 -18 -8 0 -27 -11 -42 -25 -15 -14 -38 -28 -51 -31 -13 -4 -23 -13 -23 -20
0 -8 -11 -19 -24 -24 -42 -16 -146 -96 -240 -185 -39 -37 -82 -65 -176 -112
-19 -10 -36 -21 -38 -25 -7 -16 -42 -7 -52 12 -6 11 -20 20 -30 20 -24 0 -27
25 -4 34 9 4 14 9 10 13 -3 3 6 21 20 40 14 18 20 33 15 33 -17 0 -13 25 7 43
10 9 27 14 38 11 16 -4 27 4 47 35 15 23 32 41 37 41 6 0 10 6 10 13 0 12 86
57 111 57 7 0 31 11 53 24 23 13 53 26 69 30 18 4 27 13 27 26 0 11 6 21 13
21 6 1 17 2 22 4 6 1 18 3 28 3 9 1 17 8 17 16 0 16 53 31 70 21 5 -3 10 2 10
12 0 13 13 22 45 32 25 7 45 16 45 20 0 5 11 13 25 19 15 7 25 20 25 32 0 17
7 20 40 20 28 0 40 4 40 14 0 8 8 17 18 20 10 3 18 16 19 27 3 38 43 60 69 38
9 -7 16 -4 24 10 6 12 15 21 20 21 13 0 60 41 60 52 0 5 -10 4 -22 -2 -20 -9
-21 -9 -4 2 34 23 72 62 99 104 23 34 32 40 52 36 14 -2 32 1 40 8 13 11 13
14 -2 26 -16 12 -15 14 14 20 18 3 40 15 49 25 16 18 16 19 -1 19 -16 0 -15 4
8 28 15 15 27 34 27 40 0 7 7 15 15 18 8 3 30 20 50 38 25 23 45 32 71 33 20
1 40 7 44 14 5 7 23 18 42 24 35 12 51 10 29 -4z m-826 -2 c12 -19 -4 -59 -24
-59 -29 0 -45 25 -31 49 11 22 44 28 55 10z m-13 -114 c4 -20 3 -23 -8 -14
-15 12 -20 54 -5 45 5 -3 11 -17 13 -31z"/>
<path d="M11714 4284 c3 -9 6 -18 6 -20 0 -3 4 -3 10 1 11 7 2 35 -12 35 -6 0
-7 -7 -4 -16z"/>
<path d="M11811 4274 c0 -11 3 -14 6 -6 3 7 2 16 -1 19 -3 4 -6 -2 -5 -13z"/>
<path d="M10493 4245 c4 -8 80 -133 170 -277 148 -237 325 -534 365 -613 8
-16 52 -95 98 -175 73 -129 121 -223 152 -300 10 -23 11 -23 11 -4 1 36 -180
377 -447 839 -78 135 -340 545 -349 545 -3 0 -3 -7 0 -15z"/>
<path d="M10430 3796 c0 -9 5 -16 10 -16 6 0 10 4 10 9 0 6 -4 13 -10 16 -5 3
-10 -1 -10 -9z"/>
<path d="M9916 3762 c-2 -4 4 -14 15 -20 19 -12 19 -11 9 8 -12 22 -16 24 -24
12z"/>
<path d="M10198 3623 c-13 -3 -18 -14 -18 -36 0 -25 7 -36 30 -49 25 -14 30
-14 30 -3 0 8 -9 19 -21 25 -17 10 -18 14 -8 27 14 17 21 44 11 42 -4 -1 -15
-3 -24 -6z"/>
<path d="M9942 3580 c0 -14 2 -19 5 -12 2 6 2 18 0 25 -3 6 -5 1 -5 -13z"/>
<path d="M9823 3549 c-13 -5 -23 -13 -23 -19 0 -16 40 -12 47 5 8 21 2 24 -24
14z"/>
<path d="M10620 3544 c0 -8 5 -12 10 -9 6 4 8 11 5 16 -9 14 -15 11 -15 -7z"/>
<path d="M9855 3500 c-3 -5 -1 -10 4 -10 6 0 11 5 11 10 0 6 -2 10 -4 10 -3 0
-8 -4 -11 -10z"/>
<path d="M10224 3453 l-31 -33 26 -13 c14 -7 25 -20 23 -28 -1 -9 7 -24 18
-34 27 -24 25 -42 -5 -49 -14 -4 -23 -11 -20 -15 12 -20 75 14 75 41 0 4 -10
16 -21 27 -18 17 -21 27 -15 63 4 23 11 47 17 54 7 8 3 13 -13 16 -17 3 -32
-5 -54 -29z"/>
<path d="M10735 3470 c-3 -5 1 -10 10 -10 9 0 13 5 10 10 -3 6 -8 10 -10 10
-2 0 -7 -4 -10 -10z"/>
<path d="M10088 3433 c3 -21 11 -42 18 -46 8 -4 14 -17 14 -27 0 -22 34 -44
55 -36 11 4 10 13 -3 50 -9 25 -22 46 -29 46 -7 0 -20 11 -29 25 -23 35 -31
31 -26 -12z"/>
<path d="M10645 3420 c3 -5 11 -10 16 -10 6 0 7 5 4 10 -3 6 -11 10 -16 10 -6
0 -7 -4 -4 -10z"/>
<path d="M10351 3404 c0 -11 3 -14 6 -6 3 7 2 16 -1 19 -3 4 -6 -2 -5 -13z"/>
<path d="M10656 3373 c-6 -14 -5 -15 5 -6 7 7 10 15 7 18 -3 3 -9 -2 -12 -12z"/>
<path d="M10325 3320 c-3 -5 -1 -10 4 -10 6 0 11 5 11 10 0 6 -2 10 -4 10 -3
0 -8 -4 -11 -10z"/>
<path d="M10321 3281 c-6 -10 -8 -21 -5 -24 9 -9 44 16 44 30 0 20 -28 15 -39
-6z"/>
<path d="M10068 3259 c-31 -16 -38 -25 -38 -49 0 -34 7 -37 26 -12 13 16 14
16 8 0 -12 -36 15 -17 32 22 19 42 34 52 34 23 0 -9 3 -14 6 -10 9 9 -6 47
-19 47 -7 -1 -29 -10 -49 -21z"/>
<path d="M10445 3248 c-4 -10 -24 -19 -51 -23 -24 -3 -44 -11 -44 -17 0 -5 7
-8 15 -4 10 3 15 -1 15 -12 0 -10 -12 -22 -30 -29 -36 -13 -40 -43 -10 -80 15
-19 19 -35 15 -67 l-5 -41 14 30 c9 17 15 36 16 43 0 7 8 16 18 19 9 4 23 15
30 25 9 13 20 16 38 12 17 -4 24 -2 24 9 0 9 -14 17 -35 21 -38 8 -43 17 -20
40 8 8 15 24 15 34 0 11 6 22 13 25 9 4 9 7 0 17 -10 11 -13 10 -18 -2z"/>
<path d="M10268 3220 c2 -16 6 -30 8 -30 2 0 4 14 4 30 0 17 -4 30 -8 30 -5 0
-7 -13 -4 -30z"/>
<path d="M10214 3076 c4 -18 1 -26 -11 -29 -10 -3 -3 -5 15 -6 24 -1 32 3 28
12 -3 6 -9 20 -12 30 -10 26 -27 20 -20 -7z"/>
<path d="M10560 3054 c0 -8 -16 -22 -35 -30 -33 -13 -48 -34 -25 -34 6 0 10
-9 10 -20 0 -21 33 -29 45 -10 3 5 11 7 19 4 9 -3 13 5 13 25 0 17 8 40 18 51
10 11 16 21 14 21 -31 9 -59 6 -59 -7z"/>
<path d="M10420 2945 c7 -9 15 -13 17 -11 7 7 -7 26 -19 26 -6 0 -6 -6 2 -15z"/>
<path d="M11266 2762 c-19 -27 -67 -72 -106 -101 -38 -29 -70 -55 -70 -57 0
-9 70 36 124 78 27 21 56 36 63 34 8 -3 18 5 25 19 6 14 15 25 20 25 4 0 8 11
8 25 0 39 -25 30 -64 -23z"/>
<path d="M10540 2672 c0 -5 7 -13 16 -16 10 -4 14 -1 12 6 -5 15 -28 23 -28
10z"/>
<path d="M10905 2000 c-3 -5 -1 -10 4 -10 6 0 11 5 11 10 0 6 -2 10 -4 10 -3
0 -8 -4 -11 -10z"/>
<path d="M8480 6004 c0 -7 73 -110 165 -234 39 -52 77 -105 85 -116 94 -138
136 -196 156 -215 13 -12 24 -27 24 -32 0 -13 72 -98 78 -92 3 3 -3 15 -14 28
-24 28 -64 85 -64 91 0 3 -27 44 -60 91 -33 47 -60 88 -60 91 0 3 -9 14 -19
26 -11 11 -67 91 -125 177 -59 86 -112 164 -120 174 -12 16 -46 24 -46 11z"/>
<path d="M11330 5978 c11 -18 24 -42 29 -53 5 -12 21 -32 36 -45 14 -14 46
-55 71 -93 40 -60 117 -127 131 -114 2 3 -23 39 -56 79 -34 41 -61 80 -61 86
0 7 -4 12 -10 12 -5 0 -10 6 -10 13 0 6 -16 30 -35 51 -20 21 -43 52 -52 67
-11 18 -26 29 -40 29 l-23 0 20 -32z"/>
<path d="M11710 6001 c0 -10 28 -41 36 -41 2 0 4 11 4 25 0 18 -5 25 -20 25
-11 0 -20 -4 -20 -9z"/>
<path d="M20 5751 c0 -5 7 -16 15 -25 8 -8 15 -32 15 -55 0 -31 4 -41 16 -41
10 0 14 6 11 15 -4 8 -2 17 3 20 16 10 12 35 -5 35 -8 0 -15 8 -15 18 0 19
-18 42 -32 42 -4 0 -8 -4 -8 -9z"/>
<path d="M20 5476 c0 -202 2 -237 14 -233 8 3 31 9 50 13 40 7 47 21 14 26
-16 2 -22 9 -20 21 2 10 -4 38 -13 62 -13 32 -14 48 -6 62 7 13 10 14 11 4 0
-11 3 -12 11 -4 8 8 7 17 -5 34 -9 13 -16 31 -16 41 0 9 -3 19 -7 21 -5 3 -6
-18 -4 -45 2 -32 -1 -48 -7 -44 -6 3 -11 62 -11 138 -1 73 -4 134 -6 137 -3 2
-5 -103 -5 -233z"/>
<path d="M11640 5579 c0 -5 -4 -7 -10 -4 -14 8 -13 5 10 -42 24 -51 207 -323
228 -340 23 -19 43 2 32 31 -14 37 -172 280 -211 325 -37 42 -49 49 -49 30z"/>
<path d="M12037 5298 c-37 -40 -89 -90 -116 -111 -41 -32 -48 -42 -46 -70 1
-18 6 -41 10 -52 28 -75 29 -76 58 -72 15 2 27 0 27 -5 0 -4 10 -8 22 -8 12 0
18 -3 14 -7 -4 -5 -13 -8 -19 -8 -7 0 -12 -16 -12 -40 0 -39 1 -41 27 -37 36
5 63 -15 47 -34 -9 -11 -8 -14 6 -14 10 0 15 -5 12 -14 -3 -7 0 -19 6 -25 8
-8 7 -11 -6 -11 -9 0 -17 -2 -17 -4 0 -13 31 -59 50 -76 22 -19 30 -22 75 -24
14 -1 19 -7 16 -21 -5 -23 -5 -38 -3 -83 2 -25 9 -37 32 -50 16 -9 34 -27 41
-38 10 -19 14 -20 41 -10 26 9 32 8 44 -8 21 -29 17 -54 -13 -80 -22 -19 -24
-24 -10 -29 11 -4 21 1 28 14 8 16 13 18 25 8 18 -15 18 -27 -1 -46 -21 -21
-14 -38 16 -38 19 1 25 -5 27 -21 1 -12 -5 -25 -14 -28 -20 -8 -1 -46 24 -46
32 -1 74 -50 43 -50 -5 0 -8 -11 -7 -25 1 -28 17 -33 36 -10 15 18 42 19 58 3
18 -18 15 -26 -17 -33 -39 -8 -48 -43 -15 -55 15 -6 25 -18 26 -32 2 -41 3
-44 18 -60 14 -15 18 -14 48 4 31 19 35 19 50 5 19 -20 12 -29 -23 -29 -14 0
-25 -4 -25 -8 0 -5 -2 -15 -5 -22 -4 -9 4 -19 18 -25 17 -8 27 -23 31 -49 7
-37 26 -64 45 -64 5 0 11 -11 13 -25 3 -24 4 -24 48 20 53 54 55 55 100 94
l35 30 -24 43 c-29 52 -61 88 -80 88 -9 0 -12 8 -9 24 3 16 -3 34 -18 53 -13
15 -23 32 -24 37 0 14 -44 56 -58 56 -9 0 -12 12 -10 38 3 32 0 37 -17 34 -15
-2 -17 -1 -6 7 12 7 10 15 -8 44 -11 19 -21 42 -21 50 0 9 -9 21 -20 27 -11 6
-20 18 -20 27 0 24 -48 101 -71 113 -13 8 -18 17 -14 30 3 10 1 21 -5 25 -6 3
-20 25 -31 48 -11 23 -40 60 -65 83 -33 31 -45 51 -50 82 -3 23 -15 49 -25 58
-11 9 -19 27 -19 38 0 12 -15 34 -35 50 -20 17 -35 39 -35 51 0 27 -36 75 -56
75 -9 0 -14 11 -14 29 0 16 -6 36 -12 43 -23 25 -58 77 -58 87 0 5 -12 24 -26
41 l-27 31 39 40 c21 21 34 39 28 39 -5 0 -40 -33 -77 -72z m-54 -202 c19 -14
7 -33 -13 -21 -5 3 -10 2 -10 -3 0 -5 -9 -12 -20 -15 -11 -3 -20 -1 -20 4 0 5
4 9 9 9 5 0 11 9 14 20 6 23 15 25 40 6z m177 -65 c0 -6 -4 -13 -10 -16 -5 -3
-10 1 -10 9 0 9 5 16 10 16 6 0 10 -4 10 -9z m91 -220 c7 12 9 12 9 -1 0 -25
-14 -39 -37 -37 -12 0 -20 4 -17 8 2 4 0 10 -6 14 -21 13 -9 24 16 13 21 -10
27 -9 35 3z m4 -171 c-3 -5 -12 -10 -18 -10 -7 0 -6 4 3 10 19 12 23 12 15 0z
m115 -100 c0 -5 -8 -10 -17 -10 -15 0 -16 2 -3 10 19 12 20 12 20 0z m175 -71
c4 -11 4 -23 1 -27 -8 -7 -36 30 -30 40 9 14 23 8 29 -13z m6 -62 c-12 -12
-45 -1 -37 12 3 5 15 7 27 4 13 -4 17 -9 10 -16z m-26 -177 c3 -5 -1 -10 -9
-10 -9 0 -16 5 -16 10 0 6 4 10 9 10 6 0 13 -4 16 -10z m100 -80 c3 -5 1 -10
-4 -10 -6 0 -11 5 -11 10 0 6 2 10 4 10 3 0 8 -4 11 -10z m55 -30 c0 -5 -5
-10 -11 -10 -5 0 -7 5 -4 10 3 6 8 10 11 10 2 0 4 -4 4 -10z m47 -142 c-3 -8
-6 -5 -6 6 -1 11 2 17 5 13 3 -3 4 -12 1 -19z m63 -28 c0 -5 -4 -10 -10 -10
-5 0 -10 5 -10 10 0 6 5 10 10 10 6 0 10 -4 10 -10z"/>
<path d="M9000 5281 c11 -22 30 -37 30 -24 -1 11 -26 43 -34 43 -4 0 -2 -9 4
-19z"/>
<path d="M46 5224 c-9 -8 -16 -21 -16 -27 1 -43 59 -239 73 -245 4 -2 7 -13 7
-24 0 -24 60 -139 69 -133 4 2 7 -5 8 -15 2 -23 71 -118 129 -177 23 -24 39
-43 35 -44 -3 0 3 -4 14 -8 11 -5 25 -4 32 1 7 5 14 5 18 -2 3 -5 -1 -10 -9
-10 -8 0 -18 -5 -22 -12 -5 -7 -2 -9 8 -5 10 3 18 -1 20 -11 3 -10 22 -26 44
-37 21 -11 45 -28 52 -37 7 -10 20 -18 28 -18 8 0 14 -4 14 -8 0 -14 97 -63
112 -57 7 3 22 -1 33 -9 11 -9 15 -16 8 -16 -6 0 -15 5 -18 10 -3 6 -11 10
-16 10 -6 0 -8 -4 -5 -9 6 -9 102 -43 221 -79 69 -21 262 -48 272 -38 3 3 6
124 7 270 l1 266 -45 0 c-45 1 -133 19 -181 38 -21 8 -27 7 -37 -9 -16 -26
-15 -49 3 -49 9 0 15 9 15 21 0 12 5 19 13 16 6 -2 11 -11 9 -20 -1 -8 7 -18
18 -22 25 -8 74 -71 65 -85 -3 -5 -1 -10 4 -10 6 0 11 7 11 15 0 10 10 15 31
15 27 0 30 -3 23 -22 -4 -13 -12 -26 -18 -30 -8 -5 -7 -11 2 -20 6 -6 12 -23
12 -36 0 -32 17 -62 36 -62 10 0 5 -9 -14 -25 -21 -18 -33 -38 -37 -68 -7 -41
-27 -66 -52 -67 -7 0 -13 6 -13 14 0 30 -21 26 -32 -5 -10 -28 -12 -30 -23
-16 -15 21 -35 22 -35 2 0 -18 -12 -19 -29 -2 -10 10 -11 9 -6 -4 7 -19 -8
-32 -43 -37 -16 -2 -23 1 -20 10 3 7 13 13 24 13 10 0 20 7 22 16 2 12 -8 18
-40 23 -23 4 -45 12 -49 18 -4 6 -26 11 -49 12 -28 1 -50 9 -65 24 -12 12 -31
22 -42 22 -23 0 -78 55 -88 88 -4 15 -12 21 -21 18 -10 -4 -18 4 -25 22 -10
26 -11 26 -25 8 -14 -20 -14 -20 -14 0 0 28 -44 52 -63 35 -12 -9 -16 -8 -21
5 -6 16 8 33 27 34 14 0 7 20 -7 20 -8 0 -28 14 -45 31 -17 17 -31 28 -31 24
0 -3 -10 3 -22 14 -23 22 -48 82 -48 118 0 30 -30 59 -41 41 -7 -10 -13 -8
-31 10 -19 18 -21 25 -11 41 14 23 3 36 -39 46 -16 4 -26 11 -23 15 3 5 14 6
25 3 23 -6 25 5 6 32 -7 11 -13 35 -14 52 0 18 -5 48 -11 65 -6 18 -13 45 -16
61 -6 31 -17 34 -39 11z m1017 -481 c-7 -2 -19 -2 -25 0 -7 3 -2 5 12 5 14 0
19 -2 13 -5z m84 -45 c-2 -13 -4 -5 -4 17 -1 22 1 32 4 23 2 -10 2 -28 0 -40z
m3 -153 c0 -9 -6 -12 -15 -9 -8 4 -15 10 -15 15 0 5 7 9 15 9 8 0 15 -7 15
-15z m-643 -51 c-3 -3 -12 -4 -19 -1 -8 3 -5 6 6 6 11 1 17 -2 13 -5z m68 -74
c3 -5 1 -10 -4 -10 -6 0 -11 5 -11 10 0 6 2 10 4 10 3 0 8 -4 11 -10z m42 -26
c-3 -3 -12 -4 -19 -1 -8 3 -5 6 6 6 11 1 17 -2 13 -5z m158 -58 l23 -24 -25 2
c-25 3 -46 24 -37 38 8 13 15 10 39 -16z"/>
<path d="M9040 5224 c0 -7 79 -125 110 -164 16 -20 20 -22 20 -7 0 9 -4 17 -8
17 -5 0 -14 11 -20 25 -12 26 -102 140 -102 129z"/>
<path d="M11760 5075 c-40 -30 -70 -55 -65 -55 8 0 145 99 145 106 0 8 -8 3
-80 -51z"/>
<path d="M9180 5021 c0 -5 5 -13 10 -16 6 -3 10 -2 10 4 0 5 -4 13 -10 16 -5
3 -10 2 -10 -4z"/>
<path d="M630 4996 c0 -9 5 -16 10 -16 6 0 10 4 10 9 0 6 -4 13 -10 16 -5 3
-10 -1 -10 -9z"/>
<path d="M660 4997 c0 -11 9 -21 21 -24 16 -5 20 -12 17 -34 -3 -20 0 -29 9
-29 7 0 13 -6 13 -14 0 -19 30 -29 46 -15 11 9 14 7 14 -10 0 -12 5 -19 10
-16 6 3 10 -1 10 -10 0 -11 5 -15 14 -12 14 6 22 -10 36 -68 l7 -30 2 28 c0
15 8 30 16 33 19 8 20 34 1 34 -16 0 -137 98 -184 150 -25 28 -31 31 -32 17z"/>
<path d="M14835 4980 c-3 -5 -1 -10 4 -10 6 0 11 5 11 10 0 6 -2 10 -4 10 -3
0 -8 -4 -11 -10z"/>
<path d="M15040 4965 c-16 -19 0 -19 26 0 16 12 16 14 3 15 -9 0 -22 -7 -29
-15z"/>
<path d="M170 4930 c0 -5 9 -10 20 -10 11 0 20 5 20 10 0 6 -9 10 -20 10 -11
0 -20 -4 -20 -10z"/>
<path d="M14239 4923 c-13 -16 -12 -17 4 -4 16 13 21 21 13 21 -2 0 -10 -8
-17 -17z"/>
<path d="M14055 4794 c-175 -125 -219 -166 -212 -195 3 -11 -5 -28 -19 -42
-31 -31 -44 -96 -41 -199 2 -76 -1 -89 -27 -137 -52 -97 -87 -302 -55 -322 6
-3 10 -9 9 -13 -1 -3 3 -59 10 -122 15 -136 9 -299 -15 -434 -25 -138 -17
-225 29 -321 19 -42 42 -79 51 -83 9 -3 15 -18 15 -35 0 -21 6 -32 20 -36 11
-3 20 -15 20 -26 0 -10 9 -28 20 -39 11 -11 20 -26 20 -32 1 -14 30 -57 30
-44 0 5 7 3 16 -5 8 -7 13 -21 11 -30 -3 -10 1 -23 9 -29 7 -7 25 -32 39 -56
14 -24 32 -44 40 -44 7 0 17 -9 20 -20 3 -11 11 -20 16 -20 5 0 9 -6 9 -13 0
-7 18 -32 41 -54 22 -23 42 -47 43 -55 6 -35 19 -58 41 -72 14 -9 25 -21 25
-27 0 -11 15 -31 48 -62 13 -12 33 -43 44 -69 13 -31 27 -48 38 -48 26 0 53
-35 45 -59 -5 -16 1 -25 27 -41 60 -35 87 -110 40 -110 -11 0 -25 -6 -31 -14
-28 -33 -331 -86 -498 -86 l-103 0 0 -39 c0 -22 5 -43 11 -47 6 -3 9 -24 7
-45 -2 -24 0 -35 6 -29 5 5 9 26 8 46 -2 47 4 56 28 41 16 -9 24 -9 41 1 15
10 24 11 32 3 18 -18 37 -13 37 9 0 29 36 26 64 -5 13 -14 34 -25 49 -25 17 0
45 -16 77 -45 28 -25 55 -43 59 -41 6 4 16 -6 56 -60 6 -10 27 -22 46 -28 26
-8 34 -17 35 -36 3 -48 78 -154 122 -171 13 -5 22 -17 22 -29 0 -11 6 -20 13
-20 9 0 9 -2 -1 -8 -9 -6 -6 -12 13 -20 17 -8 25 -19 25 -38 0 -16 11 -37 30
-54 17 -15 30 -31 30 -34 0 -3 14 -29 32 -58 17 -29 40 -69 50 -88 16 -31 17
-32 12 -7 -4 17 -2 27 5 27 6 0 11 -4 11 -10 0 -5 18 -28 39 -51 23 -23 38
-46 34 -55 -3 -8 1 -14 10 -14 14 0 32 -42 28 -67 -1 -7 7 -21 19 -33 11 -11
20 -16 20 -10 0 5 5 10 10 10 6 0 10 -7 10 -16 0 -8 5 -12 10 -9 6 4 10 -5 10
-19 0 -19 5 -26 19 -26 13 0 21 -9 25 -33 3 -18 16 -43 29 -57 13 -14 24 -29
25 -35 1 -5 8 -10 15 -10 6 0 15 -8 19 -18 4 -9 14 -17 23 -17 13 0 22 -33 16
-64 -4 -21 22 -67 35 -62 22 9 15 -114 -8 -138 -18 -20 -18 -20 -33 0 -14 19
-14 18 -15 -3 0 -15 -6 -23 -17 -23 -10 0 -26 -12 -36 -25 -18 -25 -18 -25 6
-25 17 0 26 7 30 21 5 17 9 19 25 10 15 -8 36 -5 83 9 35 11 102 31 149 44 97
28 311 103 383 135 27 11 57 21 67 21 10 0 21 4 24 9 3 5 30 15 58 21 29 7 58
17 65 22 7 6 13 4 16 -4 4 -9 8 -10 14 -2 9 13 48 28 78 29 36 3 136 28 141
37 3 4 17 8 32 8 15 0 40 7 56 15 15 8 34 15 41 15 7 0 18 6 24 13 6 8 29 20
50 27 22 7 42 19 45 25 2 7 18 16 35 20 16 3 35 13 42 21 6 8 17 14 23 14 6 1
26 14 45 30 19 16 38 27 42 24 5 -3 14 4 21 16 7 11 16 20 21 20 16 0 144 90
170 120 15 16 34 30 42 30 8 0 30 15 50 32 19 18 56 51 81 73 26 22 59 53 73
69 14 16 40 43 56 61 17 17 46 51 65 74 19 24 47 57 62 75 88 101 146 176 158
206 7 19 26 47 41 62 15 15 39 47 54 72 15 25 31 46 36 46 5 0 8 10 8 23 -1
16 -2 18 -6 5 -2 -10 -9 -18 -15 -18 -9 0 -91 -61 -113 -85 -80 -85 -515 -388
-523 -364 -2 5 -8 9 -14 9 -6 0 -8 -6 -5 -14 6 -16 -36 -42 -52 -32 -5 4 -15
-3 -21 -14 -6 -11 -18 -20 -26 -20 -9 0 -39 -13 -67 -28 -67 -37 -109 -48
-101 -27 4 8 12 15 19 15 14 0 65 39 52 40 -4 0 -37 -13 -72 -30 -35 -16 -67
-30 -70 -30 -10 0 52 50 61 50 16 1 59 38 52 46 -4 3 -22 -2 -40 -13 -42 -24
-128 -57 -134 -50 -6 6 51 49 96 72 19 10 29 20 23 22 -11 4 -61 -15 -125 -48
-10 -5 -25 -9 -34 -9 -18 0 -19 -1 45 53 12 9 26 17 31 17 6 0 10 5 10 10 0 6
8 10 18 11 10 0 12 3 5 6 -7 2 -28 -5 -47 -16 -18 -12 -43 -21 -55 -21 -11 0
-21 -4 -21 -10 0 -5 -16 -10 -36 -10 l-35 0 28 26 c15 14 34 29 43 34 8 5 12
11 8 15 -6 6 -54 -11 -101 -36 -11 -6 -24 -6 -34 -1 -13 8 -10 12 20 26 35 17
78 56 61 56 -5 0 -31 -11 -58 -25 -52 -26 -76 -31 -76 -15 0 10 103 82 134 94
10 3 16 9 13 13 -4 3 -22 -2 -41 -11 -19 -9 -41 -16 -50 -16 -9 0 -16 -4 -16
-9 0 -9 -20 -17 -72 -31 -51 -14 -21 38 40 70 41 21 15 23 -30 3 -106 -49
-136 -30 -43 26 55 33 83 58 48 43 -10 -5 -36 -16 -57 -26 -48 -21 -106 -32
-106 -20 0 5 20 20 45 34 25 14 45 27 45 31 0 3 -25 -2 -57 -12 -66 -22 -63
-22 -63 -9 0 5 18 22 40 36 22 15 39 29 37 30 -2 2 -29 -5 -60 -15 -33 -12
-59 -16 -62 -10 -4 5 23 28 59 51 36 23 64 43 62 45 -1 2 -27 -8 -57 -21 -132
-59 -150 -32 -26 39 53 30 57 46 5 22 -96 -44 -118 -49 -118 -25 0 4 19 20 41
35 51 33 38 41 -24 14 -43 -18 -78 -19 -77 -2 1 7 67 50 117 75 17 9 34 20 37
25 9 14 -35 0 -64 -19 -30 -21 -97 -50 -116 -50 -27 0 -15 37 16 50 17 7 30
16 30 21 0 5 6 9 13 9 16 0 81 40 74 46 -4 4 -57 -20 -149 -67 -26 -13 -35
-11 -41 10 -3 14 3 23 24 32 41 17 46 30 7 17 -84 -27 -117 -17 -63 18 29 19
34 40 6 24 -25 -13 -71 -13 -71 0 0 6 11 16 25 22 28 13 35 34 8 23 -10 -4
-34 -9 -53 -13 -31 -5 -34 -4 -22 11 17 21 6 40 -19 32 -11 -4 -19 -2 -19 4 0
6 5 11 11 11 5 0 8 4 4 9 -3 5 3 12 12 15 10 4 29 16 43 27 27 23 28 23 -62
-11 -49 -19 -66 -16 -46 7 14 17 7 23 -28 26 -16 1 -27 7 -25 12 6 13 47 45
58 45 4 1 22 12 38 26 l30 25 -40 -17 c-22 -9 -44 -20 -50 -24 -5 -4 -25 -11
-42 -15 -36 -7 -45 8 -20 34 10 11 5 13 -26 8 -34 -5 -36 -4 -27 14 6 10 16
19 22 19 8 0 9 3 2 10 -7 7 -19 8 -37 1 -19 -7 -27 -7 -27 0 0 6 -4 7 -10 4
-5 -3 -10 -1 -10 4 0 6 9 16 20 23 31 20 24 31 -15 24 -37 -7 -45 3 -20 24 25
21 17 29 -17 19 -40 -11 -41 -11 -33 0 3 5 0 13 -6 17 -8 5 -4 13 12 25 29 22
18 36 -16 21 -32 -15 -58 -16 -50 -2 3 6 0 10 -7 10 -7 0 -2 9 12 20 32 24 21
34 -23 22 -31 -9 -35 -8 -30 6 3 10 15 28 27 41 l21 24 -25 -5 c-14 -3 -32 -9
-41 -12 -23 -10 -35 25 -15 40 24 17 19 27 -10 20 -16 -4 -32 -2 -42 6 -13 11
-15 10 -9 -4 3 -10 2 -18 -3 -18 -20 0 -9 24 23 52 30 28 31 29 7 23 -65 -17
-66 -17 -67 4 -1 12 7 26 19 32 35 19 5 34 -31 16 -30 -15 -31 -15 -31 5 0 12
7 30 17 40 15 17 15 18 -1 18 -10 0 -26 -5 -37 -10 -30 -17 -37 15 -8 39 32
26 20 35 -22 17 -33 -14 -35 -13 -35 5 0 10 3 19 6 19 3 0 11 9 18 20 11 19
10 20 -11 15 -26 -7 -57 18 -37 30 18 11 11 22 -13 18 -13 -3 -29 2 -36 11
-10 12 -9 17 8 28 42 26 21 35 -30 14 -11 -5 -18 -1 -22 14 -3 13 0 23 9 27 8
3 14 11 14 18 0 10 -7 11 -29 5 -42 -12 -57 7 -29 37 26 28 20 37 -15 24 -20
-8 -28 -6 -41 8 -16 17 -15 19 9 35 33 22 33 38 -1 25 -15 -5 -35 -7 -46 -3
-19 6 -18 8 9 36 l28 30 -31 -6 c-25 -6 -33 -3 -38 10 -4 10 -2 22 4 28 17 17
11 26 -19 26 -27 0 -29 2 -24 36 4 31 2 36 -11 31 -19 -8 -37 22 -30 50 4 15
0 22 -15 26 -14 3 -21 13 -21 30 0 15 -10 34 -25 45 -15 12 -23 26 -19 35 3 9
-2 20 -13 25 -28 15 -26 51 5 78 31 27 14 33 -31 9 -27 -14 -28 -14 -21 7 5
17 3 20 -10 15 -24 -10 -19 5 11 31 l27 23 -44 -7 -45 -7 19 22 c21 24 18 31
-13 34 -28 2 -27 28 4 61 14 15 25 29 25 32 0 5 -24 -1 -57 -13 -7 -3 -13 2
-13 11 0 10 -5 13 -17 9 -10 -4 2 10 25 32 41 36 43 37 57 19 8 -10 15 -26 15
-34 1 -9 5 -5 10 8 6 13 7 57 3 99 -6 70 -7 73 -18 47 -7 -16 -10 -34 -8 -40
2 -7 0 -15 -6 -19 -6 -3 -11 -1 -11 4 0 6 -5 11 -11 11 -6 0 -9 -6 -6 -12 2
-7 -3 -18 -12 -25 -18 -14 -51 -17 -51 -5 1 14 27 42 40 42 7 0 10 7 6 16 -3
9 -6 18 -6 20 0 7 -35 4 -46 -3 -5 -5 1 2 13 14 34 32 29 46 -9 27 l-33 -17
25 26 c25 26 50 35 50 18 0 -5 7 -26 16 -47 15 -34 18 -37 25 -19 11 28 11
145 0 145 -11 0 -2 70 11 87 5 7 5 24 -1 45 -8 30 -9 31 -11 8 -1 -14 -2 -31
-1 -39 4 -26 -23 -4 -34 29 -12 36 -35 53 -35 26 0 -9 -4 -16 -9 -16 -5 0 -18
-3 -28 -6 -11 -4 -5 5 15 24 19 18 32 41 32 55 0 13 7 39 16 57 10 18 18 46
20 62 3 23 0 28 -18 28 l-21 0 22 24 c13 14 33 26 44 28 11 2 22 8 24 15 3 7
-17 1 -44 -12 -26 -14 -53 -25 -59 -25 -5 0 -21 -10 -34 -22 -29 -27 -91 -33
-82 -8 10 25 97 109 125 119 15 6 27 15 27 20 0 14 -21 25 -29 15 -3 -5 -14
-13 -23 -19 -10 -5 -42 -28 -73 -49 -31 -21 -58 -36 -61 -33 -7 6 38 51 74 75
43 27 62 46 62 59 0 7 -2 13 -5 13 -12 0 -84 -40 -90 -50 -10 -17 -85 -51 -96
-44 -6 3 1 16 16 29 43 41 31 54 -27 30 -22 -9 -24 11 -3 31 23 23 18 34 -15
34 -33 0 -38 11 -15 30 8 7 15 22 15 34 0 16 2 18 9 7 8 -13 12 -13 28 -1 44
34 72 64 67 72 -4 5 6 23 22 39 15 16 26 29 23 28 -2 0 -76 -52 -164 -115z
m260 -564 c3 -5 -1 -10 -10 -10 -9 0 -13 5 -10 10 3 6 8 10 10 10 2 0 7 -4 10
-10z m7 -58 c-2 -17 -13 -32 -29 -39 -22 -11 -24 -10 -18 5 4 9 8 22 9 27 7
41 44 48 38 7z m58 -91 c0 -6 -4 -13 -10 -16 -5 -3 -10 1 -10 9 0 9 5 16 10
16 6 0 10 -4 10 -9z m-73 -28 c-9 -9 -20 -13 -24 -9 -4 4 -1 11 7 16 25 16 35
11 17 -7z"/>
<path d="M665 4890 c-3 -5 -1 -10 4 -10 6 0 11 5 11 10 0 6 -2 10 -4 10 -3 0
-8 -4 -11 -10z"/>
<path d="M14230 4890 c-8 -5 -12 -12 -9 -15 4 -3 12 1 19 10 14 17 11 19 -10
5z"/>
<path d="M14520 4840 c0 -5 5 -10 10 -10 6 0 10 5 10 10 0 6 -4 10 -10 10 -5
0 -10 -4 -10 -10z"/>
<path d="M14980 4805 c-13 -16 -3 -20 24 -9 9 3 13 10 10 15 -8 13 -20 11 -34
-6z"/>
<path d="M11295 4760 c-3 -5 -1 -10 4 -10 6 0 11 5 11 10 0 6 -2 10 -4 10 -3
0 -8 -4 -11 -10z"/>
<path d="M14138 4746 c-19 -14 -24 -36 -10 -36 5 0 19 11 32 25 26 27 9 35
-22 11z"/>
<path d="M14370 4739 c0 -5 5 -7 10 -4 6 3 10 8 10 11 0 2 -4 4 -10 4 -5 0
-10 -5 -10 -11z"/>
<path d="M11300 4706 c0 -16 27 -29 41 -20 5 3 12 -1 15 -10 3 -8 12 -12 20
-9 12 5 11 10 -7 29 -25 26 -69 33 -69 10z"/>
<path d="M14179 4692 c-13 -11 -18 -21 -12 -25 6 -4 21 5 33 18 27 29 13 33
-21 7z"/>
<path d="M14325 4700 c-3 -5 -2 -10 4 -10 5 0 13 5 16 10 3 6 2 10 -4 10 -5 0
-13 -4 -16 -10z"/>
<path d="M14397 4683 c-4 -3 -7 -11 -7 -17 0 -6 5 -5 12 2 6 6 9 14 7 17 -3 3
-9 2 -12 -2z"/>
<path d="M14569 4593 c-43 -53 -80 -115 -77 -131 5 -26 23 -21 26 8 2 14 8 30
14 35 7 7 9 0 6 -23 -6 -43 8 -51 17 -10 4 18 11 38 16 43 4 6 8 20 7 30 -1
11 2 30 6 43 9 27 4 28 -15 5z"/>
<path d="M15358 4593 c7 -3 16 -2 19 1 4 3 -2 6 -13 5 -11 0 -14 -3 -6 -6z"/>
<path d="M14660 4569 c0 -5 5 -7 10 -4 6 3 10 8 10 11 0 2 -4 4 -10 4 -5 0
-10 -5 -10 -11z"/>
<path d="M11945 4530 c3 -5 8 -10 11 -10 2 0 4 5 4 10 0 6 -5 10 -11 10 -5 0
-7 -4 -4 -10z"/>
<path d="M15390 4520 c0 -5 5 -10 10 -10 6 0 10 5 10 10 0 6 -4 10 -10 10 -5
0 -10 -4 -10 -10z"/>
<path d="M14376 4394 c-9 -24 -2 -26 12 -4 7 11 8 20 3 20 -5 0 -12 -7 -15
-16z"/>
<path d="M900 4370 c0 -5 5 -10 10 -10 6 0 10 5 10 10 0 6 -4 10 -10 10 -5 0
-10 -4 -10 -10z"/>
<path d="M0 4065 l0 -265 53 0 c111 0 265 -60 364 -142 152 -126 233 -298 233
-495 0 -123 -13 -180 -67 -292 -36 -76 -59 -108 -117 -166 -115 -113 -274
-184 -413 -185 l-53 0 0 -270 0 -270 69 0 c138 0 327 44 467 110 339 157 588
479 658 850 20 104 21 323 2 423 -73 378 -317 697 -658 857 -147 68 -325 110
-474 110 l-64 0 0 -265z"/>
<path d="M14354 4304 c3 -9 6 -18 6 -20 0 -2 5 -4 10 -4 6 0 10 9 10 20 0 12
-7 20 -16 20 -11 0 -14 -5 -10 -16z"/>
<path d="M14443 4188 c-13 -6 -23 -15 -23 -20 0 -14 16 -9 35 12 20 22 19 23
-12 8z"/>
<path d="M14411 4116 c-7 -8 -8 -17 -3 -20 6 -3 13 1 16 10 9 23 2 28 -13 10z"/>
<path d="M14421 4086 c-15 -18 1 -87 24 -106 8 -7 15 -23 15 -35 0 -14 7 -25
20 -28 14 -3 20 -14 20 -31 0 -31 -2 -30 38 -10 18 8 32 22 32 30 0 17 -5 17
-29 4 -14 -7 -23 -5 -36 10 -18 20 -17 21 5 45 23 24 16 37 -8 13 -17 -17 -40
6 -48 48 -3 19 -11 34 -17 34 -7 0 -7 4 1 12 7 7 12 16 12 20 0 13 -16 9 -29
-6z"/>
<path d="M12431 3913 c7 -12 15 -20 18 -17 3 2 -3 12 -13 22 -17 16 -18 16 -5
-5z"/>
<path d="M14450 3875 c-3 -33 -3 -88 -2 -122 2 -26 5 -30 22 -26 12 3 22 -1
26 -11 3 -9 10 -16 14 -16 9 0 -23 113 -46 165 -10 24 -13 26 -14 10z"/>
<path d="M12887 3825 c-17 -24 -17 -25 3 -25 15 0 20 6 20 25 0 30 -1 30 -23
0z"/>
<path d="M14585 3840 c4 -6 11 -8 16 -5 14 9 11 15 -7 15 -8 0 -12 -5 -9 -10z"/>
<path d="M14665 3820 c-3 -5 1 -10 10 -10 9 0 13 5 10 10 -3 6 -8 10 -10 10
-2 0 -7 -4 -10 -10z"/>
<path d="M12825 3760 c-10 -11 -14 -20 -8 -20 5 0 18 9 28 20 10 11 14 20 8
20 -5 0 -18 -9 -28 -20z"/>
<path d="M14710 3749 c0 -5 5 -7 10 -4 6 3 10 8 10 11 0 2 -4 4 -10 4 -5 0
-10 -5 -10 -11z"/>
<path d="M12545 3739 c-10 -15 3 -25 16 -12 7 7 7 13 1 17 -6 3 -14 1 -17 -5z"/>
<path d="M14546 3703 c8 -35 13 -43 24 -43 4 0 3 16 -3 35 -12 41 -30 48 -21
8z"/>
<path d="M14590 3711 c0 -6 4 -13 10 -16 6 -3 7 1 4 9 -7 18 -14 21 -14 7z"/>
<path d="M14610 3666 c0 -9 5 -16 10 -16 6 0 10 4 10 9 0 6 -4 13 -10 16 -5 3
-10 -1 -10 -9z"/>
<path d="M14672 3628 c2 -6 14 -15 26 -19 20 -7 21 -6 9 11 -13 21 -41 28 -35
8z"/>
<path d="M16256 3591 c-7 -10 49 -61 67 -61 6 0 -4 16 -23 35 -38 39 -37 38
-44 26z"/>
<path d="M14690 3560 c0 -5 5 -10 11 -10 5 0 7 5 4 10 -3 6 -8 10 -11 10 -2 0
-4 -4 -4 -10z"/>
<path d="M14730 3542 c0 -4 15 -13 33 -19 l32 -12 -24 19 c-24 21 -41 26 -41
12z"/>
<path d="M14495 3510 c-3 -5 1 -10 9 -10 9 0 16 5 16 10 0 6 -4 10 -9 10 -6 0
-13 -4 -16 -10z"/>
<path d="M14545 3450 c-3 -5 3 -10 14 -10 12 0 21 5 21 10 0 6 -6 10 -14 10
-8 0 -18 -4 -21 -10z"/>
<path d="M15090 3435 c7 -9 15 -13 17 -11 7 7 -7 26 -19 26 -6 0 -6 -6 2 -15z"/>
<path d="M16486 3405 c25 -19 40 -19 24 0 -7 8 -20 15 -28 15 -13 0 -12 -3 4
-15z"/>
<path d="M14623 3396 c-13 -6 -23 -19 -23 -29 0 -17 3 -16 29 5 44 35 41 48
-6 24z"/>
<path d="M14690 3329 c0 -5 5 -7 10 -4 6 3 10 8 10 11 0 2 -4 4 -10 4 -5 0
-10 -5 -10 -11z"/>
<path d="M15450 3333 c0 -4 5 -15 10 -23 8 -13 10 -13 10 2 0 9 -4 20 -10 23
-5 3 -10 3 -10 -2z"/>
<path d="M14655 3310 c-3 -5 -2 -10 4 -10 5 0 13 5 16 10 3 6 2 10 -4 10 -5 0
-13 -4 -16 -10z"/>
<path d="M14800 3140 c-8 -5 -12 -12 -9 -15 4 -3 12 1 19 10 14 17 11 19 -10
5z"/>
<path d="M15070 2800 c-19 -11 -31 -19 -27 -20 11 0 67 29 67 35 0 7 -1 7 -40
-15z"/>
<path d="M15190 2620 c-9 -6 -10 -10 -3 -10 6 0 15 5 18 10 8 12 4 12 -15 0z"/>
<path d="M15280 2510 c-9 -6 -10 -10 -3 -10 6 0 15 5 18 10 8 12 4 12 -15 0z"/>
<path d="M15370 2398 c-16 -7 -20 -12 -12 -15 8 -3 21 2 30 11 19 18 17 19
-18 4z"/>
<path d="M15470 2219 c0 -5 5 -7 10 -4 6 3 10 8 10 11 0 2 -4 4 -10 4 -5 0
-10 -5 -10 -11z"/>
<path d="M15650 2190 c0 -5 7 -7 15 -4 8 4 15 8 15 10 0 2 -7 4 -15 4 -8 0
-15 -4 -15 -10z"/>
<path d="M15805 2000 c-3 -6 1 -7 9 -4 18 7 21 14 7 14 -6 0 -13 -4 -16 -10z"/>
<path d="M15841 1956 c-10 -12 -8 -13 8 -9 12 3 21 9 21 14 0 14 -16 11 -29
-5z"/>
<path d="M12369 1936 c-258 -54 -485 -242 -603 -497 -132 -286 -78 -646 135
-882 56 -63 165 -154 215 -180 109 -56 286 -98 414 -98 312 0 597 175 735 450
44 87 61 142 79 246 18 109 19 171 1 270 -21 121 -24 131 -70 230 -99 212
-272 361 -512 441 -97 32 -289 42 -394 20z m-52 -202 c-3 -3 -12 -4 -19 -1 -8
3 -5 6 6 6 11 1 17 -2 13 -5z m-37 -22 c0 -9 -44 -32 -58 -32 -10 1 38 40 49
40 5 0 9 -4 9 -8z m-103 -59 c6 -16 -35 -36 -55 -28 -15 5 -13 9 8 25 26 21
41 21 47 3z m-132 -93 c-21 -16 -41 -30 -44 -30 -9 1 62 60 72 60 6 0 -7 -13
-28 -30z m-65 -30 c0 -5 -5 -10 -11 -10 -5 0 -7 5 -4 10 3 6 8 10 11 10 2 0 4
-4 4 -10z m-30 -30 c0 -5 -4 -10 -10 -10 -5 0 -10 5 -10 10 0 6 5 10 10 10 6
0 10 -4 10 -10z m1290 -527 c-17 -77 -78 -208 -127 -274 -83 -112 -227 -222
-355 -271 -108 -41 -280 -60 -348 -38 -23 7 -22 8 10 9 19 1 73 8 120 16 77
12 100 18 180 41 44 13 173 85 220 123 116 93 226 243 245 333 4 15 11 30 16
33 5 4 9 17 9 31 0 13 4 24 9 24 5 0 13 9 16 21 14 43 18 7 5 -48z m-108 -59
c-44 -113 -156 -254 -258 -325 -93 -64 -214 -108 -314 -114 -41 -2 -64 -2 -50
1 105 20 198 52 295 102 120 62 298 261 330 370 4 13 9 21 11 19 3 -2 -4 -26
-14 -53z m-82 -197 c0 -2 -12 -14 -27 -28 l-28 -24 24 28 c23 25 31 32 31 24z
m-70 -70 c0 -2 -10 -12 -22 -23 l-23 -19 19 23 c18 21 26 27 26 19z m-71 -65
c-30 -22 -98 -62 -107 -62 -10 0 111 79 122 80 5 0 -2 -8 -15 -18z m-124 -72
c-3 -5 -11 -10 -16 -10 -6 0 -7 5 -4 10 3 6 11 10 16 10 6 0 7 -4 4 -10z
m-440 -100 c3 -6 -1 -7 -9 -4 -18 7 -21 14 -7 14 6 0 13 -4 16 -10z m62 -44
c8 -8 -24 -6 -62 5 -26 7 -24 7 13 5 23 -2 46 -6 49 -10z"/>
<path d="M15875 1900 c-3 -6 1 -7 9 -4 18 7 21 14 7 14 -6 0 -13 -4 -16 -10z"/>
<path d="M20 1566 l0 -273 28 -1 c15 0 33 5 40 10 8 7 12 7 12 -1 0 -6 9 -11
20 -11 10 0 29 -4 42 -9 13 -5 41 -14 63 -20 22 -7 59 -22 81 -33 50 -24 74
-16 63 22 l-7 25 -1 -27 c-1 -25 -21 -42 -21 -18 0 5 -11 12 -25 16 -14 3 -25
10 -25 15 0 5 -12 9 -27 9 l-28 0 29 19 28 19 -21 12 c-18 9 -27 8 -44 -3 -28
-18 -53 -12 -36 9 10 12 8 16 -9 21 -11 3 -25 18 -31 34 -7 20 -17 29 -32 29
-15 0 -19 5 -15 15 8 22 -4 45 -23 45 -14 0 -14 2 -1 10 13 9 10 14 -15 35
l-30 25 28 0 c16 0 26 4 22 10 -3 5 8 24 25 40 18 18 29 37 26 46 -4 10 2 14
22 15 17 1 20 3 10 6 -10 2 -18 8 -18 13 0 5 -10 11 -22 13 l-23 4 23 8 c12 4
22 11 22 16 0 5 4 9 9 9 5 0 7 -9 4 -20 -4 -14 0 -20 11 -20 9 0 16 7 16 16 0
9 9 18 20 21 11 3 20 14 20 24 0 11 7 19 15 19 8 0 15 5 15 12 0 6 8 2 18 -9
9 -11 26 -23 37 -27 13 -5 15 -10 8 -13 -9 -3 -10 -10 -3 -22 6 -13 17 -16 38
-13 19 2 35 -2 47 -15 11 -10 35 -19 57 -20 37 -1 78 -30 78 -55 0 -4 7 -8 15
-8 16 0 11 25 -12 51 -11 14 -11 18 2 29 9 7 18 10 22 6 3 -3 1 -6 -5 -6 -20
0 -13 -29 8 -40 14 -8 19 -17 15 -30 -6 -19 -1 -22 63 -35 18 -4 37 -16 43
-27 7 -14 14 -17 21 -10 18 18 38 2 32 -24 -5 -20 -2 -24 17 -24 13 0 35 -9
48 -19 20 -15 21 -19 7 -24 -9 -4 -16 -2 -16 3 0 6 -5 10 -11 10 -26 0 23 -45
51 -46 50 -3 57 19 18 65 -18 23 -37 41 -41 41 -5 0 -25 17 -45 38 -57 59
-124 104 -133 90 -6 -9 -10 -7 -15 7 -10 25 -34 44 -56 45 -10 0 -18 3 -18 8
0 4 -15 13 -32 20 -18 7 -41 18 -51 23 -59 32 -255 82 -324 83 -34 1 -55 4
-45 8 10 4 -3 7 -30 7 l-48 1 0 -274z m185 174 c4 -6 -5 -10 -19 -10 -14 0
-26 5 -26 10 0 6 9 10 19 10 11 0 23 -4 26 -10z m-85 -110 c0 -5 -9 -10 -21
-10 -11 0 -17 5 -14 10 3 6 13 10 21 10 8 0 14 -4 14 -10z m660 -120 c0 -5 -4
-10 -10 -10 -5 0 -10 5 -10 10 0 6 5 10 10 10 6 0 10 -4 10 -10z"/>
<path d="M16000 1740 c0 -5 7 -7 15 -4 8 4 15 8 15 10 0 2 -7 4 -15 4 -8 0
-15 -4 -15 -10z"/>
<path d="M16125 1590 c-3 -5 -1 -10 4 -10 6 0 11 5 11 10 0 6 -2 10 -4 10 -3
0 -8 -4 -11 -10z"/>
<path d="M16435 1480 c-3 -5 1 -10 10 -10 9 0 13 5 10 10 -3 6 -8 10 -10 10
-2 0 -7 -4 -10 -10z"/>
<path d="M16400 1449 c0 -5 5 -7 10 -4 6 3 10 8 10 11 0 2 -4 4 -10 4 -5 0
-10 -5 -10 -11z"/>
<path d="M896 1404 c-9 -23 -7 -36 4 -29 6 3 10 -1 10 -9 0 -12 -5 -14 -26 -6
-14 6 -31 10 -37 9 -7 0 0 -5 14 -10 14 -5 31 -21 37 -34 7 -14 16 -25 22 -25
5 0 10 -7 10 -16 0 -8 4 -13 9 -10 14 9 34 -22 28 -44 -3 -13 0 -20 10 -20 8
0 13 -7 11 -18 -1 -10 10 -31 25 -47 31 -35 34 -50 10 -60 -17 -6 -17 -7 0
-20 11 -8 25 -11 33 -8 16 6 19 -8 4 -23 -12 -12 14 -90 29 -86 6 1 12 -8 12
-20 1 -13 2 -30 3 -38 1 -8 5 -21 9 -28 5 -7 8 -43 6 -80 -2 -55 2 -74 20
-104 13 -21 26 -38 30 -38 11 0 12 98 1 105 -6 3 -10 36 -10 73 0 37 -7 92
-16 122 -8 30 -19 70 -24 89 -9 37 -121 264 -144 295 -8 10 -20 15 -26 11 -13
-8 -30 11 -30 34 0 11 4 9 15 -5 8 -10 15 -15 15 -10 0 4 -11 21 -24 37 -19
23 -25 25 -30 13z"/>
<path d="M13832 1395 c0 -16 2 -22 5 -12 2 9 2 23 0 30 -3 6 -5 -1 -5 -18z"/>
<path d="M16440 1399 c0 -5 5 -7 10 -4 6 3 10 8 10 11 0 2 -4 4 -10 4 -5 0
-10 -5 -10 -11z"/>
<path d="M16617 1363 c-12 -12 -7 -22 8 -17 8 4 15 10 15 15 0 11 -14 12 -23
2z"/>
<path d="M16655 1310 c-8 -13 5 -13 25 0 13 8 13 10 -2 10 -9 0 -20 -4 -23
-10z"/>
<path d="M308 1283 c12 -2 30 -2 40 0 9 3 -1 5 -23 4 -22 0 -30 -2 -17 -4z"/>
<path d="M13837 1273 c-3 -5 0 -19 8 -29 15 -20 18 -11 6 20 -4 11 -10 15 -14
9z"/>
<path d="M16685 1260 c-16 -11 -26 -20 -22 -20 11 0 67 29 67 35 0 10 -16 4
-45 -15z"/>
<path d="M16723 1230 c-18 -11 -33 -22 -33 -25 0 -2 16 5 35 16 19 12 35 23
35 25 0 6 -3 5 -37 -16z"/>
<path d="M380 1199 c-13 -8 -13 -11 2 -19 9 -6 24 -17 32 -25 8 -8 19 -15 25
-15 17 0 13 25 -6 42 -29 24 -38 27 -53 17z"/>
<path d="M13880 1201 c0 -5 5 -13 10 -16 6 -3 10 -2 10 4 0 5 -4 13 -10 16 -5
3 -10 2 -10 -4z"/>
<path d="M470 1100 c12 -17 28 -30 35 -30 8 0 12 -6 9 -13 -3 -8 2 -19 10 -26
13 -11 16 -9 22 13 3 14 11 26 17 26 24 0 -56 54 -84 57 l-30 3 21 -30z"/>
<path d="M570 1016 c0 -9 5 -16 10 -16 6 0 10 4 10 9 0 6 -4 13 -10 16 -5 3
-10 -1 -10 -9z"/>
<path d="M551 994 c0 -11 3 -14 6 -6 3 7 2 16 -1 19 -3 4 -6 -2 -5 -13z"/>
<path d="M574 969 c-2 -4 0 -16 6 -26 5 -10 15 -31 22 -48 9 -26 12 -27 16
-10 2 11 11 24 19 31 12 8 13 15 5 31 -12 21 -59 37 -68 22z"/>
<path d="M14770 925 c0 -8 7 -15 16 -15 14 0 14 3 4 15 -7 8 -14 15 -16 15 -2
0 -4 -7 -4 -15z"/>
<path d="M620 832 c0 -31 11 -52 26 -52 8 0 14 -9 14 -21 0 -11 4 -17 10 -14
12 7 -11 68 -35 91 -13 14 -15 13 -15 -4z"/>
<path d="M640 363 c0 -219 4 -363 9 -363 6 0 7 15 4 34 -4 29 -2 34 18 40 22
6 23 7 7 20 -18 14 -24 27 -10 24 4 0 18 3 31 9 20 8 21 11 8 16 -11 4 -17 18
-17 35 0 20 -8 35 -22 45 -22 14 -22 15 -5 34 21 24 22 43 2 43 -8 0 -15 5
-15 10 0 6 15 10 33 10 32 1 32 1 8 14 l-24 13 24 17 24 16 -22 6 c-26 7 -30
22 -8 30 8 4 15 13 15 20 0 11 -5 12 -18 5 -16 -9 -18 -6 -14 22 3 18 8 34 13
37 4 3 11 18 14 33 6 23 4 27 -13 27 -28 0 -37 16 -12 23 26 7 26 37 0 44 -24
6 -28 60 -5 69 22 9 18 30 -5 30 -20 0 -20 -7 -20 -363z"/>
<path d="M1114 648 c-4 -5 -1 -14 6 -18 8 -5 11 -23 8 -49 -3 -34 -1 -41 14
-41 10 0 18 -4 18 -10 0 -10 -9 -13 -41 -13 -11 0 -14 -7 -11 -23 5 -26 22
-33 22 -9 0 8 4 15 9 15 11 0 2 -118 -11 -142 -9 -19 -2 -65 14 -85 10 -13 2
-53 -11 -53 -4 0 -7 -49 -7 -110 l1 -110 27 0 26 0 -1 310 c-1 248 -3 310 -14
310 -7 0 -13 6 -13 14 0 18 -27 29 -36 14z"/>
<path d="M14261 553 c-29 -125 -116 -250 -319 -455 l-96 -98 80 0 79 0 76 78
c145 146 237 282 259 380 12 52 12 53 -21 102 -19 27 -36 50 -39 50 -3 0 -11
-26 -19 -57z"/>
<path d="M14580 211 c0 -6 4 -13 10 -16 6 -3 7 1 4 9 -7 18 -14 21 -14 7z"/>
<path d="M14984 195 c-4 -8 -13 -15 -22 -15 -8 0 -13 -3 -9 -6 3 -4 14 -3 24
1 10 5 21 7 26 7 4 -1 7 5 7 13 0 8 -5 15 -10 15 -6 0 -13 -7 -16 -15z"/>
<path d="M14623 162 c-8 -5 -9 -12 -2 -22 7 -13 10 -13 18 -1 6 9 11 10 15 2
4 -6 2 -11 -3 -11 -6 0 -11 -4 -11 -10 0 -13 57 -13 65 0 3 6 -1 10 -9 10 -9
0 -16 5 -16 10 0 6 6 10 13 10 8 0 7 4 -3 10 -18 12 -50 13 -67 2z"/>
<path d="M14804 160 c-3 -2 -20 -3 -39 -2 -19 2 -35 -1 -35 -6 0 -13 73 -23
84 -12 6 6 21 10 36 10 14 0 30 4 37 8 6 4 -9 7 -34 7 -24 0 -47 -2 -49 -5z"/>
</g>
</svg>
