<?xml version="1.0" standalone="no"?>
<!DOCTYPE svg PUBLIC "-//W3C//DTD SVG 20010904//EN"
 "http://www.w3.org/TR/2001/REC-SVG-20010904/DTD/svg10.dtd">
<svg version="1.0" xmlns="http://www.w3.org/2000/svg"
 width="1902.000000pt" height="601.000000pt" viewBox="0 0 1902.000000 601.000000"
 preserveAspectRatio="xMidYMid meet">

<g transform="translate(0.000000,601.000000) scale(0.100000,-0.100000)"
fill="#000000" stroke="none">
<path d="M0 5644 l0 -347 2862 6 c1573 4 2863 9 2866 12 3 3 -18 5 -46 5 -28
0 -54 5 -57 10 -3 6 0 10 8 10 13 0 13 6 4 35 -9 29 -15 35 -39 35 -16 0 -39
-7 -51 -15 -15 -9 -27 -11 -37 -5 -8 5 -10 10 -4 10 7 0 14 9 17 20 6 25 -4
25 -54 0 -33 -17 -57 -20 -98 -11 -2 1 2 8 9 16 11 13 8 15 -14 15 -14 0 -26
-4 -26 -8 0 -4 -12 -9 -26 -10 -20 -1 -25 2 -20 13 3 8 1 15 -4 15 -6 0 -10
-7 -10 -15 0 -8 -4 -15 -10 -15 -5 0 -10 5 -10 10 0 6 -7 10 -15 10 -9 0 -29
7 -45 15 -26 13 -30 13 -45 -1 -18 -19 -17 -19 -34 24 -15 36 -26 41 -35 15
-15 -45 -46 -77 -60 -63 -5 5 -15 3 -24 -6 -8 -8 -17 -12 -20 -9 -3 3 0 11 6
17 16 16 15 28 -3 28 -18 0 -20 16 -3 24 7 3 4 5 -7 5 -36 -2 -46 1 -40 11 4
6 -8 10 -29 10 -35 0 -55 -13 -36 -25 18 -11 10 -25 -15 -25 -14 0 -28 7 -31
15 -4 8 -10 15 -15 15 -5 0 -9 -7 -9 -15 0 -8 -4 -15 -10 -15 -5 0 -10 7 -10
15 0 25 -2 30 -19 41 -9 6 -36 9 -60 6 -33 -3 -45 -9 -49 -25 -5 -19 -6 -19
-19 -2 -7 11 -13 15 -13 10 0 -5 -11 2 -24 14 -15 14 -26 19 -31 12 -10 -18
-25 -13 -25 9 0 11 5 20 10 20 6 0 10 9 10 20 0 19 -15 28 -22 13 -2 -5 -18
-21 -37 -38 l-34 -30 5 27 c4 22 0 29 -21 37 -31 13 -63 9 -69 -7 -5 -17 -22
-15 -22 3 0 8 -9 15 -21 15 -11 0 -17 5 -14 10 3 6 2 10 -4 10 -6 0 -8 7 -5
15 4 8 15 15 25 15 16 0 19 8 19 45 0 25 1 48 3 53 1 4 -13 8 -30 10 -24 2
-33 -1 -33 -12 0 -10 -6 -13 -15 -10 -8 4 -15 15 -15 25 0 10 -4 19 -10 19 -5
0 -10 -6 -10 -14 0 -8 -18 -21 -40 -30 -48 -19 -67 -20 -72 -5 -3 8 -10 8 -25
-2 -12 -7 -25 -11 -28 -8 -9 10 6 39 21 39 8 0 14 5 14 10 0 6 16 10 35 10 28
0 35 4 35 20 0 17 7 20 40 20 33 0 40 3 40 20 0 13 -7 20 -19 20 -18 0 -22 9
-35 85 -7 38 -72 -6 -79 -54 -3 -17 -5 -12 -6 15 -1 34 3 43 19 47 11 3 20 10
20 16 0 14 -37 15 -45 1 -3 -5 -15 -10 -25 -10 -10 0 -20 -5 -22 -11 -6 -17
-38 2 -38 22 0 15 -7 19 -39 19 -33 0 -40 -4 -44 -22 l-4 -23 -2 22 -1 22
-1975 1 -1975 0 0 -346z m4090 276 c0 -5 -7 -7 -15 -4 -8 4 -15 8 -15 10 0 2
7 4 15 4 8 0 15 -4 15 -10z m-230 -30 c0 -5 -7 -10 -15 -10 -8 0 -15 5 -15 10
0 6 7 10 15 10 8 0 15 -4 15 -10z m-150 -4 c0 -3 -4 -8 -10 -11 -5 -3 -10 -1
-10 4 0 6 5 11 10 11 6 0 10 -2 10 -4z m316 -52 c13 -18 14 -28 6 -36 -8 -8
-14 -4 -22 17 -6 15 -13 32 -16 36 -13 22 18 6 32 -17z m53 -21 c0 -16 -4 -37
-9 -48 -6 -15 -9 -8 -9 28 -1 26 4 47 9 47 6 0 10 -12 9 -27z m-319 7 c0 -5
-7 -10 -15 -10 -8 0 -15 5 -15 10 0 6 7 10 15 10 8 0 15 -4 15 -10z m-10 -45
c0 -3 -9 -5 -20 -5 -11 0 -20 7 -20 15 0 13 4 14 20 5 11 -6 20 -13 20 -15z
m95 15 c3 -5 1 -10 -4 -10 -6 0 -11 5 -11 10 0 6 2 10 4 10 3 0 8 -4 11 -10z
m119 -36 c9 -24 0 -29 -19 -11 -19 19 -19 27 -1 27 8 0 17 -7 20 -16z m246
-66 c0 -16 -3 -19 -11 -11 -6 6 -8 16 -5 22 11 17 16 13 16 -11z m-765 -9 c10
-15 -1 -23 -20 -15 -9 3 -13 10 -10 16 8 13 22 13 30 -1z m710 -9 c18 -20 17
-20 -10 -20 -27 0 -28 -1 -10 -20 20 -22 14 -50 -12 -49 -17 0 -17 1 1 8 17 7
17 9 -7 37 -27 31 -37 30 -40 -5 -1 -11 -7 -21 -15 -21 -8 0 -12 10 -10 28 2
20 12 31 38 44 45 21 44 21 65 -2z m-225 0 c0 -5 -4 -10 -10 -10 -5 0 -10 5
-10 10 0 6 5 10 10 10 6 0 10 -4 10 -10z m-76 -36 c9 -3 16 -11 16 -16 0 -7
-4 -7 -12 0 -7 5 -22 12 -33 15 -15 3 -16 5 -3 6 9 0 23 -2 32 -5z m376 -32
c0 -10 -51 -35 -57 -28 -3 3 1 12 8 20 15 16 49 22 49 8z m-155 -22 c-3 -5
-10 -10 -16 -10 -5 0 -9 5 -9 10 0 6 7 10 16 10 8 0 12 -4 9 -10z m29 -16 c3
-8 2 -12 -4 -9 -6 3 -10 10 -10 16 0 14 7 11 14 -7z m323 0 c-3 -3 -12 -4 -19
-1 -8 3 -5 6 6 6 11 1 17 -2 13 -5z m-237 -46 c0 -5 -4 -8 -10 -8 -5 0 -10 10
-10 23 0 18 2 19 10 7 5 -8 10 -18 10 -22z m1310 -158 c0 -5 -9 -10 -21 -10
-11 0 -17 5 -14 10 3 6 13 10 21 10 8 0 14 -4 14 -10z"/>
<path d="M4073 5979 c11 -7 23 -7 35 0 14 9 11 10 -18 10 -29 0 -32 -1 -17
-10z"/>
<path d="M4405 5980 c3 -5 8 -10 11 -10 2 0 4 5 4 10 0 6 -5 10 -11 10 -5 0
-7 -4 -4 -10z"/>
<path d="M5842 5979 c24 -9 27 -16 31 -62 l3 -52 2 63 2 62 -32 -1 -33 -1 27
-9z"/>
<path d="M6977 5948 c-59 -50 -115 -128 -196 -271 -33 -60 -68 -115 -76 -123
-8 -9 -16 -25 -16 -37 -1 -17 -2 -18 -6 -4 -2 9 -8 17 -13 17 -11 0 -50 -49
-50 -62 0 -5 -24 -34 -52 -65 -29 -30 -57 -62 -62 -71 -5 -9 -16 -22 -24 -28
-8 -6 -12 -16 -8 -22 5 -9 -59 -12 -253 -12 -154 0 -261 -4 -261 -9 0 -5 10
-12 23 -14 13 -3 7 -5 -16 -6 -21 0 -36 3 -33 8 6 9 -17 22 -37 20 -7 0 -3 -4
8 -9 19 -8 19 -9 -2 -9 -31 -1 -54 -12 -47 -22 3 -5 -4 -9 -15 -9 -26 0 -29
43 -6 66 20 20 19 44 -1 44 -10 0 -14 6 -11 15 4 8 2 17 -3 20 -6 4 -10 19
-10 36 0 19 -5 29 -15 29 -11 0 -15 -9 -13 -30 1 -16 6 -30 10 -30 4 0 8 -7 8
-15 0 -9 -8 -14 -21 -12 -31 3 -34 -30 -3 -37 l24 -6 -1 -263 c-1 -457 -14
-823 -29 -842 -10 -12 -15 -13 -21 -4 -4 8 -10 -3 -14 -27 -4 -21 -10 -50 -15
-64 -5 -14 -11 -38 -15 -55 -4 -16 -11 -32 -16 -36 -5 -3 -12 -23 -15 -45 -11
-80 -14 -87 -29 -74 -13 10 -15 8 -15 -14 0 -14 -4 -26 -8 -26 -9 0 -45 -100
-41 -115 4 -17 -13 -105 -20 -105 -11 0 -31 -81 -44 -178 -10 -69 -14 -80 -24
-65 -11 16 -12 16 -11 -7 1 -65 -16 -276 -24 -286 -4 -6 -6 -18 -2 -27 6 -17
-21 -151 -38 -182 -8 -13 -8 -20 0 -23 13 -4 3 -34 -15 -45 -7 -4 -13 -20 -13
-35 0 -45 -20 -101 -40 -115 -11 -8 -17 -16 -14 -19 3 -3 -4 -33 -16 -67 -11
-33 -20 -72 -20 -86 0 -14 -4 -25 -10 -25 -5 0 -10 -8 -10 -19 0 -10 -7 -24
-15 -31 -8 -7 -15 -22 -15 -34 0 -11 -14 -37 -30 -56 -17 -19 -33 -46 -36 -60
-3 -14 -9 -33 -15 -42 -5 -10 -9 -24 -9 -31 0 -8 -9 -22 -20 -32 -25 -23 -61
-88 -79 -143 -8 -23 -20 -47 -28 -53 -7 -6 -13 -18 -13 -25 0 -8 -3 -14 -8
-14 -7 0 -14 -10 -46 -77 -10 -21 -27 -57 -38 -80 -11 -23 -27 -44 -34 -47 -8
-3 -14 -14 -14 -25 0 -11 -4 -23 -10 -26 -5 -3 -10 -14 -10 -24 0 -10 -11 -30
-25 -45 -14 -15 -28 -38 -31 -51 -3 -13 -12 -26 -20 -29 -8 -3 -14 -13 -14
-23 -1 -10 -14 -34 -30 -53 -17 -19 -30 -42 -30 -52 0 -9 -6 -21 -13 -25 -23
-14 -58 -84 -59 -119 -1 -19 -5 -34 -9 -34 -11 0 -21 -32 -24 -81 -1 -25 -10
-61 -19 -80 -22 -49 -62 -215 -71 -294 -2 -22 -9 -92 -15 -155 -11 -103 -11
-151 2 -311 2 -25 11 -57 20 -71 9 -14 20 -41 23 -62 4 -20 13 -36 20 -36 16
0 25 -22 25 -60 0 -15 7 -30 15 -34 8 -3 12 -12 9 -21 -6 -13 55 -15 565 -15
l571 0 0 28 c0 16 -9 39 -20 52 -19 21 -25 50 -21 92 1 10 -3 26 -9 37 -15 30
-30 194 -18 208 5 7 6 18 2 25 -4 7 -11 83 -15 171 -4 87 -12 163 -17 170 -5
7 -12 24 -16 39 -3 16 -7 30 -8 33 0 2 -4 25 -8 50 -6 38 -4 47 16 66 25 23
102 36 193 33 104 -5 34 14 -114 31 -194 21 -415 71 -415 93 0 27 21 135 35
182 13 42 42 192 80 410 9 52 27 147 40 210 13 63 31 162 40 220 9 58 34 161
56 230 32 102 47 136 85 183 25 31 50 57 55 57 5 0 22 8 36 18 52 34 377 142
428 142 16 0 25 -6 25 -15 0 -8 1 -18 3 -22 1 -3 -34 -25 -77 -47 -44 -23 -81
-47 -84 -55 -3 -10 0 -11 16 -2 11 6 29 11 40 11 11 0 32 7 48 15 15 8 30 13
32 11 1 -2 -25 -30 -59 -62 -33 -33 -71 -77 -84 -99 -28 -48 -49 -136 -42
-172 7 -35 -2 -60 -14 -41 -6 9 -9 5 -9 -14 0 -27 56 -167 90 -225 10 -18 23
-56 29 -85 5 -29 14 -54 20 -56 6 -2 11 -14 11 -27 0 -13 18 -53 40 -88 32
-51 39 -70 34 -94 -6 -31 12 -97 104 -386 l47 -148 45 6 c91 11 366 17 468 10
98 -7 108 -9 134 -35 21 -22 28 -38 28 -69 0 -22 -4 -43 -10 -46 -23 -14 -7
-22 28 -14 57 13 179 11 216 -5 58 -24 83 -86 56 -137 -8 -14 -7 -25 5 -41 32
-47 5 -118 -50 -132 -20 -5 -25 -13 -25 -37 0 -26 -8 -35 -67 -72 l-67 -42 39
-7 c70 -12 204 -9 239 6 43 18 66 51 66 97 0 31 -34 162 -137 529 -13 47 -26
99 -29 115 -21 103 -82 279 -83 242 -1 -10 -5 -15 -11 -12 -13 8 -13 42 0 47
12 4 -14 100 -37 135 -9 13 -34 34 -57 46 -36 19 -61 22 -204 25 l-162 4 46
35 c27 21 42 38 35 42 -13 8 7 40 72 114 26 30 47 58 47 63 1 20 58 73 108 99
115 62 137 191 41 240 -26 14 -28 18 -18 38 7 12 54 63 105 114 50 50 105 113
120 140 16 26 39 59 51 73 13 14 24 32 24 40 3 35 4 40 14 40 6 1 16 12 23 26
14 26 28 31 35 12 2 -7 10 6 16 29 13 46 2 234 -16 283 -12 32 -5 58 29 100
l27 34 46 -22 c25 -12 53 -22 63 -22 25 0 216 99 200 104 -7 2 -44 12 -83 21
-38 10 -74 23 -80 30 -5 6 -20 17 -33 24 -12 7 -48 47 -79 89 -31 42 -70 93
-87 112 -32 37 -132 241 -161 329 -12 37 -15 68 -11 100 6 46 6 47 -50 101
-63 63 -76 88 -98 196 -9 44 -28 103 -42 131 -20 41 -26 69 -26 125 -1 105 8
134 45 153 35 18 50 9 50 -29 0 -15 4 -29 8 -32 5 -3 7 -9 4 -14 -5 -8 26 -23
48 -25 4 0 11 -5 15 -10 10 -15 79 -43 127 -52 36 -7 48 -8 80 -4 15 2 -27 27
-67 40 -32 11 -38 17 -38 41 0 18 8 33 25 44 32 21 32 21 27 -15 -6 -44 31
-82 73 -73 42 9 65 32 65 66 0 15 2 28 6 28 3 0 32 -18 65 -41 33 -22 63 -39
66 -36 6 6 -88 82 -131 105 -17 9 -49 22 -71 28 -40 12 -40 12 -8 13 46 1 80
-14 146 -65 64 -51 76 -46 20 8 -69 65 -94 73 -228 71 -80 -1 -134 -6 -163
-17 -43 -15 -72 -13 -72 7 0 5 18 27 40 49 52 48 82 49 267 8 136 -30 203 -37
203 -21 0 18 -60 59 -97 65 -21 4 -69 17 -107 28 -66 20 -226 30 -266 18 -10
-3 -14 1 -12 12 1 9 -4 34 -13 54 -8 21 -12 46 -9 57 5 16 3 19 -11 13 -12 -4
-16 -2 -12 6 3 7 32 83 66 168 88 224 109 259 166 293 26 15 71 32 99 38 62
12 234 10 242 -2 3 -5 16 -6 29 -3 12 3 26 1 29 -5 5 -7 27 0 63 19 31 17 66
30 79 30 13 0 24 5 24 10 0 6 7 10 16 10 11 0 14 6 9 20 -4 12 -2 20 6 20 9 0
9 3 -1 14 -6 8 -10 25 -7 38 l4 23 8 -23 c6 -18 10 -20 21 -11 11 9 14 5 14
-25 0 -20 -4 -36 -10 -36 -5 0 -10 -4 -10 -10 0 -6 9 -6 25 0 15 6 27 6 30 0
3 -5 19 -7 35 -3 22 4 31 1 36 -11 4 -9 22 -23 40 -31 19 -8 34 -19 34 -24 0
-6 7 -11 16 -11 20 0 134 -114 134 -133 0 -24 77 -218 126 -317 25 -52 79
-176 119 -275 97 -244 108 -287 94 -398 -5 -38 -15 -127 -24 -196 -27 -232
-72 -330 -243 -532 l-64 -74 -2 -80 c-2 -54 -13 -114 -35 -185 -42 -142 -66
-308 -53 -364 6 -22 14 -70 17 -106 11 -113 24 -164 55 -213 28 -45 60 -124
60 -150 0 -24 52 -123 93 -175 22 -30 46 -65 53 -78 19 -36 28 -110 15 -118
-6 -4 -11 -12 -11 -18 0 -6 10 -2 23 10 13 12 26 22 29 22 4 0 11 -23 17 -50
13 -62 13 -63 1 -55 -6 4 -10 -12 -10 -41 0 -58 23 -91 121 -171 122 -100 201
-153 288 -195 69 -33 88 -38 103 -29 10 6 30 11 45 11 48 0 96 19 160 62 62
42 82 72 108 158 4 14 36 57 69 95 182 206 256 360 256 531 0 132 -33 185
-160 260 -41 24 -97 65 -125 91 -95 90 -116 107 -108 87 6 -16 4 -17 -8 -7
-10 8 -16 34 -17 73 -3 61 14 115 62 200 135 238 149 282 126 386 -22 103 -65
171 -150 235 -41 32 -104 84 -139 116 l-65 59 14 60 c15 66 15 78 1 184 -10
82 -27 146 -40 154 -5 3 -14 -15 -21 -39 -7 -25 -17 -48 -22 -52 -6 -3 -8 2
-5 13 4 11 9 32 13 49 4 16 16 44 26 61 19 32 39 113 60 234 18 113 1 238 -48
345 -25 52 -51 90 -62 88 -14 -3 -112 95 -112 112 0 12 -44 55 -86 83 -13 9
-15 14 -6 18 20 9 14 34 -10 43 -16 6 -26 4 -33 -6 -9 -12 -16 -9 -39 21 -15
20 -26 42 -24 48 2 6 14 -3 27 -20 24 -35 41 -34 41 1 1 22 1 22 15 3 15 -19
15 -19 15 4 0 13 -6 42 -14 65 -8 22 -27 81 -41 130 -14 50 -42 122 -61 162
-19 39 -34 74 -34 78 0 4 -19 32 -42 61 l-43 52 -785 1 -785 0 -48 -41z m1498
-108 c74 -84 51 -71 -35 19 -44 46 -80 86 -80 88 0 9 70 -56 115 -107z m25 55
c7 -9 8 -15 2 -15 -5 0 -12 7 -16 15 -3 8 -4 15 -2 15 2 0 9 -7 16 -15z m106
-12 c-7 -7 -26 7 -26 19 0 6 6 6 15 -2 9 -7 13 -15 11 -17z m-809 11 c-3 -3
-12 -4 -19 -1 -8 3 -5 6 6 6 11 1 17 -2 13 -5z m503 -51 c0 -8 -36 16 -55 38
-16 19 -13 18 18 -5 20 -16 37 -30 37 -33z m345 -80 c4 -26 11 -54 17 -60 6
-7 12 -51 13 -97 2 -47 9 -102 17 -123 14 -43 70 -136 101 -170 11 -13 17 -26
14 -30 -8 -8 -24 11 -73 85 -38 57 -49 66 -34 26 6 -14 10 -33 9 -42 -1 -16
-39 57 -54 102 -4 11 -8 23 -10 26 -1 3 -14 31 -28 63 -15 32 -27 62 -27 67 0
6 -4 19 -10 30 -5 11 -14 29 -20 40 -13 25 -13 33 0 25 6 -4 26 -39 45 -78 27
-56 34 -64 29 -37 -3 19 -17 62 -30 96 -13 33 -24 70 -24 82 0 12 -4 22 -10
22 -5 0 -10 7 -10 15 0 8 -4 15 -9 15 -5 0 -12 7 -15 16 -4 10 5 6 25 -10 38
-32 60 -23 24 10 -14 13 -23 29 -19 35 14 23 71 -56 79 -108z m-692 52 c3 -17
2 -23 0 -15 -3 8 -12 24 -19 35 -19 26 -18 43 1 25 8 -9 16 -29 18 -45z m282
45 c3 -5 1 -10 -4 -10 -6 0 -11 5 -11 10 0 6 2 10 4 10 3 0 8 -4 11 -10z m38
-33 c3 -8 18 -13 36 -12 19 1 31 -3 31 -11 0 -17 -17 -27 -25 -14 -4 6 -11 8
-16 5 -5 -3 -21 5 -36 19 -21 20 -24 26 -11 26 9 0 18 -6 21 -13z m133 -12
c10 -14 25 -25 32 -25 7 0 10 -5 7 -11 -4 -6 1 -16 11 -24 21 -15 15 -29 -7
-20 -12 5 -67 75 -77 98 -8 18 17 5 34 -18z m127 -167 c-3 -13 -2 -20 2 -16 4
4 16 -9 26 -30 23 -44 23 -43 3 -35 -14 5 -14 2 1 -33 8 -21 27 -52 40 -70 26
-34 34 -57 13 -36 -21 21 -27 13 -12 -15 7 -16 14 -38 14 -49 0 -12 7 -40 15
-63 8 -22 12 -41 10 -41 -2 0 14 -36 35 -80 40 -81 82 -145 152 -235 28 -36
19 -28 -31 25 -40 41 -69 68 -66 59 4 -10 2 -20 -3 -23 -9 -6 -62 65 -62 83 0
5 -7 14 -15 21 -23 19 -18 32 8 19 19 -9 18 -7 -5 15 -19 18 -28 37 -28 58 0
54 -43 218 -57 218 -7 0 -10 6 -8 13 6 15 -49 129 -58 120 -4 -3 -7 3 -7 15 0
22 -45 82 -62 82 -5 0 2 -14 17 -31 14 -17 24 -34 21 -36 -8 -8 -102 63 -99
74 2 6 -8 24 -22 41 -22 26 -35 72 -20 72 14 0 85 -52 108 -79 14 -17 28 -31
30 -31 3 0 4 32 2 72 l-3 72 33 -67 c21 -43 31 -75 28 -89z m-866 112 c28 -16
55 -35 59 -42 4 -6 -9 -2 -29 11 -20 12 -50 29 -67 37 -29 15 -38 24 -22 24 4
0 30 -14 59 -30z m1013 -25 c0 -5 -5 -3 -10 5 -5 8 -10 20 -10 25 0 6 5 3 10
-5 5 -8 10 -19 10 -25z m-1065 -36 c16 -16 -30 -10 -51 7 -18 15 -18 15 11 9
17 -4 34 -11 40 -16z m1085 -96 c0 -22 -2 -25 -10 -13 -13 20 -13 40 0 40 6 0
10 -12 10 -27z m-287 -33 c16 -22 27 -44 25 -48 -2 -5 -18 13 -36 40 -39 58
-29 65 11 8z m295 -75 c-3 -3 -9 2 -12 12 -6 14 -5 15 5 6 7 -7 10 -15 7 -18z
m-228 -24 c0 -11 10 -36 21 -56 12 -20 19 -39 15 -42 -3 -4 -6 -1 -6 5 0 6
-12 24 -26 41 -14 17 -23 35 -19 41 4 6 3 10 -2 9 -17 -3 -24 1 -18 11 11 17
35 11 35 -9z m-2660 -166 c0 -8 -2 -15 -4 -15 -2 0 -6 7 -10 15 -3 8 -1 15 4
15 6 0 10 -7 10 -15z m2950 -26 c0 -6 -4 -7 -10 -4 -5 3 -10 11 -10 16 0 6 5
7 10 4 6 -3 10 -11 10 -16z m-1302 -542 c2 -10 -3 -17 -12 -17 -18 0 -29 16
-21 31 9 14 29 6 33 -14z m-67 -35 c5 -26 4 -30 -6 -22 -17 14 -26 62 -11 57
6 -2 13 -18 17 -35z m59 -17 c-7 -9 -15 -13 -19 -10 -3 3 1 10 9 15 21 14 24
12 10 -5z m1555 -336 c-14 -28 -31 -49 -38 -46 -7 2 -17 -3 -24 -12 -6 -9 -14
-13 -18 -9 -10 10 34 78 51 78 7 0 19 9 26 20 26 41 27 18 3 -31z m-152 -165
c-9 -15 -19 -21 -21 -15 -4 13 16 41 29 41 5 0 2 -12 -8 -26z m-3106 -46 c-3
-7 -5 -2 -5 12 0 14 2 19 5 13 2 -7 2 -19 0 -25z m934 -20 c8 -15 8 -18 0 -14
-6 4 -16 16 -22 28 -8 15 -8 18 0 14 6 -4 16 -16 22 -28z m2124 -27 c-8 -17
-18 -31 -21 -31 -7 0 6 42 19 58 17 22 19 5 2 -27z m-1593 -116 c22 -55 48
-120 59 -144 59 -128 -40 -44 -109 92 -51 102 -57 123 -40 142 29 34 50 13 90
-90z m1998 -89 c18 -1 30 -15 30 -35 0 -8 -6 -11 -15 -7 -9 3 -15 0 -15 -9 0
-20 -10 -19 -36 6 -25 24 -22 65 5 53 9 -3 23 -7 31 -8z m-36 -72 c9 -24 0
-28 -24 -11 -15 11 -18 16 -8 20 22 9 26 8 32 -9z m-24 -39 c32 -16 38 -25 18
-25 -14 0 -68 39 -55 40 4 0 21 -7 37 -15z m-2670 -78 c0 -2 -17 -19 -37 -38
l-38 -34 34 38 c33 34 41 42 41 34z m2879 -77 c-1 -31 -1 -32 -8 -10 -4 14
-11 41 -14 60 -6 34 -6 35 8 10 8 -14 14 -41 14 -60z m-244 0 c4 -6 -6 -10
-22 -10 -22 0 -25 2 -13 10 19 12 27 12 35 0z m-553 -52 c-5 -30 -6 -31 -13
-10 -9 23 -2 55 10 47 4 -2 6 -19 3 -37z m83 -10 c17 -60 19 -82 5 -73 -5 3
-10 14 -10 23 0 9 -7 30 -15 46 -17 32 -19 56 -5 56 5 0 16 -23 25 -52z m430
12 c3 -5 -10 -1 -29 11 -20 12 -36 23 -36 25 0 7 58 -25 65 -36z m265 -210 c0
-5 -4 -10 -10 -10 -5 0 -10 5 -10 10 0 6 5 10 10 10 6 0 10 -4 10 -10z m-77
-366 c-2 -7 25 -36 62 -65 36 -30 62 -55 56 -57 -6 -2 -29 11 -52 30 -88 71
-90 74 -83 103 4 18 9 23 14 14 5 -7 6 -18 3 -25z m70 -204 c31 0 106 -39 148
-77 51 -46 87 -108 89 -153 5 -90 0 -130 -15 -130 -12 0 -14 -9 -12 -37 2 -23
-6 -63 -19 -99 -25 -68 -87 -187 -101 -191 -13 -5 -15 45 -2 68 16 31 39 177
39 250 0 66 -26 172 -57 234 -9 17 -34 53 -57 80 -46 54 -70 90 -45 68 7 -7
21 -13 32 -13z m342 -150 c17 -32 21 -70 6 -54 -10 10 -32 84 -25 84 2 0 10
-13 19 -30z m-38 -66 c12 -40 13 -60 5 -90 l-10 -39 -1 46 c-1 25 -10 72 -21
104 -11 32 -20 61 -20 64 1 17 32 -40 47 -85z m-3467 -29 c-7 -8 -18 -15 -25
-15 -6 0 -12 -6 -12 -13 0 -19 -34 -68 -43 -62 -20 13 -37 -44 -39 -132 -1
-36 -18 -27 -23 12 -4 38 20 129 43 162 8 11 34 37 59 58 36 31 46 34 48 21 2
-9 -2 -23 -8 -31z m902 -192 c36 -33 19 -121 -34 -170 -21 -20 -86 -53 -104
-53 -3 0 -3 20 0 44 4 27 3 47 -4 51 -22 14 -10 67 27 112 33 39 40 44 67 39
16 -4 38 -14 48 -23z m2067 -9 c61 -25 27 -24 -39 2 -41 15 -52 22 -30 18 19
-3 50 -13 69 -20z m-293 -57 c4 -11 17 -32 30 -46 13 -14 24 -34 24 -43 0 -10
4 -18 9 -18 10 0 -17 -91 -42 -137 -10 -18 -23 -30 -30 -27 -31 12 -67 183
-53 257 5 28 11 35 31 35 16 0 27 -8 31 -21z m-2006 -37 c0 -5 -4 -10 -10 -10
-5 0 -10 5 -10 10 0 6 5 10 10 10 6 0 10 -4 10 -10z m-27 -32 c-4 -7 -7 -22
-8 -32 0 -11 -6 -21 -14 -24 -10 -3 -12 0 -8 12 4 10 7 26 7 37 0 11 7 19 16
19 10 0 12 -5 7 -12z m-143 -459 c0 -6 5 -7 11 -4 19 12 68 11 73 -1 7 -17
-135 -28 -291 -22 -125 5 -140 8 -128 27 8 15 335 14 335 0z m-353 -5 c-3 -3
-12 -4 -19 -1 -8 3 -5 6 6 6 11 1 17 -2 13 -5z m738 -8 c33 -14 46 -38 26 -50
-17 -11 -101 27 -101 46 0 22 28 23 75 4z m-771 -226 c5 -20 3 -19 -8 5 -7 17
-16 41 -20 55 -5 20 -3 19 8 -5 7 -16 16 -41 20 -55z m66 -56 c0 -9 -28 -3
-46 11 -17 13 -16 14 14 4 17 -6 32 -13 32 -15z"/>
<path d="M8505 5670 c3 -5 11 -10 16 -10 6 0 7 5 4 10 -3 6 -11 10 -16 10 -6
0 -7 -4 -4 -10z"/>
<path d="M8490 5639 c0 -8 7 -24 16 -35 14 -18 15 -18 8 6 -8 31 -24 50 -24
29z"/>
<path d="M6155 2550 c-3 -5 -1 -10 4 -10 6 0 11 5 11 10 0 6 -2 10 -4 10 -3 0
-8 -4 -11 -10z"/>
<path d="M17050 5970 c0 -13 6 -20 18 -19 10 0 12 3 5 6 -32 12 -8 24 47 22
33 -1 63 1 67 4 3 4 -26 7 -65 7 -65 0 -72 -2 -72 -20z"/>
<path d="M17237 5971 c-3 -14 -11 -18 -26 -14 -21 5 -29 -11 -11 -22 6 -3 10
-15 10 -27 0 -11 8 -22 20 -25 20 -5 28 -23 10 -23 -5 0 -10 -9 -10 -20 0 -17
7 -20 45 -20 43 0 45 -1 45 -28 0 -15 5 -33 11 -39 15 -15 -24 -27 -48 -15
-19 10 -43 6 -43 -8 0 -5 7 -16 16 -25 13 -12 14 -19 5 -28 -15 -15 -14 -47 1
-47 7 0 5 -5 -4 -12 -23 -18 -13 -78 13 -78 13 0 19 -7 19 -23 0 -20 -4 -22
-40 -19 -37 4 -40 7 -40 33 0 19 -5 29 -15 29 -9 0 -15 -9 -15 -21 0 -28 -24
-19 -29 12 -3 23 -17 39 -34 39 -15 0 5 -64 26 -88 l22 -23 -55 3 c-50 3 -55
5 -53 26 2 12 -3 22 -10 22 -9 0 -12 -27 -11 -103 2 -105 -2 -129 -17 -106 -7
12 -9 11 -10 -1 -1 -8 -5 5 -8 30 l-6 45 -50 3 c-48 3 -49 3 -32 -16 9 -10 17
-22 17 -27 0 -4 8 -13 17 -20 16 -12 13 -15 -25 -31 -30 -14 -42 -24 -41 -39
0 -11 3 -14 6 -7 8 20 33 14 33 -8 0 -13 7 -20 20 -20 11 0 20 -6 20 -14 0 -8
-9 -18 -20 -21 -11 -3 -20 -11 -20 -16 0 -5 -6 -9 -14 -9 -8 0 -31 -9 -50 -21
l-36 -21 -6 31 c-10 46 -34 40 -34 -9 0 -40 15 -55 23 -22 3 9 5 0 6 -20 1
-27 5 -38 17 -38 8 0 13 3 11 8 -3 4 -1 16 4 27 7 19 8 19 8 -2 1 -19 7 -23
36 -23 19 0 35 5 35 10 0 6 9 10 20 10 13 0 20 7 20 20 0 13 7 20 20 20 17 0
20 -7 20 -40 0 -26 -5 -40 -13 -40 -20 0 -42 -69 -27 -83 8 -9 15 -8 24 6 16
21 26 22 26 2 0 -17 -60 -45 -96 -45 -17 0 -24 -6 -24 -20 0 -11 -7 -20 -15
-20 -8 0 -15 6 -15 14 0 16 -27 29 -41 20 -12 -7 -11 -44 1 -44 6 0 10 -13 10
-30 0 -31 17 -39 38 -18 15 15 26 4 27 -30 0 -15 6 -26 12 -25 7 2 15 -6 18
-17 5 -16 15 -20 46 -20 21 0 39 -4 39 -10 0 -5 -18 -10 -39 -10 -31 0 -44 6
-63 28 -13 16 -38 35 -56 43 -18 7 -32 16 -32 19 0 10 -63 9 -81 0 -14 -8 -20
-6 -28 7 -5 10 -9 21 -10 26 -1 4 -3 7 -6 7 -3 0 -9 0 -15 0 -5 0 -10 -7 -10
-15 0 -8 4 -15 10 -15 15 0 23 -46 12 -66 -9 -16 -10 -15 -17 5 -8 27 -29 23
-33 -7 -2 -13 -8 -19 -18 -15 -18 7 -18 32 1 39 8 4 15 17 15 30 0 15 -6 24
-15 24 -8 0 -15 -9 -15 -20 0 -17 -5 -19 -25 -14 -18 4 -27 1 -31 -11 -4 -9
-12 -14 -19 -11 -7 2 -15 -4 -18 -15 -6 -23 1 -24 25 -2 32 29 56 24 60 -13 4
-38 -17 -64 -52 -64 -5 0 -10 -13 -10 -28 0 -16 -9 -37 -20 -47 -18 -16 -18
-19 -3 -41 15 -24 63 -34 63 -14 0 18 17 10 28 -12 6 -13 11 -17 11 -10 1 7
16 12 41 12 31 0 40 4 40 18 1 23 26 55 39 48 5 -3 15 0 23 7 11 11 18 11 40
-3 l27 -16 -25 -18 c-29 -23 -30 -27 -3 -57 11 -13 18 -19 15 -13 -6 13 15 24
46 24 26 0 18 -24 -10 -28 -12 -2 -32 -17 -46 -33 -14 -16 -29 -29 -34 -29
-16 0 -21 27 -9 39 9 10 6 11 -15 6 -18 -5 -28 -3 -28 4 0 6 5 11 11 11 6 0
17 7 25 15 14 13 14 16 0 21 -24 9 -51 0 -50 -18 1 -10 -1 -16 -5 -16 -3 1
-22 -1 -42 -5 -28 -6 -41 -16 -54 -40 -9 -17 -23 -43 -30 -57 -11 -18 -11 -26
-2 -32 16 -10 49 28 56 65 5 22 15 33 34 40 32 10 47 3 29 -15 -7 -7 -12 -29
-12 -50 0 -45 -26 -54 -32 -10 -4 24 -5 25 -13 8 -6 -14 -3 -24 15 -38 23 -18
23 -18 46 3 12 11 27 18 33 14 6 -3 14 1 17 9 17 43 31 0 18 -51 -8 -31 -24
-29 -24 2 0 14 -4 25 -10 25 -5 0 -10 -4 -10 -10 0 -5 -7 -10 -15 -10 -9 0
-12 -6 -9 -15 4 -8 10 -12 15 -9 5 3 9 0 9 -6 0 -7 -8 -9 -22 -4 -13 4 -33 8
-44 10 -12 1 -32 7 -44 14 -14 8 -38 10 -64 5 -23 -3 -49 -7 -58 -9 -26 -3
-31 -12 -24 -42 5 -20 12 -25 26 -21 12 3 20 0 20 -8 0 -7 -9 -15 -20 -18 -11
-3 -20 -12 -20 -20 0 -25 -40 -87 -56 -87 -9 0 -14 11 -14 30 0 34 -15 40 -23
10 -7 -28 -24 -25 -31 5 -6 24 -18 29 -63 25 -13 -1 -23 3 -23 9 0 6 -7 11
-15 11 -20 0 -19 -17 3 -29 15 -9 14 -10 -8 -8 -16 1 -25 -4 -28 -15 -3 -14 3
-18 27 -18 28 0 31 -3 31 -32 0 -33 -14 -67 -24 -57 -3 3 -6 19 -8 37 -1 18
-6 32 -11 32 -5 0 -6 -7 -3 -16 4 -9 -1 -27 -9 -40 -12 -18 -12 -24 -3 -25 7
-1 20 -2 28 -3 17 -1 27 -36 11 -36 -6 0 -11 -7 -11 -15 0 -8 -7 -15 -15 -15
-8 0 -15 -4 -15 -10 0 -5 -13 -10 -30 -10 -16 0 -30 -4 -30 -9 0 -15 43 -26
48 -12 6 17 50 13 61 -7 5 -9 9 -34 8 -55 -1 -33 -3 -36 -16 -22 -12 12 -13
18 -3 27 22 22 13 38 -22 38 -48 0 -86 -40 -86 -93 0 -39 -1 -40 -19 -23 -25
23 -55 17 -59 -12 -5 -30 -19 -28 -25 4 -4 20 0 28 15 32 16 4 19 10 13 38 -5
27 -3 33 8 28 10 -4 16 4 19 25 5 34 -17 45 -25 14 -4 -14 -5 -13 -6 4 -2 38
-21 37 -21 -2 0 -32 -2 -35 -25 -31 -28 5 -34 -8 -8 -18 15 -6 15 -9 3 -16 -8
-5 -17 -7 -21 -4 -4 2 -10 -5 -14 -16 -5 -15 -12 -19 -25 -15 -22 7 -36 -10
-15 -19 9 -3 15 -18 15 -35 0 -16 6 -32 13 -34 6 -3 -2 -6 -18 -6 -24 -1 -33
-8 -45 -33 -14 -32 -15 -32 -18 -8 -2 13 1 26 7 28 19 6 12 20 -14 24 -21 4
-24 2 -21 -16 2 -12 1 -15 -1 -8 -3 6 -9 12 -15 12 -5 0 -7 -7 -4 -16 3 -9 6
-22 6 -30 0 -9 5 -12 10 -9 7 4 9 -3 5 -22 -4 -15 -3 -23 2 -18 5 6 49 9 108
7 l100 -3 34 -52 c19 -29 36 -46 39 -39 2 6 8 12 14 12 7 0 6 -5 -1 -14 -10
-12 -8 -23 11 -55 13 -23 26 -41 29 -41 9 0 72 94 72 108 0 6 4 12 9 12 4 0 8
10 8 22 0 12 3 18 7 15 3 -4 12 2 20 13 13 18 26 20 117 20 56 0 105 -3 109
-6 3 -3 -46 -77 -109 -164 -63 -87 -114 -160 -114 -164 0 -3 20 -32 44 -63 93
-124 186 -267 186 -288 0 -3 -51 -5 -113 -5 l-112 0 -13 30 c-23 52 -112 181
-121 176 -10 -7 -118 -176 -127 -201 -6 -14 -4 -16 6 -10 7 5 11 4 8 -1 -4 -5
-172 -7 -405 -4 l-398 5 -3 42 c-2 29 -7 40 -16 37 -9 -3 -11 6 -7 33 4 35 5
36 12 13 6 -22 7 -23 8 -4 1 22 23 84 41 116 14 25 -7 33 -22 8 -16 -26 -34
-26 -41 1 -4 15 -1 19 11 17 8 -2 27 8 41 22 l26 25 -23 23 c-22 21 -72 31
-72 13 0 -5 10 -15 22 -23 30 -20 18 -52 -17 -46 -20 4 -25 1 -25 -16 0 -32
-22 -74 -42 -79 -18 -5 -20 13 -3 26 7 4 6 10 -1 15 -7 4 -14 16 -17 27 -3 11
-5 -41 -3 -115 1 -74 -1 -148 -5 -165 -10 -43 -10 -45 -12 460 l-1 460 -3
-443 -3 -443 -108 3 c-89 3 -106 6 -104 18 7 30 -10 144 -19 129 -5 -8 -9 -9
-9 -3 0 6 -9 22 -21 35 -11 13 -23 36 -26 51 -5 26 -23 40 -23 18 0 -5 -8 -7
-17 -4 -17 5 -17 5 0 -6 31 -20 58 -86 47 -114 -9 -24 -14 -26 -82 -28 -67 -1
-69 -2 -28 -8 38 -6 40 -7 15 -10 -16 -1 -23 -4 -14 -7 9 -2 33 0 55 4 66 14
115 -28 79 -67 -19 -21 -19 -44 0 -60 13 -10 19 -10 33 3 17 16 18 14 18 -17
0 -28 -4 -35 -24 -39 -22 -4 -52 15 -52 34 0 5 -4 9 -9 9 -6 0 -7 -16 -4 -35
4 -23 2 -35 -6 -35 -6 0 -14 -18 -17 -40 -4 -23 -9 -38 -12 -35 -3 3 -14 -2
-24 -12 -10 -9 -18 -11 -18 -5 0 6 6 12 13 15 6 2 9 7 5 11 -11 13 -48 -18
-43 -36 3 -9 1 -19 -5 -23 -6 -4 -10 12 -10 44 0 39 -4 51 -15 51 -11 0 -15
-11 -15 -36 0 -19 -7 -42 -16 -51 -8 -9 -14 -27 -12 -42 3 -24 -1 -26 -41 -32
-25 -3 -47 -13 -53 -22 -5 -9 -20 -17 -33 -17 -30 0 -55 -10 -55 -21 0 -5 25
-9 56 -9 52 0 59 -3 90 -37 28 -31 34 -45 34 -83 0 -43 -17 -82 -47 -105 -18
-14 0 -40 22 -32 11 5 14 13 10 26 -3 10 1 24 10 31 10 8 15 9 15 1 0 -6 -4
-11 -8 -11 -4 0 -8 -18 -9 -41 -3 -58 -14 -67 -78 -63 -31 2 -59 5 -64 8 -5 3
-14 0 -20 -8 -9 -10 -8 -15 4 -20 19 -7 20 -26 2 -26 -8 0 -19 10 -24 23 -10
22 -16 23 -97 23 -47 -1 -86 3 -86 7 0 5 -6 5 -12 1 -9 -5 -9 -2 1 9 11 14 11
17 0 17 -11 0 -11 2 1 10 8 6 58 10 110 9 151 -2 214 1 207 7 -5 6 -57 11
-132 14 -11 0 -37 -2 -58 -6 -103 -18 -172 89 -121 188 10 19 12 34 6 40 -12
12 -26 -7 -29 -37 -4 -52 -16 -105 -22 -99 -10 9 -7 73 3 66 5 -3 6 0 2 6 -10
17 -24 15 -29 -6 -4 -13 -5 -11 -6 6 0 12 -7 22 -13 23 -7 0 -4 5 7 10 15 6
11 7 -15 3 -50 -9 -57 -23 -12 -27 13 -1 20 -8 19 -19 -1 -10 -5 -18 -9 -18
-4 0 -8 -9 -8 -20 0 -11 -4 -20 -10 -20 -5 0 -10 9 -10 20 0 10 -9 24 -20 30
-11 6 -19 14 -17 18 1 4 -1 8 -6 10 -16 5 -27 1 -27 -10 0 -6 3 -8 7 -5 8 9
34 -43 27 -54 -3 -5 2 -9 10 -9 19 0 21 -35 6 -76 -7 -18 -14 -24 -21 -17 -27
27 -75 -12 -69 -56 1 -9 -4 -12 -16 -7 -10 4 -15 4 -11 0 4 -4 -3 -18 -15 -31
-21 -22 -21 -24 -5 -40 14 -14 17 -15 18 -3 0 8 5 -1 12 -20 9 -27 17 -35 37
-35 25 0 36 -23 39 -85 0 -20 -1 -22 -9 -10 -5 8 -10 25 -10 38 0 12 -4 22
-10 22 -5 0 -10 -19 -10 -42 l-1 -43 -14 30 c-12 26 -13 27 -14 8 -1 -24 -19
-40 -31 -27 -4 5 -10 24 -13 41 -6 29 -4 32 15 30 13 -1 22 4 23 15 4 20 -11
24 -18 6 -3 -10 -9 -10 -26 -1 -18 12 -21 10 -27 -13 -4 -14 -2 -30 5 -37 14
-14 15 -57 1 -57 -5 0 -10 6 -10 13 0 6 -7 25 -15 40 -8 15 -12 34 -8 42 4 11
-2 15 -21 15 -17 0 -26 5 -26 16 0 14 -2 15 -17 3 -14 -13 -14 -14 0 -17 16
-3 52 -80 42 -90 -3 -4 -15 -1 -26 6 -24 15 -58 0 -60 -26 -1 -9 -2 -24 -3
-32 -3 -29 26 -50 69 -50 22 0 47 -6 53 -12 16 -16 32 5 32 45 0 15 5 27 12
27 6 0 9 -2 6 -6 -3 -3 -2 -21 2 -40 6 -25 5 -34 -5 -34 -8 0 -15 -10 -17 -22
-4 -29 -28 -35 -35 -8 -5 19 -12 21 -53 19 -34 -2 -53 2 -65 14 -9 9 -20 17
-25 17 -7 0 -7 45 2 79 1 8 -5 17 -15 19 -10 2 -17 0 -16 -5 1 -4 0 -11 -1
-15 -4 -13 -7 -27 -9 -38 -1 -12 -51 -13 -70 -1 -9 6 -11 18 -7 35 5 19 3 26
-9 26 -10 0 -15 -10 -15 -31 0 -17 -4 -28 -10 -24 -6 4 -10 -5 -10 -19 0 -27
18 -34 37 -15 17 17 24 -5 8 -28 -11 -16 -26 -20 -70 -21 -54 0 -56 1 -62 29
-3 16 -12 29 -19 29 -8 0 -14 10 -14 22 0 21 0 21 -15 2 -15 -19 -15 -19 -30
0 -14 19 -15 19 -15 -7 0 -22 5 -27 25 -27 14 0 25 -6 25 -13 0 -16 41 -57 57
-57 6 0 13 -7 17 -15 3 -8 11 -15 17 -15 8 0 8 4 -1 15 -15 18 1 21 31 5 27
-15 24 -23 -13 -39 -29 -13 -32 -13 -50 12 -12 16 -29 27 -43 27 -18 0 -25 7
-30 30 -4 16 -10 30 -14 30 -19 0 -18 -14 4 -46 22 -32 24 -64 6 -64 -4 0 -5
-14 -3 -32 4 -26 2 -30 -12 -25 -10 4 -29 7 -42 7 -28 0 -33 26 -6 34 9 3 -3
3 -28 0 -68 -8 -92 -23 -85 -52 4 -16 0 -31 -11 -43 -18 -20 -59 -25 -69 -9
-8 13 -25 13 -25 -1 0 -6 9 -13 20 -16 28 -8 15 -21 -15 -16 -17 4 -27 0 -31
-11 -3 -9 -17 -16 -30 -16 -18 0 -24 5 -24 23 0 34 12 45 49 49 41 4 55 28 18
28 -14 0 -28 -6 -30 -12 -3 -8 -6 -6 -6 5 -1 12 -9 17 -30 17 -22 0 -32 6 -37
22 -6 20 -7 20 -16 4 -11 -20 4 -66 22 -66 5 0 10 -11 10 -24 0 -19 -7 -26
-32 -31 -37 -9 -52 -22 -63 -54 -6 -21 -8 -22 -26 -5 -14 13 -16 21 -8 36 7
14 7 23 -2 34 -10 12 -10 23 1 52 7 20 9 37 4 39 -5 2 -7 28 -6 58 2 30 2 55
-1 55 -2 0 -19 -8 -38 -17 l-34 -18 27 -3 26 -3 -4 -82 c-5 -85 -10 -100 -23
-78 -7 11 -11 10 -18 -4 -9 -15 -15 -15 -54 -4 -24 7 -49 18 -55 25 -13 16
-24 8 -24 -17 0 -23 20 -29 101 -29 42 0 69 -4 69 -11 0 -6 -9 -8 -20 -4 -16
5 -20 2 -20 -19 0 -14 5 -26 10 -26 6 0 10 5 10 10 0 6 5 10 10 10 6 0 10 -9
10 -20 0 -13 -7 -20 -20 -20 -29 0 -34 -23 -15 -60 23 -44 13 -48 -32 -11 -21
17 -39 27 -41 22 -2 -5 -18 -7 -36 -4 -18 3 -42 0 -54 -6 -17 -9 -21 -7 -27
12 -7 20 -8 20 -12 -8 -3 -16 -8 -32 -13 -35 -4 -3 -5 -20 -3 -38 4 -24 12
-34 29 -38 13 -3 24 -10 24 -15 0 -13 13 -11 36 5 18 14 18 16 -16 47 -24 22
-31 34 -21 37 14 5 63 -41 74 -70 14 -37 97 -6 97 36 0 9 4 16 8 16 16 0 30
-23 25 -38 -5 -12 0 -14 29 -8 28 5 37 3 42 -10 8 -22 -11 -44 -23 -26 -4 8
-23 11 -47 10 -34 -3 -39 -7 -39 -28 0 -15 -7 -26 -18 -28 -12 -3 -15 1 -10
14 6 15 1 16 -45 10 -31 -4 -52 -3 -52 3 0 5 -18 12 -41 16 -22 4 -53 13 -67
21 -23 12 -27 12 -30 -1 -5 -20 -72 -21 -72 -1 0 23 22 31 35 12 11 -14 14
-15 25 -1 7 8 19 15 26 15 18 0 18 8 -2 27 -13 13 -13 17 -2 24 12 8 16 31 19
97 1 12 5 22 10 22 5 0 9 5 9 10 0 6 -7 10 -15 10 -8 0 -15 -4 -15 -10 0 -5
-7 -10 -15 -10 -8 0 -15 -4 -15 -10 0 -11 -30 -13 -55 -4 -9 4 -21 18 -26 31
-5 13 -13 22 -19 18 -11 -7 -2 -35 11 -35 5 0 9 -9 9 -21 0 -37 42 -64 54 -34
10 27 26 15 26 -20 0 -24 -5 -35 -15 -35 -8 0 -15 3 -15 8 0 4 -12 12 -26 19
-21 10 -26 9 -30 -5 -13 -40 -28 -62 -44 -62 -9 0 -21 -5 -28 -12 -7 -7 -12
-8 -12 -2 0 13 -55 14 -119 3 -41 -7 -57 -6 -62 3 -10 16 -14 10 -23 -25 -5
-23 -1 -34 24 -58 16 -17 30 -34 30 -38 0 -3 -13 -12 -30 -18 l-30 -11 0 41
c0 23 -7 51 -15 61 -15 20 -15 20 -30 0 -17 -23 -18 -31 -5 -39 6 -4 8 -11 5
-16 -3 -5 1 -6 9 -3 12 5 16 -1 16 -22 0 -16 -5 -36 -10 -44 -9 -13 -12 -12
-25 4 -8 10 -16 22 -17 27 -2 4 -16 10 -33 13 -16 2 -32 5 -34 5 -12 3 25 31
41 31 18 0 20 5 14 31 -3 17 -6 35 -6 40 0 5 -7 9 -15 9 -8 0 -15 5 -15 10 0
6 -12 10 -27 11 l-28 1 30 13 30 14 -27 1 c-15 0 -30 4 -33 10 -8 13 31 13 56
-1 16 -8 20 -7 18 3 -3 24 1 38 10 38 5 0 7 -9 4 -20 -6 -22 22 -29 30 -7 3 7
9 0 16 -15 6 -15 8 -35 5 -43 -10 -26 12 -16 24 10 20 43 15 64 -15 70 -16 3
-43 10 -61 16 -25 8 -37 7 -48 -2 -10 -8 -18 -9 -25 -2 -8 8 -5 13 11 18 16 5
19 10 10 20 -8 10 -7 16 5 22 13 8 13 11 -4 30 -20 22 -24 40 -22 116 1 35 5
47 16 47 17 0 20 16 6 25 -12 7 -31 -26 -31 -54 0 -21 -17 -37 -28 -27 -3 4
-1 15 5 26 10 14 9 21 -2 30 -10 9 -15 32 -15 75 0 69 6 83 27 57 14 -16 14
-16 9 1 -3 9 0 29 6 42 15 33 -3 55 -27 35 -15 -13 -16 -11 -12 18 3 18 1 34
-4 38 -12 7 -12 34 0 34 5 0 13 -9 16 -20 10 -31 28 -12 22 24 -5 38 11 76 29
69 10 -4 12 6 10 39 -4 46 12 118 26 118 4 0 8 14 8 30 0 19 -5 30 -14 30 -28
0 -106 -42 -163 -88 -15 -13 -50 -38 -77 -57 l-49 -33 52 -23 c51 -21 91 -62
91 -93 0 -17 -17 -56 -96 -224 -70 -147 -77 -198 -37 -267 41 -71 42 -113 3
-170 -17 -25 -35 -45 -40 -45 -5 0 -19 -18 -31 -40 -22 -39 -90 -83 -96 -63
-2 5 -27 -14 -56 -42 -47 -48 -57 -53 -110 -60 -37 -4 -66 -14 -78 -26 -10
-10 -23 -19 -28 -19 -4 0 -19 -9 -33 -19 -14 -11 -58 -36 -99 -56 -41 -20 -82
-40 -91 -45 -10 -6 -34 -14 -55 -20 -21 -5 -60 -15 -87 -23 l-50 -14 27 -17
26 -18 -23 -46 c-13 -26 -27 -58 -31 -72 -4 -14 -22 -55 -41 -92 -39 -78 -76
-179 -93 -258 -13 -57 -23 -100 -66 -285 -14 -60 -28 -120 -30 -132 l-5 -23
1080 0 1080 0 0 300 0 300 3050 0 3050 0 0 2695 0 2695 -739 0 c-737 0 -740 0
-746 -20 -4 -12 -1 -27 5 -35 13 -16 7 -45 -10 -45 -5 0 -10 15 -10 34 0 54
-8 66 -46 66 -27 0 -34 -4 -34 -20 0 -11 -4 -20 -10 -20 -5 0 -10 9 -10 20 0
26 -46 28 -53 3 -4 -17 -5 -17 -6 0 0 9 -5 17 -11 17 -9 0 -15 -42 -11 -83 3
-23 -35 -71 -44 -57 -4 6 -1 18 6 26 14 17 5 30 -26 37 -19 4 -18 5 4 14 16 6
20 12 13 17 -7 4 -12 16 -12 27 0 25 -36 25 -43 0z m255 -23 c-9 -9 -12 -7
-12 12 0 19 3 21 12 12 9 -9 9 -15 0 -24z m75 -30 c-3 -8 -6 -5 -6 6 -1 11 2
17 5 13 3 -3 4 -12 1 -19z m-97 -28 c0 -5 -7 -10 -16 -10 -8 0 -12 5 -9 10 3
6 10 10 16 10 5 0 9 -4 9 -10z m-45 -40 c3 -5 -1 -10 -9 -10 -9 0 -16 5 -16
10 0 6 4 10 9 10 6 0 13 -4 16 -10z m120 -2 c-22 -13 -85 -17 -85 -6 0 4 19 9
43 11 23 2 47 4 52 5 6 1 1 -4 -10 -10z m-146 -47 c31 -29 16 -39 -29 -19 -20
8 -30 20 -30 35 0 23 22 38 29 19 2 -6 16 -22 30 -35z m125 0 c3 -5 -2 -15
-12 -22 -15 -13 -16 -12 -4 3 10 13 10 17 0 21 -9 4 -9 6 -1 6 6 1 14 -3 17
-8z m51 -41 c3 -5 -3 -10 -14 -10 -12 0 -21 5 -21 10 0 6 6 10 14 10 8 0 18
-4 21 -10z m-70 -20 c3 -5 1 -10 -4 -10 -6 0 -11 5 -11 10 0 6 2 10 4 10 3 0
8 -4 11 -10z m-178 -66 c-3 -3 -12 -4 -19 -1 -8 3 -5 6 6 6 11 1 17 -2 13 -5z
m-21 -71 c-2 -15 -8 -29 -15 -31 -12 -4 -13 3 -5 36 9 31 23 28 20 -5z m248
-28 c-4 -8 -10 -12 -15 -9 -11 6 -2 24 11 24 5 0 7 -7 4 -15z m0 -56 c-3 -5
-10 -7 -15 -3 -5 3 -7 10 -3 15 3 5 10 7 15 3 5 -3 7 -10 3 -15z m-308 -114
c10 -8 14 -15 7 -15 -19 0 -43 11 -43 21 0 13 14 11 36 -6z m-25 -45 c4 0 5
-9 2 -19 -9 -34 -33 -13 -32 28 0 33 1 34 11 14 6 -13 14 -23 19 -23z m112 23
c-7 -2 -21 -2 -30 0 -10 3 -4 5 12 5 17 0 24 -2 18 -5z m117 -24 c0 -6 -4 -7
-10 -4 -5 3 -10 11 -10 16 0 6 5 7 10 4 6 -3 10 -11 10 -16z m-360 -54 c0 -8
-4 -17 -10 -20 -6 -4 -10 5 -10 20 0 15 4 24 10 20 6 -3 10 -12 10 -20z m75 5
c3 -5 -1 -10 -9 -10 -9 0 -16 5 -16 10 0 6 4 10 9 10 6 0 13 -4 16 -10z m94
-31 c-20 -12 -22 -4 -8 23 12 21 13 21 17 4 2 -10 -2 -22 -9 -27z m-269 11 c0
-13 -5 -18 -15 -14 -8 4 -15 12 -15 20 0 8 7 14 15 14 8 0 15 -9 15 -20z m140
-15 c0 -3 -9 -15 -20 -27 -21 -23 -28 -7 -7 17 12 14 27 20 27 10z m-90 -35
c0 -5 -4 -10 -10 -10 -5 0 -10 5 -10 10 0 6 5 10 10 10 6 0 10 -4 10 -10z
m840 -15 c0 -8 -4 -15 -10 -15 -5 0 -10 7 -10 15 0 8 5 15 10 15 6 0 10 -7 10
-15z m-520 -5 c0 -5 -4 -10 -10 -10 -5 0 -10 5 -10 10 0 6 5 10 10 10 6 0 10
-4 10 -10z m190 -10 c0 -5 -2 -10 -4 -10 -3 0 -8 5 -11 10 -3 6 -1 10 4 10 6
0 11 -4 11 -10z m200 0 c0 -5 -4 -10 -10 -10 -5 0 -10 5 -10 10 0 6 5 10 10
10 6 0 10 -4 10 -10z m-685 -11 c4 -6 13 -8 20 -5 16 6 30 -10 38 -41 4 -18 1
-23 -15 -23 -10 0 -29 -5 -40 -11 -19 -10 -20 -9 -15 13 6 22 2 26 -36 38 -31
10 -37 15 -22 18 11 2 24 8 30 13 12 12 32 11 40 -2z m89 2 c3 -5 -1 -12 -10
-15 -22 -9 -24 -8 -24 9 0 16 25 21 34 6z m13 -83 c-3 -8 -6 -5 -6 6 -1 11 2
17 5 13 3 -3 4 -12 1 -19z m73 -8 c0 -5 -2 -10 -4 -10 -3 0 -8 5 -11 10 -3 6
-1 10 4 10 6 0 11 -4 11 -10z m-183 -72 c-2 -13 -4 -3 -4 22 0 25 2 35 4 23 2
-13 2 -33 0 -45z m93 58 c0 -3 -4 -8 -10 -11 -5 -3 -10 -1 -10 4 0 6 5 11 10
11 6 0 10 -2 10 -4z m30 -26 c0 -5 -7 -10 -15 -10 -8 0 -15 5 -15 10 0 6 7 10
15 10 8 0 15 -4 15 -10z m-30 -41 c0 -6 -4 -7 -10 -4 -5 3 -10 11 -10 16 0 6
5 7 10 4 6 -3 10 -11 10 -16z m60 -30 c-10 -17 -30 -27 -30 -13 0 15 22 44 31
39 5 -4 5 -13 -1 -26z m-130 -9 c0 -5 -4 -10 -10 -10 -5 0 -10 -10 -11 -22 l0
-23 -10 23 c-5 13 -7 28 -3 33 7 12 34 11 34 -1z m167 -32 c-3 -8 -6 -5 -6 6
-1 11 2 17 5 13 3 -3 4 -12 1 -19z m138 12 c3 -5 -3 -10 -14 -10 -12 0 -21 5
-21 10 0 6 6 10 14 10 8 0 18 -4 21 -10z m-401 -67 c7 -8 12 -9 39 -12 7 0 22
-7 33 -15 18 -14 18 -15 -6 -24 -30 -11 -50 -5 -50 14 0 19 -36 18 -44 -2 -9
-23 -29 -12 -33 19 -3 24 0 27 25 27 16 0 32 -3 36 -7z m336 -8 c11 -13 10
-14 -4 -9 -9 3 -16 10 -16 15 0 13 6 11 20 -6z m-172 -27 c-7 -19 -45 -21 -51
-4 -5 12 1 16 24 16 20 0 29 -4 27 -12z m-361 -84 c2 -7 -12 -21 -30 -33 -32
-19 -35 -25 -33 -67 1 -45 1 -45 -17 -23 -14 17 -15 24 -5 30 7 4 9 11 5 15
-13 14 -36 -30 -30 -58 9 -44 -1 -58 -35 -48 -19 5 -34 4 -41 -3 -6 -6 -12 -9
-14 -6 -8 9 -16 69 -9 69 28 -1 52 -15 52 -31 0 -11 5 -19 10 -19 6 0 10 16
10 35 0 24 -5 35 -15 35 -8 0 -15 8 -15 18 0 21 36 46 45 32 11 -17 33 -11 40
10 5 14 12 19 24 15 15 -5 17 -1 13 21 -4 22 -2 25 18 22 13 -1 25 -8 27 -14z
m203 -5 c0 -5 -4 -9 -10 -9 -5 0 -10 7 -10 16 0 8 5 12 10 9 6 -3 10 -10 10
-16z m-160 -39 c0 -19 -11 -26 -23 -14 -8 8 3 34 14 34 5 0 9 -9 9 -20z m260
16 c0 -3 -4 -8 -10 -11 -5 -3 -10 -1 -10 4 0 6 5 11 10 11 6 0 10 -2 10 -4z
m182 -41 c0 -5 -5 -11 -11 -13 -6 -2 -11 4 -11 13 0 9 5 15 11 13 6 -2 11 -8
11 -13z m-402 -15 c0 -11 3 -20 8 -20 4 0 13 9 20 20 15 25 38 26 46 3 5 -13
9 -14 15 -5 5 8 16 -1 34 -28 l26 -40 -25 6 c-14 4 -31 1 -39 -6 -13 -10 -15
-9 -15 9 0 15 4 20 13 15 6 -4 3 2 -7 14 -27 31 -44 28 -39 -5 9 -58 13 -72
29 -87 8 -9 11 -16 5 -16 -6 0 -11 -11 -11 -25 0 -17 -6 -25 -17 -25 -13 0
-14 3 -5 12 17 17 15 63 -3 78 -8 6 -23 9 -35 5 -18 -6 -20 -4 -14 19 4 19 2
28 -10 32 -9 3 -16 17 -16 31 0 13 4 21 10 18 6 -3 10 -1 10 4 0 6 5 11 10 11
6 0 10 -9 10 -20z m115 -89 c3 -5 1 -12 -5 -16 -5 -3 -10 1 -10 9 0 18 6 21
15 7z m199 -50 c-6 -6 -24 19 -24 34 1 6 7 1 15 -9 8 -11 12 -22 9 -25z m456
-11 c0 -5 -4 -10 -10 -10 -5 0 -10 5 -10 10 0 6 5 10 10 10 6 0 10 -4 10 -10z
m-650 -10 c0 -5 -4 -10 -10 -10 -5 0 -10 5 -10 10 0 6 5 10 10 10 6 0 10 -4
10 -10z m-245 -80 c3 -5 -1 -10 -9 -10 -8 0 -18 5 -21 10 -3 6 1 10 9 10 8 0
18 -4 21 -10z m105 1 c0 -6 -4 -13 -10 -16 -5 -3 -10 1 -10 9 0 9 5 16 10 16
6 0 10 -4 10 -9z m320 -21 c0 -5 -4 -10 -10 -10 -5 0 -10 5 -10 10 0 6 5 10
10 10 6 0 10 -4 10 -10z m-170 -85 c0 -8 -4 -15 -10 -15 -5 0 -7 7 -4 15 4 8
8 15 10 15 2 0 4 -7 4 -15z m-113 -12 c6 -16 -46 -26 -63 -12 -8 6 -14 15 -14
20 0 12 73 5 77 -8z m-267 -23 c0 -21 20 -29 20 -7 0 6 5 4 11 -6 6 -10 8 -25
5 -32 -6 -17 -36 -9 -36 9 0 6 -9 18 -20 26 -11 8 -20 18 -20 22 0 4 9 8 20 8
13 0 20 -7 20 -20z m145 -41 c-10 -15 -25 -10 -19 6 4 8 10 12 15 9 5 -3 7
-10 4 -15z m50 1 c-3 -5 -10 -10 -16 -10 -5 0 -9 5 -9 10 0 6 7 10 16 10 8 0
12 -4 9 -10z m50 0 c3 -5 -1 -10 -9 -10 -8 0 -18 5 -21 10 -3 6 1 10 9 10 8 0
18 -4 21 -10z m-64 -42 c20 -24 26 -68 9 -68 -5 0 -10 11 -10 24 0 14 -7 31
-15 40 -8 8 -15 17 -15 20 0 12 12 5 31 -16z m-41 -8 c0 -5 -4 -10 -10 -10 -5
0 -10 5 -10 10 0 6 5 10 10 10 6 0 10 -4 10 -10z m95 0 c3 -5 1 -10 -4 -10 -6
0 -11 5 -11 10 0 6 2 10 4 10 3 0 8 -4 11 -10z m172 4 c-3 -3 -12 -4 -19 -1
-8 3 -5 6 6 6 11 1 17 -2 13 -5z m-498 -44 c-51 -7 -71 4 -45 23 15 11 24 11
53 -2 l35 -16 -43 -5z m91 -2 c0 -13 3 -33 6 -45 6 -21 3 -23 -32 -22 -32 0
-35 2 -19 10 18 8 18 8 -5 6 -14 -1 -25 -6 -24 -12 1 -14 -22 -35 -38 -35 -9
1 -8 4 3 10 11 6 15 18 11 35 -4 24 -2 25 38 25 40 0 42 2 38 25 -4 17 -1 25
8 25 8 0 14 -10 14 -22z m50 -12 c0 -3 -7 -6 -15 -6 -9 0 -15 9 -15 21 0 18 2
19 15 5 8 -8 15 -17 15 -20z m92 22 c-7 -7 -12 -21 -13 -32 0 -21 0 -21 -8 -1
-11 26 -3 45 17 45 12 0 13 -3 4 -12z m-424 -71 c3 -32 0 -37 -17 -37 -23 0
-24 3 -15 49 9 42 28 34 32 -12z m139 11 c-3 -7 -5 -2 -5 12 0 14 2 19 5 13 2
-7 2 -19 0 -25z m215 -10 c-7 -7 -12 -8 -12 -2 0 14 12 26 19 19 2 -3 -1 -11
-7 -17z m38 12 c0 -5 -4 -10 -10 -10 -5 0 -10 5 -10 10 0 6 5 10 10 10 6 0 10
-4 10 -10z m290 -20 c11 -7 7 -10 -17 -10 -18 0 -33 5 -33 10 0 13 30 13 50 0z
m-530 -50 c0 -5 7 -10 16 -10 13 0 14 -3 5 -14 -7 -8 -11 -23 -9 -33 2 -14 -3
-17 -24 -15 -24 3 -28 0 -28 -23 0 -15 -4 -24 -10 -20 -5 3 -10 15 -10 26 0
23 -9 24 -36 5 -27 -20 -48 -3 -31 25 10 16 9 21 -3 29 -8 5 -11 13 -6 17 5 4
11 2 13 -4 3 -7 13 -13 24 -13 10 0 19 -6 19 -14 0 -21 29 -28 46 -12 8 8 14
26 14 40 0 14 5 26 10 26 6 0 10 -4 10 -10z m75 -54 c0 -9 7 -21 15 -27 11 -8
9 -9 -9 -4 -20 6 -23 4 -17 -10 5 -13 2 -16 -10 -11 -8 3 -18 6 -20 6 -2 0 -4
5 -4 10 0 6 7 10 16 10 12 0 15 6 10 26 -5 19 -3 25 6 22 7 -3 13 -12 13 -22z
m145 -36 c0 -5 -2 -10 -4 -10 -3 0 -8 5 -11 10 -3 6 -1 10 4 10 6 0 11 -4 11
-10z m-200 -20 c8 -5 12 -12 9 -15 -8 -8 -39 5 -39 16 0 11 11 11 30 -1z
m-153 -20 c18 0 33 5 33 10 0 6 7 10 15 10 22 0 18 -17 -5 -23 -12 -3 -20 -14
-20 -26 0 -14 -6 -21 -20 -21 -22 0 -27 15 -7 23 6 3 0 6 -15 6 -24 1 -28 -3
-28 -25 0 -14 -4 -23 -8 -20 -4 2 -6 23 -4 46 3 30 7 39 15 31 6 -6 26 -11 44
-11z m-320 -52 c-3 -8 -6 -5 -6 6 -1 11 2 17 5 13 3 -3 4 -12 1 -19z m460 -4
c2 -5 -12 -9 -29 -9 -18 0 -43 -4 -55 -8 -13 -5 -23 -4 -23 1 0 9 76 31 94 28
6 -1 11 -6 13 -12z m-304 -10 c9 -9 -4 -35 -14 -28 -5 3 -9 12 -9 20 0 14 12
19 23 8z m-173 -91 c0 -23 -14 -31 -25 -13 -3 5 -3 21 1 35 5 20 9 23 15 13 5
-7 9 -23 9 -35z m797 21 c-9 -9 -28 6 -21 18 4 6 10 6 17 -1 6 -6 8 -13 4 -17z
m43 5 c0 -5 -7 -9 -15 -9 -9 0 -12 6 -9 15 6 15 24 11 24 -6z m-484 -16 c-10
-10 -19 5 -10 18 6 11 8 11 12 0 2 -7 1 -15 -2 -18z m-86 7 c0 -5 -7 -10 -15
-10 -8 0 -15 5 -15 10 0 6 7 10 15 10 8 0 15 -4 15 -10z m45 -9 c0 -23 -22
-24 -28 -1 -4 16 -1 20 11 18 9 -2 17 -10 17 -17z m315 9 c0 -5 -4 -10 -10
-10 -5 0 -10 5 -10 10 0 6 5 10 10 10 6 0 10 -4 10 -10z m-532 -19 c24 -21 28
-31 10 -31 -14 0 -48 30 -48 42 0 13 13 9 38 -11z m388 -16 c9 -8 25 -15 37
-15 16 0 18 -3 10 -11 -15 -15 -73 7 -73 27 0 18 8 18 26 -1z m244 5 c0 -5 -7
-10 -15 -10 -8 0 -15 5 -15 10 0 6 7 10 15 10 8 0 15 -4 15 -10z m-710 -45 c0
-18 -5 -25 -20 -25 -24 0 -26 13 -4 34 21 21 24 20 24 -9z m-60 -15 c11 -8 9
-9 -12 -8 -16 1 -28 6 -28 10 0 11 22 10 40 -2z m520 -4 c0 -11 -19 -15 -25
-6 -3 5 1 10 9 10 9 0 16 -2 16 -4z m-357 -63 c-7 -2 -19 -2 -25 0 -7 3 -2 5
12 5 14 0 19 -2 13 -5z m67 -13 c0 -5 -4 -10 -10 -10 -5 0 -10 5 -10 10 0 6 5
10 10 10 6 0 10 -4 10 -10z m210 -184 c0 -2 -7 -7 -16 -10 -8 -3 -12 -2 -9 4
6 10 25 14 25 6z m-1250 -320 c0 -2 -3 -11 -6 -20 -9 -23 -24 -20 -24 4 0 11
7 20 15 20 8 0 15 -2 15 -4z m-318 -38 c-7 -7 -12 -8 -12 -2 0 14 12 26 19 19
2 -3 -1 -11 -7 -17z m1408 -32 c0 -3 -4 -8 -10 -11 -5 -3 -10 -1 -10 4 0 6 5
11 10 11 6 0 10 -2 10 -4z m-1090 -26 c0 -13 7 -20 20 -20 22 0 93 -67 80 -75
-5 -3 -17 3 -27 15 -10 11 -29 20 -43 20 l-25 0 30 -20 c17 -11 25 -20 18 -20
-6 0 -15 5 -18 10 -3 6 -13 10 -21 10 -8 0 -13 -4 -10 -9 3 -5 -1 -11 -9 -15
-12 -4 -15 6 -15 59 0 37 4 65 10 65 6 0 10 -9 10 -20z m-196 -67 c4 -4 15 -8
24 -8 9 0 18 -6 18 -12 1 -7 2 -20 3 -28 0 -8 10 -15 22 -15 15 0 19 5 15 15
-3 10 1 15 14 15 29 0 36 -21 12 -41 -12 -9 -22 -23 -22 -30 0 -7 3 -9 7 -6 3
4 13 1 21 -6 13 -9 14 -9 8 1 -5 8 1 12 20 12 23 0 25 -2 14 -15 -46 -56 -140
-104 -140 -72 0 9 6 20 13 24 23 13 29 59 11 74 -14 12 -16 9 -12 -20 3 -35
-22 -65 -39 -47 -4 5 -2 11 5 13 6 3 10 9 6 14 -8 13 -34 -16 -34 -38 0 -15
-2 -16 -10 -3 -8 12 -10 12 -15 -2 -5 -12 -18 -16 -45 -15 -35 1 -39 4 -45 35
-3 19 -5 35 -3 37 7 7 35 8 60 1 40 -11 68 1 68 30 0 13 5 24 10 24 6 0 10 -4
10 -10 0 -5 5 -10 10 -10 6 0 10 9 10 20 0 15 -6 19 -22 17 -18 -2 -24 4 -26
26 -3 26 14 37 32 20z m106 -3 c0 -5 -12 -10 -26 -10 -14 0 -23 4 -19 10 3 6
15 10 26 10 10 0 19 -4 19 -10z m520 -30 c0 -5 -2 -10 -4 -10 -3 0 -8 5 -11
10 -3 6 -1 10 4 10 6 0 11 -4 11 -10z m-340 -25 c0 -8 -4 -15 -10 -15 -5 0
-10 7 -10 15 0 8 5 15 10 15 6 0 10 -7 10 -15z m550 -9 c0 -11 -19 -15 -25 -6
-3 5 1 10 9 10 9 0 16 -2 16 -4z m-680 -16 c0 -5 -5 -10 -11 -10 -5 0 -7 5 -4
10 3 6 8 10 11 10 2 0 4 -4 4 -10z m110 -30 c0 -5 -4 -10 -10 -10 -5 0 -10 5
-10 10 0 6 5 10 10 10 6 0 10 -4 10 -10z m-53 -26 c-3 -3 -12 -4 -19 -1 -8 3
-5 6 6 6 11 1 17 -2 13 -5z m113 -8 c0 -17 -38 -28 -46 -14 -7 11 13 28 34 28
6 0 12 -6 12 -14z m105 -55 c3 -6 -3 -9 -14 -8 -11 0 -17 5 -15 9 7 11 22 10
29 -1z m-522 -28 c-3 -7 -20 -13 -39 -13 -45 0 -36 25 10 26 24 0 33 -3 29
-13z m80 10 c-7 -2 -19 -2 -25 0 -7 3 -2 5 12 5 14 0 19 -2 13 -5z m-171 -57
c5 -7 -3 -13 -20 -17 -17 -3 -26 -10 -23 -20 2 -8 6 -22 8 -31 3 -10 0 -18 -6
-18 -5 0 -17 -12 -25 -27 -14 -26 -15 -27 -16 -6 0 15 -8 25 -24 29 -26 6 -40
29 -30 46 3 5 13 7 21 4 9 -4 17 1 20 13 3 13 11 17 24 14 14 -4 19 0 19 17 0
18 4 20 23 14 12 -4 25 -12 29 -18z m298 14 c0 -5 -5 -10 -11 -10 -5 0 -7 5
-4 10 3 6 8 10 11 10 2 0 4 -4 4 -10z m-60 -20 c0 -5 -4 -10 -10 -10 -5 0 -10
5 -10 10 0 6 5 10 10 10 6 0 10 -4 10 -10z m815 -10 c3 -5 1 -10 -4 -10 -6 0
-11 5 -11 10 0 6 2 10 4 10 3 0 8 -4 11 -10z m-967 -7 c-10 -2 -28 -2 -40 0
-13 2 -5 4 17 4 22 1 32 -1 23 -4z m122 -13 c0 -5 -4 -10 -10 -10 -5 0 -10 5
-10 10 0 6 5 10 10 10 6 0 10 -4 10 -10z m-60 -4 c0 -3 -4 -8 -10 -11 -5 -3
-10 -1 -10 4 0 6 5 11 10 11 6 0 10 -2 10 -4z m-310 -27 c0 -15 -7 -19 -32
-19 -30 1 -31 2 -16 14 10 7 16 15 13 17 -2 3 5 5 15 6 14 1 20 -5 20 -18z
m235 11 c-3 -5 -10 -10 -16 -10 -5 0 -9 5 -9 10 0 6 7 10 16 10 8 0 12 -4 9
-10z m515 -21 c0 -12 -6 -16 -19 -12 -10 3 -22 0 -25 -6 -9 -14 -26 -14 -26 0
0 16 27 35 51 35 11 0 19 -7 19 -17z m-474 -14 c18 -14 17 -14 -12 -15 -19 0
-34 6 -38 15 -7 20 24 20 50 0z m-266 -25 c0 -5 -4 -10 -9 -10 -6 0 -13 5 -16
10 -3 6 1 10 9 10 9 0 16 -4 16 -10z m368 -40 c17 -15 33 -25 35 -21 2 3 2 0
0 -7 -1 -8 -3 -22 -3 -32 0 -27 -46 -23 -66 7 -10 17 -22 23 -35 20 -10 -3
-22 -1 -25 4 -8 13 -21 11 -22 -3 0 -7 -3 -26 -7 -41 -3 -17 -2 -26 4 -23 5 3
8 -2 7 -11 0 -9 5 -18 12 -20 6 -3 12 2 12 9 0 8 10 14 21 15 21 2 21 1 3 -12
-17 -13 -18 -14 -2 -15 10 0 23 9 30 20 16 25 68 28 68 4 0 -45 -53 -84 -116
-84 -34 0 -36 2 -31 26 3 18 1 22 -6 15 -19 -19 -43 -12 -55 14 -27 59 -2 142
39 132 14 -4 19 -1 17 11 -2 11 7 18 27 22 41 8 57 3 93 -30z m1022 18 c-1
-31 -41 -192 -51 -204 -9 -11 -58 -14 -235 -14 -123 0 -224 2 -224 4 0 2 9 48
20 102 13 62 27 104 37 112 12 9 76 12 235 12 168 0 218 -3 218 -12z m240 -1
c0 -6 5 -5 13 0 6 6 45 11 85 12 l72 2 2 -83 2 -83 5 80 6 80 48 3 47 3 0
-116 c0 -63 1 -118 3 -122 1 -4 -17 -9 -40 -11 -37 -2 -42 0 -52 25 -10 26
-10 26 -8 4 1 -13 -4 -26 -10 -28 -9 -3 -13 5 -13 24 0 15 -4 23 -8 17 -4 -6
-14 -14 -22 -17 -12 -4 -11 -6 3 -6 9 -1 17 -6 17 -12 0 -6 -22 -10 -58 -8
-32 1 -64 -1 -72 -6 -8 -5 -18 -1 -27 10 -7 11 -13 13 -13 7 0 -7 -16 -12 -40
-12 l-40 0 0 125 0 126 50 -2 c28 -2 50 -7 50 -12z m-1032 -38 c2 -21 8 -26
26 -25 16 1 22 6 18 18 -3 15 0 16 26 9 16 -5 39 -14 51 -20 26 -14 28 -51 4
-52 -17 -1 -17 -2 0 -6 38 -10 9 -59 -40 -69 -25 -5 -33 -3 -33 8 0 7 -9 14
-20 14 -11 0 -20 -4 -20 -9 0 -5 -10 -7 -22 -5 -16 2 -26 13 -33 36 -7 26 -13
31 -30 26 -32 -10 -44 -26 -14 -19 22 6 27 3 31 -18 4 -22 1 -26 -29 -30 -40
-7 -91 12 -71 25 10 6 8 8 -4 8 -23 0 -33 42 -17 72 7 12 13 26 14 30 0 3 4
10 9 15 5 5 6 2 1 -6 -6 -10 -1 -12 21 -7 17 4 40 0 57 -8 26 -14 27 -14 27 8
0 12 3 26 7 30 15 14 38 0 41 -25z m289 -81 c-3 -8 -6 -5 -6 6 -1 11 2 17 5
13 3 -3 4 -12 1 -19z m-720 -10 c-3 -8 -6 -5 -6 6 -1 11 2 17 5 13 3 -3 4 -12
1 -19z m-554 -28 c9 -11 17 -25 17 -30 0 -6 8 -10 18 -11 14 0 14 -2 -3 -8
-16 -7 -22 -2 -32 20 -7 16 -19 29 -28 29 -8 0 -15 5 -15 10 0 17 25 11 43
-10z m-73 -67 c0 -7 -4 -13 -10 -13 -5 0 -10 -9 -10 -19 0 -11 -4 -23 -10 -26
-5 -3 -10 1 -10 9 0 9 -2 16 -4 16 -2 0 -11 3 -20 6 -12 5 -16 0 -16 -18 0
-13 5 -29 11 -35 15 -15 3 -33 -22 -33 -11 0 -19 7 -19 18 -1 9 -7 34 -14 55
-15 40 -11 47 10 20 13 -17 15 -17 33 5 11 12 24 22 29 22 6 0 14 10 18 22 6
21 7 21 20 3 8 -10 14 -25 14 -32z m28 36 c-2 -6 -8 -10 -13 -10 -5 0 -11 4
-13 10 -2 6 4 11 13 11 9 0 15 -5 13 -11z m1039 -15 c-3 -3 -12 -4 -19 -1 -8
3 -5 6 6 6 11 1 17 -2 13 -5z m-362 -14 c3 -5 1 -10 -4 -10 -6 0 -11 5 -11 10
0 6 2 10 4 10 3 0 8 -4 11 -10z m48 -7 c-7 -2 -19 -2 -25 0 -7 3 -2 5 12 5 14
0 19 -2 13 -5z m-274 -78 c0 -5 -6 -2 -13 7 -7 10 -17 14 -22 10 -4 -4 -2 1 6
11 14 18 14 18 21 0 4 -10 8 -22 8 -28z m-299 5 c0 -5 -2 -10 -4 -10 -3 0 -8
5 -11 10 -3 6 -1 10 4 10 6 0 11 -4 11 -10z m490 0 c0 -5 -4 -10 -10 -10 -5 0
-10 5 -10 10 0 6 5 10 10 10 6 0 10 -4 10 -10z m-540 -20 c0 -5 -8 -10 -17
-10 -15 0 -16 2 -3 10 19 12 20 12 20 0z m340 -14 c0 -3 -4 -8 -10 -11 -5 -3
-10 -1 -10 4 0 6 5 11 10 11 6 0 10 -2 10 -4z m-375 -25 c-3 -6 -11 -11 -17
-11 -6 0 -6 6 2 15 14 17 26 13 15 -4z m245 9 c0 -5 -5 -10 -11 -10 -5 0 -7 5
-4 10 3 6 8 10 11 10 2 0 4 -4 4 -10z m210 0 c0 -5 -5 -10 -11 -10 -5 0 -7 5
-4 10 3 6 8 10 11 10 2 0 4 -4 4 -10z m100 -40 c0 -5 -4 -10 -10 -10 -5 0 -10
5 -10 10 0 6 5 10 10 10 6 0 10 -4 10 -10z m-489 -21 c7 -15 8 -24 0 -32 -15
-15 -71 11 -71 34 0 28 55 26 71 -2z m103 -11 c3 -13 1 -27 -5 -33 -7 -7 -8
-5 -4 6 4 10 0 19 -9 22 -20 8 -21 27 -2 27 7 0 16 -10 20 -22z m-230 -4 c23
-9 20 -24 -4 -24 -11 0 -20 7 -20 15 0 17 2 18 24 9z m766 -4 c0 -5 -2 -10 -4
-10 -3 0 -8 5 -11 10 -3 6 -1 10 4 10 6 0 11 -4 11 -10z m-832 -27 c17 -38 15
-43 -13 -43 -30 0 -41 20 -25 49 14 28 22 26 38 -6z m1192 11 c0 -8 -5 -12
-10 -9 -6 4 -8 11 -5 16 9 14 15 11 15 -7z m190 -24 c0 -5 -4 -10 -10 -10 -5
0 -10 5 -10 10 0 6 5 10 10 10 6 0 10 -4 10 -10z m-1126 -35 c-16 -24 -18 -25
-35 -9 -28 25 -23 34 16 34 l35 0 -16 -25z m-474 -41 c0 -15 -6 -24 -15 -24
-8 0 -15 7 -15 15 0 8 -4 15 -10 15 -5 0 -10 -8 -10 -17 0 -14 -2 -15 -12 -4
-11 10 -8 16 11 31 30 22 51 16 51 -16z m580 20 c0 -8 -5 -12 -10 -9 -6 4 -8
11 -5 16 9 14 15 11 15 -7z m-234 -14 c10 0 14 -12 14 -40 0 -38 -2 -40 -30
-40 -20 0 -30 5 -30 15 0 8 -8 15 -18 15 -19 0 -42 18 -42 33 0 5 11 2 25 -7
30 -20 35 -20 35 -1 0 19 24 47 28 34 2 -5 10 -9 18 -9z m-430 -7 c15 -21 18
-33 6 -33 -5 0 -14 11 -20 25 -13 29 -5 33 14 8z m194 -23 c0 -16 -4 -30 -10
-30 -5 0 -10 14 -10 30 0 17 5 30 10 30 6 0 10 -13 10 -30z m540 8 c0 -11 -87
-10 -94 1 -3 5 17 8 44 8 28 0 50 -4 50 -9z m-440 -18 c0 -5 7 -10 15 -10 8 0
15 -4 15 -10 0 -5 -7 -10 -15 -10 -8 0 -15 5 -15 10 0 6 -9 10 -21 10 -11 0
-17 5 -14 10 3 6 13 10 21 10 8 0 14 -4 14 -10z m-370 -35 c0 -7 7 -18 15 -22
9 -5 11 -13 6 -22 -7 -11 -13 -10 -34 4 -16 10 -34 14 -47 10 -25 -8 -27 -37
-2 -33 13 2 18 -5 20 -34 2 -22 -1 -38 -7 -38 -6 0 -11 12 -11 26 0 19 -4 25
-15 20 -10 -4 -15 1 -15 14 0 11 -7 20 -15 20 -11 0 -5 11 17 34 35 37 88 49
88 21z m378 -19 c9 -21 8 -23 -9 -19 -21 6 -42 36 -33 46 10 10 31 -4 42 -27z
m192 4 c0 -13 -5 -17 -20 -13 -16 4 -18 9 -9 24 12 23 29 16 29 -11z m-434
-52 c-1 -17 4 -22 20 -21 17 2 21 -4 23 -42 2 -51 -16 -62 -21 -13 -2 27 -8
34 -30 38 -21 4 -25 9 -19 19 5 8 7 20 4 28 -3 7 1 13 9 13 9 0 14 -9 14 -22z
m334 -18 c0 -11 -4 -20 -10 -20 -5 0 -10 9 -10 20 0 11 5 20 10 20 6 0 10 -9
10 -20z m-200 0 c0 -5 7 -7 15 -4 11 5 15 -1 15 -20 0 -14 -4 -26 -10 -26 -5
0 -10 7 -10 15 0 9 -7 18 -15 21 -17 7 -20 24 -5 24 6 0 10 -4 10 -10z m255 0
c3 -5 1 -10 -4 -10 -6 0 -11 5 -11 10 0 6 2 10 4 10 3 0 8 -4 11 -10z m-295
-8 c0 -13 -12 -22 -22 -16 -10 6 -1 24 13 24 5 0 9 -4 9 -8z m-482 -51 c-30
-25 -46 -15 -19 10 12 11 21 25 21 32 0 7 5 4 11 -6 8 -14 6 -22 -13 -36z
m318 35 c21 -21 18 -26 -16 -26 -23 0 -30 4 -30 20 0 23 25 27 46 6z m58 -21
c6 -18 -2 -45 -15 -45 -5 0 -9 14 -9 30 0 32 14 40 24 15z m346 -5 c0 -5 -2
-10 -4 -10 -3 0 -8 5 -11 10 -3 6 -1 10 4 10 6 0 11 -4 11 -10z m-535 -21 c0
-8 -8 -21 -19 -30 -19 -16 -15 -61 6 -56 13 3 19 -31 7 -39 -6 -4 -6 -11 1
-19 7 -8 9 -19 5 -25 -13 -21 -23 -9 -23 26 0 35 -17 58 -34 48 -4 -3 -7 -23
-6 -45 1 -36 -6 -58 -16 -48 -10 11 -15 79 -5 79 5 0 7 5 4 10 -3 6 -2 10 4
10 5 0 12 14 16 30 4 17 13 30 21 30 8 0 14 10 14 26 0 16 5 24 13 22 6 -3 12
-11 12 -19z m55 14 c0 -5 -5 -15 -10 -23 -8 -12 -10 -11 -10 8 0 12 5 22 10
22 6 0 10 -3 10 -7z m270 -8 c0 -8 -4 -15 -10 -15 -5 0 -10 7 -10 15 0 8 5 15
10 15 6 0 10 -7 10 -15z m-650 -21 c0 -18 -23 -44 -39 -44 -6 0 -11 6 -11 14
0 8 -3 21 -6 30 -5 13 1 16 25 16 22 0 31 -5 31 -16z m-1350 0 c0 -3 -5 -14
-10 -25 -16 -28 -32 -23 -18 6 10 22 28 35 28 19z m1563 -35 c-8 -15 -24 -29
-38 -32 -20 -3 -27 1 -31 20 -8 28 3 44 16 23 8 -12 10 -12 15 2 4 9 16 15 29
14 20 -1 21 -3 9 -27z m-127 -1 c-2 -32 -26 -35 -26 -4 0 15 6 26 14 26 7 0
13 -9 12 -22z m564 12 c0 -5 -4 -10 -10 -10 -5 0 -10 5 -10 10 0 6 5 10 10 10
6 0 10 -4 10 -10z m50 0 c0 -5 -4 -10 -9 -10 -6 0 -13 5 -16 10 -3 6 1 10 9
10 9 0 16 -4 16 -10z m-246 -51 c-4 -6 -11 -6 -20 2 -21 17 -17 31 6 19 11 -6
18 -15 14 -21z m-420 3 c3 -5 -3 -22 -13 -38 -10 -16 -20 -42 -23 -57 -5 -23
-1 -30 18 -37 17 -7 22 -14 17 -27 -6 -15 -8 -15 -17 -1 -9 14 -12 15 -33 1
-13 -8 -23 -21 -23 -28 0 -8 -8 -11 -19 -8 -10 2 -25 -3 -34 -12 -15 -14 -19
-14 -47 0 -16 8 -30 20 -30 25 0 14 13 12 36 -5 25 -19 34 -19 34 1 0 12 6 15
23 10 16 -4 27 1 37 17 29 43 30 55 7 61 -40 11 -56 6 -60 -16 -3 -22 -4 -22
-11 -3 -4 11 -12 29 -18 40 -10 18 -9 18 5 7 11 -10 21 -11 35 -3 11 6 22 8
25 5 12 -12 47 8 47 27 0 10 5 19 10 19 6 0 10 7 10 15 0 16 15 20 24 7z m673
2 c-3 -3 -12 -4 -19 -1 -8 3 -5 6 6 6 11 1 17 -2 13 -5z m-2031 -20 c-3 -9 -6
-23 -6 -31 0 -22 -6 -14 -14 20 -5 21 -3 27 10 27 11 0 14 -5 10 -16z m1294
-14 c0 -16 -4 -30 -9 -30 -5 0 -11 14 -13 30 -3 20 0 30 9 30 8 0 13 -12 13
-30z m145 20 c3 -5 1 -10 -4 -10 -6 0 -11 5 -11 10 0 6 2 10 4 10 3 0 8 -4 11
-10z m752 -22 c-3 -8 -6 -5 -6 6 -1 11 2 17 5 13 3 -3 4 -12 1 -19z m-717 -8
c0 -11 -4 -20 -10 -20 -5 0 -10 9 -10 20 0 11 5 20 10 20 6 0 10 -9 10 -20z
m-466 -36 c9 -23 8 -24 -14 -24 -11 0 -20 2 -20 4 0 12 13 36 20 36 4 0 11 -7
14 -16z m1356 -4 c0 -5 -4 -10 -10 -10 -5 0 -10 5 -10 10 0 6 5 10 10 10 6 0
10 -4 10 -10z m-1180 -25 c0 -9 -9 -15 -24 -15 -35 0 -42 18 -9 23 16 2 29 5
31 6 1 0 2 -6 2 -14z m-123 -27 c-3 -7 -5 -2 -5 12 0 14 2 19 5 13 2 -7 2 -19
0 -25z m1263 18 c0 -3 -4 -8 -10 -11 -5 -3 -10 -1 -10 4 0 6 5 11 10 11 6 0
10 -2 10 -4z m-1400 -51 c0 -19 5 -35 10 -35 6 0 10 -4 10 -8 0 -12 -32 -11
-47 1 -7 5 -13 25 -13 43 0 27 4 34 20 34 16 0 20 -7 20 -35z m72 -1 c-8 -46
7 -134 24 -141 8 -3 14 -15 13 -27 0 -16 -2 -17 -7 -5 -7 15 -22 35 -53 67
-12 12 -16 35 -16 79 0 58 1 61 21 53 13 -5 20 -15 18 -26z m836 -18 c3 -15 1
-16 -17 -4 -26 16 -27 27 -3 24 9 -2 19 -11 20 -20z m-1852 2 c4 -7 4 -10 -1
-6 -4 4 -14 3 -22 -4 -7 -6 -17 -8 -20 -4 -4 4 -1 11 7 16 20 13 27 12 36 -2z
m1061 -40 c-3 -7 -5 -2 -5 12 0 14 2 19 5 13 2 -7 2 -19 0 -25z m-281 -15 c-4
-4 -11 -1 -16 7 -16 25 -11 35 7 17 9 -9 13 -20 9 -24z m684 17 c0 -5 9 -10
20 -10 11 0 20 -7 20 -15 0 -8 -7 -15 -15 -15 -8 0 -15 5 -15 10 0 6 -3 9 -7
9 -27 -4 -42 3 -37 16 7 17 34 21 34 5z m-1440 -16 c0 -11 -5 -14 -16 -10 -9
3 -20 6 -25 6 -5 0 -9 5 -9 10 0 6 11 10 25 10 16 0 25 -6 25 -16z m530 -4 c0
-11 -4 -20 -10 -20 -5 0 -10 9 -10 20 0 11 5 20 10 20 6 0 10 -9 10 -20z m-40
-25 c0 -14 -4 -25 -10 -25 -5 0 -10 11 -10 25 0 14 5 25 10 25 6 0 10 -11 10
-25z m435 15 c3 -5 1 -10 -4 -10 -6 0 -11 5 -11 10 0 6 2 10 4 10 3 0 8 -4 11
-10z m152 -26 c-3 -3 -12 -4 -19 -1 -8 3 -5 6 6 6 11 1 17 -2 13 -5z m73 -4
c0 -5 -4 -10 -9 -10 -6 0 -13 5 -16 10 -3 6 1 10 9 10 9 0 16 -4 16 -10z
m-880 -15 c0 -8 -4 -15 -10 -15 -5 0 -10 7 -10 15 0 8 5 15 10 15 6 0 10 -7
10 -15z m940 5 c0 -5 -4 -10 -10 -10 -5 0 -10 5 -10 10 0 6 5 10 10 10 6 0 10
-4 10 -10z m-1220 -20 c0 -18 -3 -19 -21 -9 -17 9 -19 13 -8 20 22 14 29 11
29 -11z m324 4 c4 -9 9 -14 12 -11 5 5 44 -28 44 -38 0 -3 -7 -5 -15 -5 -8 0
-15 -5 -15 -11 0 -5 4 -8 9 -5 5 4 20 2 33 -3 23 -10 23 -10 1 -10 -31 -1 -55
-29 -47 -54 6 -18 3 -17 -20 6 -31 31 -32 37 -6 37 13 0 20 7 20 20 0 13 -7
20 -20 20 -16 0 -20 7 -20 35 0 37 13 47 24 19z m186 -18 c0 -8 -4 -18 -10
-21 -5 -3 -10 -20 -10 -37 0 -25 -3 -29 -17 -23 -10 4 -26 10 -36 12 -16 5
-16 7 5 17 14 7 24 22 26 39 2 19 9 27 23 27 10 0 19 -6 19 -14z m129 -15 c9
-16 6 -20 -14 -24 -28 -5 -40 6 -31 28 8 21 33 19 45 -4z m471 -7 c0 -2 -7 -4
-15 -4 -8 0 -15 4 -15 10 0 5 7 7 15 4 8 -4 15 -8 15 -10z m59 -22 c0 -24 -1
-25 -9 -7 -12 28 -12 47 0 40 6 -3 10 -18 9 -33z m-1133 1 c-10 -10 -19 5 -10
18 6 11 8 11 12 0 2 -7 1 -15 -2 -18z m849 17 c3 -5 2 -10 -4 -10 -5 0 -13 5
-16 10 -3 6 -2 10 4 10 5 0 13 -4 16 -10z m-165 -50 c0 -5 -4 -10 -9 -10 -4 0
-20 -11 -35 -25 -28 -26 -34 -22 -12 8 7 9 18 17 25 17 6 0 11 5 11 10 0 6 5
10 10 10 6 0 10 -4 10 -10z m-170 -16 c0 -10 6 -14 15 -10 8 3 15 1 15 -4 0
-6 -16 -10 -35 -10 -38 0 -38 0 -29 24 8 21 34 21 34 0z m667 10 c-3 -3 -12
-4 -19 -1 -8 3 -5 6 6 6 11 1 17 -2 13 -5z m223 -4 c0 -5 -4 -10 -10 -10 -5 0
-10 5 -10 10 0 6 5 10 10 10 6 0 10 -4 10 -10z m-540 -42 c0 -5 -4 -8 -10 -8
-5 0 -10 10 -10 23 0 18 2 19 10 7 5 -8 10 -18 10 -22z m124 11 c-8 -14 -54
-10 -54 4 0 9 10 12 30 9 16 -2 27 -8 24 -13z m-978 -10 c6 -10 -17 -12 -40
-3 -9 3 -14 10 -11 14 6 10 43 1 51 -11z m374 17 c0 -11 -19 -15 -25 -6 -3 5
1 10 9 10 9 0 16 -2 16 -4z m375 -26 c-3 -5 -11 -10 -16 -10 -6 0 -7 5 -4 10
3 6 11 10 16 10 6 0 7 -4 4 -10z m-280 -20 c3 -5 -1 -10 -10 -10 -9 0 -13 5
-10 10 3 6 8 10 10 10 2 0 7 -4 10 -10z m-588 -22 c-3 -8 -6 -5 -6 6 -1 11 2
17 5 13 3 -3 4 -12 1 -19z m313 8 c0 -26 -25 -37 -46 -20 -10 8 -14 13 -7 10
6 -4 18 0 25 8 16 19 28 20 28 2z m130 4 c0 -5 -8 -10 -17 -10 -15 0 -16 2 -3
10 19 12 20 12 20 0z m405 -9 c3 -5 1 -12 -5 -16 -5 -3 -10 1 -10 9 0 18 6 21
15 7z m125 0 c0 -6 -4 -13 -10 -16 -5 -3 -10 1 -10 9 0 9 5 16 10 16 6 0 10
-4 10 -9z m-225 -31 c-5 -8 -11 -8 -17 -2 -6 6 -7 16 -3 22 5 8 11 8 17 2 6
-6 7 -16 3 -22z m-144 -33 c-8 -8 -11 -4 -11 14 0 33 14 47 18 19 2 -12 -1
-27 -7 -33z m-196 33 c3 -5 -3 -10 -14 -10 -12 0 -21 5 -21 10 0 6 6 10 14 10
8 0 18 -4 21 -10z m-315 -21 c0 -11 -4 -17 -10 -14 -5 3 -10 13 -10 21 0 8 5
14 10 14 6 0 10 -9 10 -21z m100 6 c-7 -8 -17 -15 -23 -15 -5 0 -16 -8 -23
-17 -12 -16 -13 -17 -14 -1 0 34 12 48 42 48 26 0 29 -2 18 -15z m-2 -51 c-7
-15 -14 -21 -16 -15 -5 16 5 41 17 41 7 0 6 -10 -1 -26z m312 19 c0 -14 -19
-38 -25 -32 -8 8 5 39 16 39 5 0 9 -3 9 -7z m-455 -23 c3 -5 -3 -10 -14 -10
-12 0 -21 5 -21 10 0 6 6 10 14 10 8 0 18 -4 21 -10z m235 -6 c0 -14 -3 -14
-15 -4 -8 7 -15 14 -15 16 0 2 7 4 15 4 8 0 15 -7 15 -16z m-307 -9 c4 -8 2
-17 -3 -20 -6 -4 -10 -4 -10 -1 0 2 -3 11 -6 20 -3 9 -2 16 4 16 5 0 12 -7 15
-15z m177 -16 c0 -5 -7 -9 -15 -9 -15 0 -20 12 -9 23 8 8 24 -1 24 -14z m250
-9 c0 -5 -13 -10 -29 -10 -17 0 -33 5 -36 10 -4 6 8 10 29 10 20 0 36 -4 36
-10z m-382 -36 c1 -21 -2 -33 -8 -29 -12 7 -14 65 -2 65 4 0 8 -16 10 -36z
m232 27 c0 -6 -4 -13 -10 -16 -5 -3 -10 1 -10 9 0 9 5 16 10 16 6 0 10 -4 10
-9z m-280 -33 c0 -19 -2 -20 -10 -8 -13 19 -13 30 0 30 6 0 10 -10 10 -22z
m1730 12 c0 -5 -4 -10 -10 -10 -5 0 -10 5 -10 10 0 6 5 10 10 10 6 0 10 -4 10
-10z m-990 -10 c0 -5 -2 -10 -4 -10 -3 0 -8 5 -11 10 -3 6 -1 10 4 10 6 0 11
-4 11 -10z m-783 -42 c-3 -8 -6 -5 -6 6 -1 11 2 17 5 13 3 -3 4 -12 1 -19z
m873 6 c0 -9 -5 -14 -12 -12 -18 6 -21 28 -4 28 9 0 16 -7 16 -16z m-848 -59
c0 -5 -5 -11 -11 -13 -6 -2 -11 4 -11 13 0 9 5 15 11 13 6 -2 11 -8 11 -13z
m-65 -152 c-3 -10 -5 -4 -5 12 0 17 2 24 5 18 2 -7 2 -21 0 -30z m303 27 c0
-5 -4 -10 -10 -10 -5 0 -10 5 -10 10 0 6 5 10 10 10 6 0 10 -4 10 -10z m60
-20 c0 -5 -2 -10 -4 -10 -3 0 -8 5 -11 10 -3 6 -1 10 4 10 6 0 11 -4 11 -10z
m-555 -10 c3 -5 1 -10 -4 -10 -6 0 -11 5 -11 10 0 6 2 10 4 10 3 0 8 -4 11
-10z m112 -22 c-3 -8 -6 -5 -6 6 -1 11 2 17 5 13 3 -3 4 -12 1 -19z m63 -52
c0 -3 -4 -8 -10 -11 -5 -3 -10 -1 -10 4 0 6 5 11 10 11 6 0 10 -2 10 -4z m40
-266 c0 -5 -4 -10 -9 -10 -6 0 -13 5 -16 10 -3 6 1 10 9 10 9 0 16 -4 16 -10z"/>
<path d="M16271 2464 c0 -11 3 -14 6 -6 3 7 2 16 -1 19 -3 4 -6 -2 -5 -13z"/>
<path d="M16270 2416 c0 -8 4 -17 9 -20 5 -4 7 3 4 14 -6 23 -13 26 -13 6z"/>
<path d="M16245 2380 c3 -5 8 -10 11 -10 2 0 4 5 4 10 0 6 -5 10 -11 10 -5 0
-7 -4 -4 -10z"/>
<path d="M16338 2365 c7 -37 22 -41 22 -6 0 20 -5 31 -14 31 -9 0 -12 -8 -8
-25z"/>
<path d="M16270 2350 c0 -5 5 -10 10 -10 6 0 10 5 10 10 0 6 -4 10 -10 10 -5
0 -10 -4 -10 -10z"/>
<path d="M15290 2435 c0 -22 4 -26 23 -23 14 2 22 10 22 23 0 13 -8 21 -22 23
-19 3 -23 -1 -23 -23z"/>
<path d="M17312 5970 c0 -14 2 -19 5 -12 2 6 2 18 0 25 -3 6 -5 1 -5 -13z"/>
<path d="M4510 5945 c0 -8 5 -15 10 -15 6 0 10 7 10 15 0 8 -4 15 -10 15 -5 0
-10 -7 -10 -15z"/>
<path d="M17125 5951 c-3 -5 -20 -13 -38 -17 l-32 -8 44 -7 c43 -8 71 4 71 30
0 13 -37 15 -45 2z"/>
<path d="M4230 5931 c0 -15 10 -21 40 -26 21 -4 44 -4 50 0 20 12 9 33 -21 39
-53 10 -69 7 -69 -13z"/>
<path d="M17160 5911 c0 -17 18 -21 24 -6 3 9 0 15 -9 15 -8 0 -15 -4 -15 -9z"/>
<path d="M5868 5810 c-1 -27 0 -59 4 -72 3 -13 6 9 7 50 1 82 -5 96 -11 22z"/>
<path d="M4530 5821 c0 -5 9 -7 20 -4 11 3 20 7 20 9 0 2 -9 4 -20 4 -11 0
-20 -4 -20 -9z"/>
<path d="M4588 5823 c7 -3 16 -2 19 1 4 3 -2 6 -13 5 -11 0 -14 -3 -6 -6z"/>
<path d="M17080 5806 c0 -8 -4 -16 -9 -18 -12 -4 -21 -87 -10 -94 5 -3 9 4 9
15 0 15 6 21 21 21 18 0 20 -5 16 -26 -6 -33 12 -106 25 -98 6 4 20 1 33 -6
13 -7 32 -9 42 -5 17 7 17 8 -2 15 -11 4 -23 6 -27 3 -5 -2 -8 5 -8 16 0 14
-6 21 -19 21 -20 0 -21 4 -23 67 -1 23 -7 34 -25 42 -27 12 -22 31 8 31 10 0
19 7 19 15 0 9 -9 15 -25 15 -15 0 -25 -6 -25 -14z"/>
<path d="M17180 5759 c0 -11 -4 -18 -9 -15 -5 3 -12 -1 -15 -10 -8 -20 2 -33
12 -18 4 6 15 13 25 17 21 8 23 47 2 47 -8 0 -15 -9 -15 -21z"/>
<path d="M16898 5720 c12 -5 22 -14 22 -20 0 -6 5 -8 10 -5 23 14 10 35 -22
34 -30 0 -31 -1 -10 -9z"/>
<path d="M17186 5678 c-5 -21 14 -48 35 -48 8 0 19 52 12 62 -10 17 -41 7 -47
-14z"/>
<path d="M17026 5682 c-2 -4 -1 -14 3 -21 6 -9 10 -7 14 8 5 20 -7 29 -17 13z"/>
<path d="M4358 5632 c-4 -13 1 -18 16 -20 11 0 24 4 27 10 6 9 12 8 23 -1 14
-12 16 -10 16 8 0 18 -6 21 -39 21 -29 0 -40 -5 -43 -18z"/>
<path d="M5834 5629 c-10 -21 4 -109 17 -109 12 0 29 52 29 90 0 32 -4 40 -18
40 -11 0 -23 -10 -28 -21z"/>
<path d="M16872 5630 c0 -14 2 -19 5 -12 2 6 2 18 0 25 -3 6 -5 1 -5 -13z"/>
<path d="M4455 5620 c3 -5 10 -10 16 -10 5 0 9 5 9 10 0 6 -7 10 -16 10 -8 0
-12 -4 -9 -10z"/>
<path d="M4600 5620 c0 -5 5 -10 11 -10 5 0 7 5 4 10 -3 6 -8 10 -11 10 -2 0
-4 -4 -4 -10z"/>
<path d="M16790 5614 c0 -11 5 -14 16 -10 9 3 20 6 25 6 5 0 9 5 9 10 0 6 -11
10 -25 10 -16 0 -25 -6 -25 -16z"/>
<path d="M17022 5609 c2 -7 10 -15 17 -17 8 -3 12 1 9 9 -2 7 -10 15 -17 17
-8 3 -12 -1 -9 -9z"/>
<path d="M17001 5584 c0 -11 3 -14 6 -6 3 7 2 16 -1 19 -3 4 -6 -2 -5 -13z"/>
<path d="M17030 5572 c0 -5 7 -9 15 -9 8 0 15 4 15 9 0 4 -7 8 -15 8 -8 0 -15
-4 -15 -8z"/>
<path d="M4630 5556 c0 -23 16 -27 47 -15 l28 12 -25 7 c-39 12 -50 11 -50 -4z"/>
<path d="M16958 5539 c-4 -24 0 -32 16 -39 12 -4 25 -5 29 -1 12 12 -4 43 -19
37 -17 -7 -18 6 -2 22 9 9 8 12 -4 12 -10 0 -17 -11 -20 -31z"/>
<path d="M17070 5550 c0 -5 7 -10 16 -10 8 0 12 5 9 10 -3 6 -10 10 -16 10 -5
0 -9 -4 -9 -10z"/>
<path d="M16745 5540 c-3 -5 -1 -10 4 -10 6 0 11 5 11 10 0 6 -2 10 -4 10 -3
0 -8 -4 -11 -10z"/>
<path d="M16780 5502 c0 -10 -6 -27 -14 -38 -10 -13 -11 -23 -4 -31 8 -10 4
-13 -15 -13 -14 0 -29 -4 -32 -10 -3 -5 -15 -10 -26 -10 -10 0 -19 -4 -19 -10
0 -5 18 -10 40 -10 22 0 40 5 40 10 0 6 8 10 19 10 26 0 40 -79 16 -96 -19
-14 -20 -34 -1 -34 17 0 26 44 26 125 0 34 -3 77 -6 94 -7 33 -24 43 -24 13z"/>
<path d="M5016 5493 c-13 -14 -5 -33 14 -33 11 0 20 6 20 14 0 15 -24 28 -34
19z"/>
<path d="M16720 5475 c0 -8 9 -15 20 -15 13 0 18 5 14 15 -4 8 -12 15 -20 15
-8 0 -14 -7 -14 -15z"/>
<path d="M5872 5445 c0 -16 2 -22 5 -12 2 9 2 23 0 30 -3 6 -5 -1 -5 -18z"/>
<path d="M16937 5456 c-16 -13 -16 -14 -1 -20 20 -8 27 -3 22 18 -2 12 -6 13
-21 2z"/>
<path d="M5872 5380 c0 -14 2 -19 5 -12 2 6 2 18 0 25 -3 6 -5 1 -5 -13z"/>
<path d="M5730 5380 c-13 -8 -12 -10 3 -10 9 0 17 5 17 10 0 12 -1 12 -20 0z"/>
<path d="M16585 5380 c3 -5 13 -10 21 -10 8 0 14 5 14 10 0 6 -9 10 -21 10
-11 0 -17 -4 -14 -10z"/>
<path d="M16743 5334 c-10 -22 -9 -24 13 -24 22 0 24 2 13 23 -6 12 -12 23
-13 24 -1 1 -6 -9 -13 -23z"/>
<path d="M5865 5310 c-3 -11 -2 -28 4 -37 8 -15 10 -11 11 20 0 41 -5 47 -15
17z"/>
<path d="M16861 5274 c0 -11 3 -14 6 -6 3 7 2 16 -1 19 -3 4 -6 -2 -5 -13z"/>
<path d="M16741 5214 c0 -11 3 -14 6 -6 3 7 2 16 -1 19 -3 4 -6 -2 -5 -13z"/>
<path d="M16660 5133 c0 -16 -3 -38 -6 -50 -5 -17 -2 -23 9 -23 15 0 25 38 19
78 -5 31 -22 27 -22 -5z"/>
<path d="M16614 5109 c-3 -6 -1 -16 5 -22 8 -8 11 -5 11 11 0 24 -5 28 -16 11z"/>
<path d="M16770 5082 c0 -12 19 -26 26 -19 2 2 -2 10 -11 17 -9 8 -15 8 -15 2z"/>
<path d="M16853 5063 c-35 -14 0 -63 45 -63 24 0 31 5 35 27 3 16 3 31 0 35
-5 9 -61 9 -80 1z"/>
<path d="M8265 4989 c-38 -10 -95 -24 -125 -30 -93 -18 -105 -23 -105 -44 0
-11 -4 -26 -8 -32 -10 -16 -12 -15 53 -3 29 6 93 26 141 45 49 19 100 35 114
35 34 0 122 -45 137 -70 19 -30 31 -24 14 8 -19 37 -75 88 -109 101 -34 13
-27 14 -112 -10z"/>
<path d="M16918 4963 c7 -3 16 -2 19 1 4 3 -2 6 -13 5 -11 0 -14 -3 -6 -6z"/>
<path d="M16727 4933 c-9 -14 5 -64 17 -60 15 5 14 59 -1 64 -6 2 -13 0 -16
-4z"/>
<path d="M16500 4916 c0 -26 64 -37 73 -12 4 9 -4 16 -25 20 -43 9 -48 8 -48
-8z"/>
<path d="M16507 4863 c-12 -11 14 -33 39 -33 28 0 30 8 7 26 -20 15 -36 17
-46 7z"/>
<path d="M8222 4849 c-53 -9 -125 -40 -137 -59 -4 -6 12 -1 35 11 23 12 68 24
103 26 54 5 65 2 87 -17 20 -18 21 -20 5 -14 -36 14 -111 16 -153 5 -25 -7
-60 -29 -89 -56 -51 -49 -50 -60 3 -20 40 31 52 32 47 3 -6 -37 10 -49 66 -51
62 -3 76 9 68 59 -5 29 -3 35 9 30 9 -3 19 -6 23 -6 11 0 51 -40 51 -51 0 -5
-19 -19 -42 -29 l-43 -20 43 0 c32 0 53 7 78 26 41 32 42 42 9 99 -18 30 -38
48 -66 59 -21 9 -40 15 -42 15 -1 -1 -26 -5 -55 -10z m11 -104 c4 -8 2 -17 -4
-21 -15 -9 -39 3 -39 21 0 19 36 20 43 0z m-72 -7 c0 -7 2 -21 4 -31 2 -10 -2
-17 -8 -14 -15 5 -22 57 -8 57 6 0 11 -6 12 -12z"/>
<path d="M16457 4853 c-4 -3 -7 -14 -7 -24 0 -10 -9 -19 -22 -22 l-23 -4 23
-2 c13 0 25 6 29 16 5 14 10 12 30 -13 l23 -29 0 28 c0 18 -5 27 -16 27 -10 0
-14 6 -10 15 5 15 -14 21 -27 8z"/>
<path d="M16655 4810 c3 -5 8 -10 11 -10 2 0 4 5 4 10 0 6 -5 10 -11 10 -5 0
-7 -4 -4 -10z"/>
<path d="M7670 4789 c0 -18 27 -114 40 -144 12 -26 11 -84 -2 -163 -9 -52 -15
-65 -33 -72 -34 -13 -38 -27 -15 -50 25 -25 35 -20 44 21 3 17 12 45 20 62 14
30 18 47 32 144 11 73 -3 127 -46 175 -25 27 -39 37 -40 27z"/>
<path d="M16440 4770 c0 -6 7 -10 15 -10 8 0 15 -4 15 -10 0 -5 5 -10 11 -10
6 0 9 5 7 12 -5 14 -48 31 -48 18z"/>
<path d="M16362 4718 c-16 -16 -15 -28 2 -28 19 0 27 13 17 28 -5 9 -10 9 -19
0z"/>
<path d="M16415 4667 c-4 -10 -5 -21 -1 -24 10 -10 18 4 13 24 -4 17 -4 17
-12 0z"/>
<path d="M16506 4665 c-3 -8 -1 -15 4 -15 6 0 10 7 10 15 0 8 -2 15 -4 15 -2
0 -6 -7 -10 -15z"/>
<path d="M7237 4619 c7 -7 15 -10 18 -7 3 3 -2 9 -12 12 -14 6 -15 5 -6 -5z"/>
<path d="M16452 4593 c-6 -3 -10 -9 -6 -14 7 -12 44 -12 44 0 0 11 -21 19 -38
14z"/>
<path d="M16257 4563 c-9 -9 -9 -43 1 -43 11 0 32 37 25 44 -8 8 -18 8 -26 -1z"/>
<path d="M14488 4533 c6 -2 18 -2 25 0 6 3 1 5 -13 5 -14 0 -19 -2 -12 -5z"/>
<path d="M14992 4510 c0 -14 2 -19 5 -12 2 6 2 18 0 25 -3 6 -5 1 -5 -13z"/>
<path d="M16470 4521 c0 -5 -9 -13 -20 -16 -25 -8 -27 -27 -2 -23 31 5 60 48
32 48 -5 0 -10 -4 -10 -9z"/>
<path d="M16377 4454 c-8 -8 1 -24 14 -24 5 0 9 7 9 15 0 15 -12 20 -23 9z"/>
<path d="M16506 4445 c-15 -8 -35 -15 -42 -15 -8 0 -14 -4 -14 -10 0 -14 37
-12 43 3 5 12 8 5 22 -38 2 -8 12 -15 20 -15 13 0 15 6 10 30 -4 19 -2 36 5
45 17 20 -5 20 -44 0z"/>
<path d="M16310 4410 c0 -5 5 -10 10 -10 6 0 10 5 10 10 0 6 -4 10 -10 10 -5
0 -10 -4 -10 -10z"/>
<path d="M16360 4370 c0 -38 4 -47 25 -57 22 -10 27 -8 35 8 6 10 17 19 25 19
9 0 12 6 9 15 -4 8 -15 15 -26 15 -10 0 -16 -4 -13 -10 3 -5 1 -10 -4 -10 -6
0 -11 3 -11 8 0 4 -9 18 -20 32 l-20 25 0 -45z"/>
<path d="M14791 4384 c0 -11 3 -14 6 -6 3 7 2 16 -1 19 -3 4 -6 -2 -5 -13z"/>
<path d="M16055 4390 c-16 -7 -13 -9 18 -9 20 -1 37 4 37 9 0 12 -27 12 -55 0z"/>
<path d="M14961 4374 c0 -11 3 -14 6 -6 3 7 2 16 -1 19 -3 4 -6 -2 -5 -13z"/>
<path d="M16467 4383 c-13 -12 -7 -23 13 -23 11 0 20 7 20 15 0 15 -21 21 -33
8z"/>
<path d="M15380 4360 c0 -6 7 -10 15 -10 8 0 15 2 15 4 0 2 -7 6 -15 10 -8 3
-15 1 -15 -4z"/>
<path d="M15483 4320 c0 -30 2 -43 4 -27 2 15 2 39 0 55 -2 15 -4 2 -4 -28z"/>
<path d="M7587 4342 c-42 -46 -49 -126 -14 -164 31 -35 132 -63 198 -55 57 7
92 27 47 27 -20 0 -38 15 -77 65 -28 36 -58 65 -66 65 -18 0 -18 -5 -4 -32 6
-11 8 -22 6 -25 -9 -8 -65 26 -81 48 -13 19 -13 26 -1 56 16 38 15 40 -8 15z"/>
<path d="M15295 4350 c-3 -5 -1 -10 4 -10 6 0 11 5 11 10 0 6 -2 10 -4 10 -3
0 -8 -4 -11 -10z"/>
<path d="M15522 4320 c0 -19 2 -27 5 -17 2 9 2 25 0 35 -3 9 -5 1 -5 -18z"/>
<path d="M15395 4330 c3 -5 8 -10 11 -10 2 0 4 5 4 10 0 6 -5 10 -11 10 -5 0
-7 -4 -4 -10z"/>
<path d="M16248 4300 c12 -5 22 -16 22 -25 0 -8 5 -15 11 -15 6 0 9 10 7 23
-2 16 -10 23 -33 24 -27 2 -28 2 -7 -7z"/>
<path d="M8121 4283 c9 -27 97 -122 142 -152 37 -24 47 -37 47 -59 1 -23 2
-25 11 -9 15 26 2 53 -44 88 -23 18 -68 57 -101 88 -32 31 -57 51 -55 44z"/>
<path d="M15500 4277 c0 -7 12 -19 26 -26 36 -16 37 -10 3 17 -21 17 -29 19
-29 9z"/>
<path d="M15327 4267 c-3 -8 1 -14 8 -14 7 0 11 6 8 14 -3 7 -6 13 -8 13 -2 0
-5 -6 -8 -13z"/>
<path d="M16190 4265 c0 -8 7 -15 15 -15 8 0 15 7 15 15 0 8 -7 15 -15 15 -8
0 -15 -7 -15 -15z"/>
<path d="M16390 4241 c0 -12 6 -21 16 -21 9 0 14 7 12 17 -5 25 -28 28 -28 4z"/>
<path d="M15378 4233 c7 -3 16 -2 19 1 4 3 -2 6 -13 5 -11 0 -14 -3 -6 -6z"/>
<path d="M15590 4230 c0 -5 5 -10 10 -10 6 0 10 5 10 10 0 6 -4 10 -10 10 -5
0 -10 -4 -10 -10z"/>
<path d="M7931 4189 c-13 -5 -21 -12 -18 -15 6 -6 87 14 87 21 0 8 -44 4 -69
-6z"/>
<path d="M16090 4189 c0 -5 5 -7 10 -4 6 3 10 8 10 11 0 2 -4 4 -10 4 -5 0
-10 -5 -10 -11z"/>
<path d="M14598 4183 c6 -2 18 -2 25 0 6 3 1 5 -13 5 -14 0 -19 -2 -12 -5z"/>
<path d="M15985 4129 c-4 -6 -5 -13 -2 -16 7 -7 27 6 27 18 0 12 -17 12 -25
-2z"/>
<path d="M16078 4133 c6 -2 18 -2 25 0 6 3 1 5 -13 5 -14 0 -19 -2 -12 -5z"/>
<path d="M7330 4115 c-6 -8 -10 -19 -8 -26 2 -6 9 0 16 15 13 29 10 33 -8 11z"/>
<path d="M15777 4124 c-4 -4 -7 -14 -7 -23 0 -11 3 -12 11 -4 6 6 10 16 7 23
-2 6 -7 8 -11 4z"/>
<path d="M16160 4105 c0 -14 5 -25 10 -25 6 0 10 11 10 25 0 14 -4 25 -10 25
-5 0 -10 -11 -10 -25z"/>
<path d="M15931 4074 c0 -11 3 -14 6 -6 3 7 2 16 -1 19 -3 4 -6 -2 -5 -13z"/>
<path d="M16050 4075 c0 -8 5 -15 10 -15 6 0 10 7 10 15 0 8 -4 15 -10 15 -5
0 -10 -7 -10 -15z"/>
<path d="M7396 4043 c10 -15 36 -50 56 -76 21 -27 38 -57 38 -67 0 -10 4 -21
9 -25 5 -3 12 -18 16 -33 14 -61 82 -99 210 -117 l40 -5 -34 15 c-18 8 -42 15
-53 15 -11 0 -22 8 -25 19 -3 11 -13 21 -24 24 -11 3 -26 21 -34 40 -8 19 -26
44 -40 55 -37 29 -31 37 9 12 l35 -21 -2 43 c-2 34 1 42 13 39 8 -3 32 -4 52
-3 20 2 40 -2 43 -8 5 -7 11 -8 19 -1 6 5 29 11 51 13 32 3 36 5 20 12 -11 4
-42 17 -69 29 -44 19 -46 22 -25 28 21 5 20 6 -11 12 -19 3 -84 9 -145 12 -60
3 -123 9 -138 12 l-29 5 18 -29z m168 -189 c5 -14 4 -15 -9 -4 -17 14 -19 20
-6 20 5 0 12 -7 15 -16z"/>
<path d="M15980 4057 c0 -19 16 -31 24 -18 3 5 -1 14 -9 21 -12 10 -15 10 -15
-3z"/>
<path d="M8145 4036 c-22 -7 -43 -13 -47 -15 -4 -1 -23 -8 -42 -16 -20 -8 -48
-15 -63 -15 -22 0 -25 -2 -13 -10 16 -10 78 -3 96 11 6 5 14 6 17 2 4 -3 13 0
22 7 22 18 20 -7 -2 -34 -18 -20 -18 -20 7 -3 14 9 42 26 63 37 38 21 50 51
20 49 -10 0 -36 -6 -58 -13z"/>
<path d="M15870 4026 c0 -8 -6 -16 -12 -19 -9 -3 -10 -8 -2 -16 8 -9 15 -6 29
9 10 11 24 20 32 20 8 0 11 5 8 10 -10 16 -55 12 -55 -4z"/>
<path d="M16148 4033 c-15 -4 -33 -31 -25 -39 1 -2 16 8 32 21 29 24 28 27 -7
18z"/>
<path d="M15725 4000 c-16 -7 -11 -9 20 -9 29 -1 36 2 25 9 -17 11 -19 11 -45
0z"/>
<path d="M7920 3971 c0 -5 9 -7 20 -4 11 3 20 7 20 9 0 2 -9 4 -20 4 -11 0
-20 -4 -20 -9z"/>
<path d="M7853 3963 c9 -2 25 -2 35 0 9 3 1 5 -18 5 -19 0 -27 -2 -17 -5z"/>
<path d="M15748 3963 c7 -3 16 -2 19 1 4 3 -2 6 -13 5 -11 0 -14 -3 -6 -6z"/>
<path d="M15860 3960 c0 -5 9 -10 20 -10 11 0 20 -7 20 -15 0 -8 -7 -15 -15
-15 -17 0 -19 -18 -6 -39 8 -12 12 -12 25 2 9 8 16 20 16 26 0 6 5 10 11 9 6
-2 14 3 16 10 3 6 -1 12 -7 12 -6 0 -18 7 -26 15 -17 17 -54 20 -54 5z"/>
<path d="M15692 3940 c-17 -27 -15 -33 8 -27 11 3 18 1 15 -3 -3 -5 -1 -11 5
-15 6 -4 8 -10 5 -15 -7 -11 32 -33 45 -25 6 3 10 -1 10 -10 0 -10 11 -30 25
-47 14 -16 25 -25 25 -19 0 6 14 11 30 11 17 0 30 3 30 8 0 13 -59 34 -80 27
-21 -7 -25 6 -20 62 1 17 -5 22 -27 25 -20 2 -29 9 -31 26 -4 27 -23 29 -40 2z"/>
<path d="M15455 3911 c-13 -6 20 -9 88 -9 59 0 105 3 102 7 -6 11 -165 12
-190 2z"/>
<path d="M7627 3893 c-15 -14 -4 -22 58 -42 66 -22 140 -28 149 -13 3 5 -16 7
-42 4 -35 -3 -51 0 -60 11 -7 8 -21 13 -33 10 -12 -4 -29 3 -43 16 -12 12 -26
18 -29 14z"/>
<path d="M15671 3889 c18 -11 52 -11 45 0 -3 5 -17 9 -32 9 -18 0 -22 -3 -13
-9z"/>
<path d="M15235 3789 c-11 -17 1 -21 15 -4 8 9 8 15 2 15 -6 0 -14 -5 -17 -11z"/>
<path d="M14815 3780 c-3 -6 1 -7 9 -4 18 7 21 14 7 14 -6 0 -13 -4 -16 -10z"/>
<path d="M15230 3752 c0 -12 19 -26 26 -19 2 2 -2 10 -11 17 -9 8 -15 8 -15 2z"/>
<path d="M15510 3709 c0 -5 -5 -7 -12 -3 -6 4 -8 3 -5 -4 4 -5 17 -8 29 -4 15
4 19 2 14 -7 -5 -7 -11 -10 -14 -7 -3 3 -11 1 -19 -6 -11 -8 -17 -7 -27 8 -8
10 -17 16 -20 13 -3 -3 3 -15 14 -27 11 -12 20 -25 20 -31 0 -5 5 -11 11 -13
8 -3 5 -10 -6 -21 -22 -23 -13 -32 29 -29 23 2 35 -2 40 -13 3 -9 2 -14 -3
-11 -4 3 -16 -1 -27 -8 -10 -8 -23 -12 -29 -9 -7 2 -18 -3 -25 -11 -10 -13 -8
-19 11 -35 l24 -20 -26 -25 c-27 -25 -27 -25 -45 -5 -18 20 -18 20 -41 -6 -27
-29 -48 -33 -38 -7 12 32 10 37 -15 34 -14 -1 -20 1 -15 5 6 5 11 16 11 26 2
15 -4 17 -35 11 -20 -4 -39 -9 -43 -11 -23 -13 15 -56 42 -48 11 4 23 -3 34
-19 20 -31 20 -46 1 -46 -8 0 -15 5 -15 10 0 6 -18 10 -39 10 -22 0 -43 -4
-46 -10 -4 -6 8 -10 29 -10 20 0 36 -4 36 -9 0 -5 10 -13 21 -16 17 -6 19 -9
8 -16 -8 -5 -13 -21 -11 -39 2 -17 0 -37 -5 -44 -4 -6 -1 -3 7 8 8 12 69 74
135 139 98 96 117 119 105 128 -12 8 -11 9 6 5 26 -8 45 28 50 92 2 33 -2 47
-19 62 -11 11 -25 20 -31 20 -6 0 0 -7 12 -16 26 -18 29 -34 5 -35 -11 0 -13
-3 -5 -6 6 -2 12 -14 12 -26 -1 -21 -1 -21 -15 3 -8 14 -12 33 -9 43 3 9 1 17
-5 17 -6 0 -11 7 -11 15 0 9 -9 15 -25 15 -14 0 -25 -5 -25 -11z m50 -84 c0
-8 -7 -15 -15 -15 -16 0 -20 12 -8 23 11 12 23 8 23 -8z m-17 -120 c4 -8 2
-17 -3 -20 -6 -4 -10 3 -10 14 0 25 6 27 13 6z m-98 -85 c-3 -5 -10 -10 -16
-10 -5 0 -9 5 -9 10 0 6 7 10 16 10 8 0 12 -4 9 -10z m-25 -40 c0 -5 -4 -10
-10 -10 -5 0 -10 5 -10 10 0 6 5 10 10 10 6 0 10 -4 10 -10z m-30 -16 c0 -8
-4 -12 -10 -9 -5 3 -10 10 -10 16 0 5 5 9 10 9 6 0 10 -7 10 -16z"/>
<path d="M15267 3691 c-3 -12 -1 -21 3 -21 15 0 23 21 12 32 -6 6 -11 2 -15
-11z"/>
<path d="M15420 3680 c-9 -6 -10 -10 -3 -10 6 0 15 5 18 10 8 12 4 12 -15 0z"/>
<path d="M15300 3662 c0 -5 7 -15 15 -22 8 -7 15 -8 15 -2 0 5 -7 15 -15 22
-8 7 -15 8 -15 2z"/>
<path d="M15365 3630 c3 -6 -1 -7 -9 -4 -9 3 -16 2 -16 -4 0 -6 -10 -8 -22 -4
-14 3 -19 2 -14 -7 4 -6 12 -9 17 -6 5 4 9 2 9 -3 0 -5 7 -9 15 -9 8 0 12 4 9
9 -3 4 2 8 10 8 9 0 16 7 16 15 0 8 -5 15 -11 15 -5 0 -7 -4 -4 -10z"/>
<path d="M15846 3600 c-3 -23 -3 -46 0 -52 4 -6 3 -8 -3 -5 -5 3 -19 -13 -30
-36 -12 -24 -55 -79 -97 -124 -41 -44 -72 -84 -68 -88 4 -5 2 -5 -4 -2 -9 5
-118 -97 -137 -130 -5 -8 23 -11 110 -11 65 0 151 -1 191 -1 l72 -1 0 -42 0
-42 56 84 c30 47 73 106 95 132 l40 48 -42 60 c-31 43 -45 56 -52 47 -6 -8 -7
-6 -3 6 4 11 -6 34 -25 60 -16 23 -45 64 -63 90 l-33 48 -7 -41z m29 -10 c3
-5 1 -10 -4 -10 -6 0 -11 5 -11 10 0 6 2 10 4 10 3 0 8 -4 11 -10z m35 -54 c0
-2 -7 -6 -15 -10 -8 -3 -15 -1 -15 4 0 6 7 10 15 10 8 0 15 -2 15 -4z m5 -56
c3 -5 1 -10 -4 -10 -6 0 -11 5 -11 10 0 6 2 10 4 10 3 0 8 -4 11 -10z m95 -94
c0 -8 6 -17 13 -19 9 -4 9 -6 0 -6 -7 -1 -17 8 -23 19 -7 14 -7 20 0 20 5 0
10 -6 10 -14z m10 -76 c0 -5 -5 -10 -11 -10 -5 0 -7 5 -4 10 3 6 8 10 11 10 2
0 4 -4 4 -10z m-68 -32 c-7 -7 -12 -8 -12 -2 0 14 12 26 19 19 2 -3 -1 -11 -7
-17z m-307 -18 c3 -5 -1 -10 -9 -10 -9 0 -16 5 -16 10 0 6 4 10 9 10 6 0 13
-4 16 -10z m-21 -39 c11 -12 14 -21 7 -26 -6 -3 -11 -2 -11 4 0 5 -7 17 -16
25 -8 9 -11 16 -6 16 5 0 17 -9 26 -19z m236 -35 c0 -11 -19 -15 -25 -6 -3 5
1 10 9 10 9 0 16 -2 16 -4z m60 -12 c0 -8 -4 -12 -10 -9 -5 3 -10 10 -10 16 0
5 5 9 10 9 6 0 10 -7 10 -16z"/>
<path d="M15459 3613 c-13 -16 -12 -17 4 -4 16 13 21 21 13 21 -2 0 -10 -8
-17 -17z"/>
<path d="M15381 3584 c9 -10 14 -25 12 -31 -3 -8 5 -13 21 -13 21 0 26 5 26
25 0 14 -6 25 -12 25 -7 0 -24 3 -38 7 -24 6 -24 5 -9 -13z"/>
<path d="M14881 3574 c0 -11 3 -14 6 -6 3 7 2 16 -1 19 -3 4 -6 -2 -5 -13z"/>
<path d="M14845 3570 c-3 -5 -1 -10 4 -10 6 0 11 5 11 10 0 6 -2 10 -4 10 -3
0 -8 -4 -11 -10z"/>
<path d="M15224 3567 c-8 -21 2 -35 16 -21 5 5 6 15 0 24 -8 12 -10 12 -16 -3z"/>
<path d="M15290 3550 c0 -11 4 -20 9 -20 5 0 7 9 4 20 -3 11 -7 20 -9 20 -2 0
-4 -9 -4 -20z"/>
<path d="M14798 3553 c-24 -6 -23 -19 2 -19 11 0 20 6 20 13 0 7 -1 12 -2 12
-2 -1 -11 -3 -20 -6z"/>
<path d="M14729 3516 c26 -28 31 -31 31 -17 0 5 -12 17 -27 26 l-28 18 24 -27z"/>
<path d="M14882 3510 c0 -14 2 -19 5 -12 2 6 2 18 0 25 -3 6 -5 1 -5 -13z"/>
<path d="M15170 3509 c0 -5 9 -9 20 -9 11 0 20 2 20 4 0 2 -9 6 -20 9 -11 3
-20 1 -20 -4z"/>
<path d="M14882 3338 c-2 -126 -3 -137 -19 -132 -11 4 -14 3 -7 -3 6 -4 15
-19 19 -33 l9 -25 6 30 c3 17 3 91 0 165 l-7 135 -1 -137z"/>
<path d="M14699 3343 c-13 -15 -12 -15 8 -2 18 11 25 11 35 1 6 -6 16 -12 21
-12 5 0 2 7 -7 15 -19 20 -40 19 -57 -2z"/>
<path d="M14775 3311 c-9 -22 0 -23 24 -2 22 19 22 20 2 18 -11 -1 -23 -8 -26
-16z"/>
<path d="M14500 3310 c0 -5 5 -10 11 -10 5 0 7 5 4 10 -3 6 -8 10 -11 10 -2 0
-4 -4 -4 -10z"/>
<path d="M14440 3303 c0 -5 11 -9 25 -9 14 -1 25 2 25 7 0 5 -11 9 -25 9 -14
0 -25 -3 -25 -7z"/>
<path d="M14660 3299 c0 -5 5 -7 10 -4 6 3 10 8 10 11 0 2 -4 4 -10 4 -5 0
-10 -5 -10 -11z"/>
<path d="M14733 3266 l-27 -23 27 -5 c27 -5 38 7 15 15 -7 2 -4 3 7 1 24 -4
53 12 42 22 -15 16 -38 12 -64 -10z"/>
<path d="M14630 3266 c0 -8 5 -18 10 -21 6 -3 10 1 10 9 0 8 -4 18 -10 21 -5
3 -10 -1 -10 -9z"/>
<path d="M13923 3243 c9 -2 23 -2 30 0 6 3 -1 5 -18 5 -16 0 -22 -2 -12 -5z"/>
<path d="M14313 3243 c9 -2 25 -2 35 0 9 3 1 5 -18 5 -19 0 -27 -2 -17 -5z"/>
<path d="M13830 3229 c0 -5 5 -7 10 -4 6 3 10 8 10 11 0 2 -4 4 -10 4 -5 0
-10 -5 -10 -11z"/>
<path d="M13868 3233 c7 -3 16 -2 19 1 4 3 -2 6 -13 5 -11 0 -14 -3 -6 -6z"/>
<path d="M14268 3233 c7 -3 16 -2 19 1 4 3 -2 6 -13 5 -11 0 -14 -3 -6 -6z"/>
<path d="M14405 3230 c-3 -5 -1 -10 4 -10 6 0 11 5 11 10 0 6 -2 10 -4 10 -3
0 -8 -4 -11 -10z"/>
<path d="M14558 3233 c12 -2 32 -2 45 0 12 2 2 4 -23 4 -25 0 -35 -2 -22 -4z"/>
<path d="M14432 3220 c0 -8 4 -26 8 -40 6 -20 8 -21 8 -5 0 11 -3 29 -8 40 -5
12 -8 14 -8 5z"/>
<path d="M14635 3220 c-4 -6 -11 -8 -16 -5 -5 4 -9 -2 -9 -11 0 -16 1 -16 20
1 11 10 20 20 20 22 0 7 -9 3 -15 -7z"/>
<path d="M14157 3189 c4 -13 8 -18 11 -10 2 7 -1 18 -6 23 -8 8 -9 4 -5 -13z"/>
<path d="M14691 3156 c-9 -11 -5 -13 19 -12 33 1 39 10 14 20 -21 8 -20 8 -33
-8z"/>
<path d="M9960 3149 c0 -5 5 -7 10 -4 6 3 10 8 10 11 0 2 -4 4 -10 4 -5 0 -10
-5 -10 -11z"/>
<path d="M13920 3156 c0 -2 7 -6 15 -10 8 -3 15 -1 15 4 0 6 -7 10 -15 10 -8
0 -15 -2 -15 -4z"/>
<path d="M14040 3139 c0 -11 5 -17 10 -14 6 4 8 10 5 15 -3 4 1 11 7 13 8 3 6
6 -4 6 -12 1 -18 -6 -18 -20z"/>
<path d="M14288 3153 c7 -3 16 -2 19 1 4 3 -2 6 -13 5 -11 0 -14 -3 -6 -6z"/>
<path d="M14541 3113 c-1 -55 7 -68 39 -58 16 5 20 15 20 56 0 27 -3 49 -8 49
-4 0 -5 -21 -3 -47 3 -40 1 -45 -13 -40 -10 4 -15 3 -11 -3 3 -6 1 -10 -4 -10
-15 0 -14 27 2 33 9 4 9 8 1 14 -7 4 -14 19 -17 33 -2 14 -5 2 -6 -27z"/>
<path d="M14172 3070 c-1 -47 2 -78 7 -70 4 8 4 47 1 85 l-7 70 -1 -85z"/>
<path d="M14250 3140 c0 -5 5 -10 10 -10 6 0 10 5 10 10 0 6 -4 10 -10 10 -5
0 -10 -4 -10 -10z"/>
<path d="M14226 3105 c-3 -8 -1 -15 4 -15 6 0 10 7 10 15 0 8 -2 15 -4 15 -2
0 -6 -7 -10 -15z"/>
<path d="M13715 3074 c48 -8 115 -9 115 -2 0 5 -30 7 -67 7 -38 -1 -59 -3 -48
-5z"/>
<path d="M14221 3064 c0 -11 3 -14 6 -6 3 7 2 16 -1 19 -3 4 -6 -2 -5 -13z"/>
<path d="M14315 3070 c-7 -12 19 -24 37 -17 7 3 2 6 -12 7 -24 2 -23 3 5 10
l30 8 -27 1 c-15 0 -30 -4 -33 -9z"/>
<path d="M14451 3048 c0 -14 -3 -32 -4 -40 -2 -7 -2 -9 1 -5 2 4 10 3 18 -4
15 -13 20 1 5 17 -5 5 -11 20 -14 34 l-4 25 -2 -27z"/>
<path d="M13743 3053 c9 -2 23 -2 30 0 6 3 -1 5 -18 5 -16 0 -22 -2 -12 -5z"/>
<path d="M14040 3023 c-3 -23 -2 -39 3 -34 5 5 7 24 5 42 -3 33 -4 33 -8 -8z"/>
<path d="M13832 3025 c0 -16 2 -22 5 -12 2 9 2 23 0 30 -3 6 -5 -1 -5 -18z"/>
<path d="M14809 3020 c-4 -33 -6 -35 -49 -38 -62 -4 -74 -10 -22 -11 23 -1 42
-6 42 -12 0 -6 11 3 25 19 20 24 23 35 16 54 -8 21 -9 21 -12 -12z"/>
<path d="M14230 3020 c0 -11 52 -61 57 -56 2 2 -10 17 -27 34 -16 17 -30 26
-30 22z"/>
<path d="M9972 2995 c0 -16 2 -22 5 -12 2 9 2 23 0 30 -3 6 -5 -1 -5 -18z"/>
<path d="M13921 2996 c-13 -14 -21 -32 -18 -43 4 -17 5 -17 6 1 0 10 11 27 23
37 11 11 19 21 16 24 -2 3 -15 -6 -27 -19z"/>
<path d="M14617 3001 c-3 -14 0 -17 13 -14 10 3 21 0 24 -6 4 -6 0 -11 -8 -11
-9 0 -16 -7 -16 -15 0 -20 12 -19 32 4 15 18 14 20 -12 39 -26 20 -28 20 -33
3z"/>
<path d="M11816 2975 c4 -8 8 -15 10 -15 2 0 4 7 4 15 0 8 -4 15 -10 15 -5 0
-7 -7 -4 -15z"/>
<path d="M14550 2980 l-45 -7 48 -1 c26 -1 47 3 47 8 0 6 -1 9 -2 8 -2 0 -23
-4 -48 -8z"/>
<path d="M14303 2974 c7 -8 87 -7 95 0 3 3 -19 6 -48 6 -29 0 -51 -3 -47 -6z"/>
<path d="M14748 2930 c4 -30 32 -43 32 -15 0 8 -5 15 -11 15 -6 0 -9 7 -5 15
3 9 0 15 -8 15 -8 0 -11 -10 -8 -30z"/>
<path d="M14360 2940 c0 -5 5 -10 11 -10 5 0 7 5 4 10 -3 6 -8 10 -11 10 -2 0
-4 -4 -4 -10z"/>
<path d="M14496 2933 c-3 -10 -9 -24 -12 -30 -3 -8 2 -13 15 -13 19 0 41 26
41 49 0 18 -37 12 -44 -6z"/>
<path d="M9947 2908 c-7 -25 -3 -33 12 -23 13 8 15 45 2 45 -5 0 -11 -10 -14
-22z"/>
<path d="M14572 2893 c2 -20 9 -29 26 -31 23 -4 30 -26 10 -38 -8 -5 -6 -11 6
-20 18 -13 13 -40 -5 -29 -5 4 -9 1 -9 -4 0 -6 8 -11 19 -11 39 0 35 105 -5
120 -16 6 -22 15 -18 25 4 10 0 15 -11 15 -12 0 -16 -7 -13 -27z"/>
<path d="M11038 2859 c-24 -13 -26 -120 -3 -139 8 -7 15 -27 15 -45 0 -18 7
-39 17 -46 9 -8 23 -27 30 -44 22 -46 74 -133 150 -254 24 -36 43 -72 43 -78
0 -7 5 -13 10 -13 6 0 10 -11 10 -25 0 -14 -4 -25 -10 -25 -5 0 -10 -8 -10
-18 0 -26 -23 -72 -36 -72 -13 0 -64 -56 -64 -69 0 -17 -31 -41 -51 -41 -11 0
-31 -13 -45 -29 -18 -22 -37 -32 -72 -37 -26 -3 -57 -16 -70 -27 -12 -12 -30
-22 -38 -23 -9 -1 -23 -12 -31 -23 -8 -12 -25 -21 -38 -21 -15 0 -31 -10 -40
-23 -8 -13 -34 -38 -58 -54 -70 -52 -117 -98 -117 -116 0 -9 -6 -17 -13 -17
-7 0 -30 -17 -50 -38 -29 -30 -37 -46 -37 -76 0 -41 -38 -101 -71 -111 -14 -5
-18 -14 -15 -36 2 -21 -2 -34 -17 -44 -11 -8 -22 -22 -23 -31 -4 -25 -31 -77
-53 -101 -12 -12 -21 -29 -21 -37 0 -8 -5 -18 -10 -21 -6 -4 -8 -26 -5 -53 3
-26 2 -53 -3 -60 -5 -7 -38 -18 -73 -23 -35 -6 -86 -14 -114 -19 -27 -4 -108
-22 -180 -38 -71 -17 -141 -33 -155 -35 -14 -2 8 -5 47 -6 64 -1 76 -4 103
-28 49 -46 61 -142 50 -418 -1 -33 1 -76 5 -96 5 -26 3 -40 -8 -50 -15 -15
-26 -45 -32 -82 -2 -12 -9 -56 -15 -97 -6 -41 -13 -85 -15 -98 -5 -22 -4 -22
87 -22 l93 0 25 33 c14 17 39 58 55 90 16 32 33 60 37 63 4 3 8 14 8 24 0 10
6 23 13 27 6 4 41 66 77 138 36 71 71 136 78 144 8 8 32 51 53 95 22 45 44 85
49 90 6 6 10 18 10 28 0 10 9 37 19 61 11 23 22 62 24 87 7 71 36 167 82 270
40 89 59 144 100 280 35 117 74 181 165 271 49 48 101 93 116 101 53 26 78 43
91 58 7 8 13 11 13 5 0 -5 17 6 38 25 52 48 76 60 135 67 43 5 50 3 40 -8 -7
-7 -13 -18 -13 -24 0 -6 3 -6 8 1 9 14 118 84 130 84 5 0 19 11 32 25 l23 25
-29 0 c-45 0 -101 19 -108 36 -3 8 -10 12 -16 9 -15 -9 -12 51 3 62 6 5 40 18
75 28 34 10 62 22 62 27 0 5 -53 86 -117 181 -64 95 -162 238 -216 320 -55 81
-103 147 -106 147 -3 0 -14 -5 -23 -11z m-1011 -2141 c-2 -13 -4 -3 -4 22 0
25 2 35 4 23 2 -13 2 -33 0 -45z"/>
<path d="M14455 2860 c-4 -6 5 -10 19 -10 14 0 26 5 26 10 0 6 -9 10 -19 10
-11 0 -23 -4 -26 -10z"/>
<path d="M9947 2825 c-4 -8 -2 -17 3 -20 6 -4 10 3 10 14 0 25 -6 27 -13 6z"/>
<path d="M14545 2820 c-8 -13 5 -61 16 -54 12 7 12 64 0 64 -6 0 -12 -4 -16
-10z"/>
<path d="M14407 2813 c-13 -12 -7 -41 9 -47 23 -9 40 5 20 16 -16 9 -16 11 1
24 17 13 17 13 -3 14 -11 0 -24 -3 -27 -7z"/>
<path d="M11820 2781 c0 -6 4 -13 10 -16 6 -3 7 1 4 9 -7 18 -14 21 -14 7z"/>
<path d="M9927 2756 c-4 -10 -5 -21 -2 -24 9 -9 17 6 13 25 -3 17 -4 17 -11
-1z"/>
<path d="M9901 2724 c0 -11 3 -14 6 -6 3 7 2 16 -1 19 -3 4 -6 -2 -5 -13z"/>
<path d="M14417 2734 c-12 -12 4 -24 34 -24 16 0 29 5 29 10 0 6 -6 10 -14 10
-8 0 -21 2 -28 5 -8 3 -17 3 -21 -1z"/>
<path d="M14590 2715 c0 -15 4 -24 10 -20 6 3 10 12 10 20 0 8 -4 17 -10 20
-6 4 -10 -5 -10 -20z"/>
<path d="M11990 2725 c0 -5 5 -17 10 -25 5 -8 10 -10 10 -5 0 6 -5 17 -10 25
-5 8 -10 11 -10 5z"/>
<path d="M14006 2722 c-2 -4 -1 -14 3 -21 6 -10 10 -9 14 3 6 16 -8 32 -17 18z"/>
<path d="M9803 2699 c-6 -6 -23 -11 -37 -11 -27 0 -35 -12 -13 -21 18 -7 53 9
60 27 7 19 5 20 -10 5z"/>
<path d="M9921 2694 c0 -11 3 -14 6 -6 3 7 2 16 -1 19 -3 4 -6 -2 -5 -13z"/>
<path d="M14502 2701 c-11 -6 -10 -10 4 -15 20 -8 32 0 18 14 -5 5 -15 5 -22
1z"/>
<path d="M9889 2648 c-1 -13 -1 -26 -1 -30 1 -3 -5 -11 -12 -17 -11 -9 -21 -5
-45 20 -45 44 -48 31 -3 -15 20 -22 38 -34 40 -27 7 21 20 11 16 -11 -3 -15 0
-11 10 9 21 46 24 93 6 93 -5 0 -11 -10 -11 -22z"/>
<path d="M14387 2629 c-5 -17 -11 -20 -31 -17 -19 4 -26 1 -26 -10 0 -11 9
-13 40 -9 22 3 43 1 46 -4 3 -5 10 -7 15 -4 13 9 11 65 -2 65 -6 0 -9 -9 -6
-20 3 -11 1 -20 -4 -20 -5 0 -9 9 -9 20 0 27 -16 26 -23 -1z"/>
<path d="M14297 2593 c-12 -12 -7 -22 8 -17 8 4 15 10 15 15 0 11 -14 12 -23
2z"/>
<path d="M13690 2580 c0 -6 7 -10 15 -10 8 0 15 2 15 4 0 2 -7 6 -15 10 -8 3
-15 1 -15 -4z"/>
<path d="M13690 2550 c-10 -6 6 -10 45 -12 52 -3 60 -5 57 -22 -3 -17 -1 -16
19 3 15 14 36 21 63 21 50 0 43 9 -12 13 -30 2 -42 0 -42 -10 0 -7 -5 -13 -11
-13 -5 0 -8 4 -5 8 3 5 -16 9 -41 11 -26 1 -49 4 -53 6 -3 2 -12 0 -20 -5z"/>
<path d="M13550 2543 c24 -3 51 -10 60 -16 13 -11 13 -10 1 6 -10 12 -26 17
-60 15 l-46 -1 45 -4z"/>
<path d="M13993 2543 c9 -2 25 -2 35 0 9 3 1 5 -18 5 -19 0 -27 -2 -17 -5z"/>
<path d="M13950 2515 c0 -8 2 -15 4 -15 2 0 6 7 10 15 3 8 1 15 -4 15 -6 0
-10 -7 -10 -15z"/>
<path d="M13640 2509 c0 -5 5 -7 10 -4 6 3 10 8 10 11 0 2 -4 4 -10 4 -5 0
-10 -5 -10 -11z"/>
<path d="M14051 2503 c-1 -12 4 -25 9 -28 12 -7 12 2 0 30 -8 19 -9 19 -9 -2z"/>
<path d="M13622 2485 c0 -16 2 -22 5 -12 2 9 2 23 0 30 -3 6 -5 -1 -5 -18z"/>
<path d="M13500 2479 c0 -5 5 -7 10 -4 6 3 10 8 10 11 0 2 -4 4 -10 4 -5 0
-10 -5 -10 -11z"/>
<path d="M13871 2480 c-9 -5 -7 -9 8 -13 12 -3 23 -2 26 3 7 11 -19 20 -34 10z"/>
<path d="M13920 2481 c0 -6 5 -13 12 -17 6 -4 8 -3 4 4 -3 5 0 13 6 15 8 3 6
6 -4 6 -10 1 -18 -3 -18 -8z"/>
<path d="M13700 2460 c0 -5 5 -10 11 -10 5 0 7 5 4 10 -3 6 -8 10 -11 10 -2 0
-4 -4 -4 -10z"/>
<path d="M13788 2450 c2 -8 5 -20 5 -25 0 -6 13 -11 29 -12 l30 -1 -30 18
c-16 10 -32 22 -34 27 -3 4 -3 1 0 -7z"/>
<path d="M14065 2451 c-3 -5 -1 -12 5 -16 5 -3 10 1 10 9 0 18 -6 21 -15 7z"/>
<path d="M13916 2435 c4 -8 8 -15 10 -15 2 0 4 7 4 15 0 8 -4 15 -10 15 -5 0
-7 -7 -4 -15z"/>
<path d="M13693 2425 c-7 -8 -9 -16 -4 -19 5 -3 12 1 15 10 8 22 4 25 -11 9z"/>
<path d="M12134 2395 c-10 -8 -14 -14 -9 -15 15 0 40 18 34 24 -3 3 -14 -1
-25 -9z"/>
<path d="M13561 2405 c1 -19 18 -51 18 -35 0 8 -4 22 -9 30 -5 8 -9 11 -9 5z"/>
<path d="M14090 2390 c-9 -16 -8 -18 5 -14 8 4 15 12 15 20 0 20 -7 17 -20 -6z"/>
<path d="M13660 2370 c-8 -14 -22 -20 -48 -21 -36 -1 -36 -1 -9 -9 16 -5 35
-6 43 -3 9 3 14 -3 16 -18 0 -13 4 -4 8 21 5 31 7 36 8 17 2 -23 6 -27 21 -22
12 3 29 -3 49 -19 26 -23 29 -31 28 -75 -2 -62 -11 -74 -20 -26 -4 19 -11 33
-17 30 -14 -9 -10 -68 6 -89 18 -23 5 -36 -35 -36 -19 0 -21 -3 -11 -9 15 -9
30 -7 67 11 15 7 20 16 16 30 -4 16 -1 18 22 12 16 -4 26 -2 26 5 0 6 9 11 20
11 25 0 27 27 3 33 -17 4 -17 5 0 6 19 1 23 16 6 26 -6 4 -8 13 -5 21 4 10 -2
14 -19 14 -16 0 -25 6 -25 15 0 8 9 15 20 15 11 0 20 5 20 10 0 14 -43 12 -59
-2 -11 -10 -13 -10 -7 0 5 8 0 12 -15 12 -18 0 -19 3 -9 15 6 8 10 22 7 32 -4
14 -5 13 -6 -4 -1 -19 -7 -23 -31 -23 -27 0 -35 8 -31 33 2 16 -29 6 -39 -13z
m180 -110 c0 -5 -7 -10 -15 -10 -8 0 -15 5 -15 10 0 6 7 10 15 10 8 0 15 -4
15 -10z m-10 -70 c0 -5 -7 -10 -15 -10 -8 0 -15 5 -15 10 0 6 7 10 15 10 8 0
15 -4 15 -10z"/>
<path d="M13974 2365 c-7 -17 -74 -21 -74 -4 0 6 -5 7 -12 2 -7 -4 -35 -10
-63 -14 l-50 -6 48 -2 c43 -1 47 -3 47 -26 0 -14 5 -25 10 -25 6 0 10 4 10 10
0 5 7 7 15 4 22 -9 18 6 -7 29 l-23 19 23 -6 c12 -3 30 -8 40 -11 11 -3 27 4
42 20 13 14 18 25 11 25 -6 0 -14 -7 -17 -15z"/>
<path d="M14004 2345 c-4 -8 -10 -12 -15 -9 -5 3 -9 0 -9 -5 0 -17 15 -13 35
9 11 12 13 20 6 20 -6 0 -14 -7 -17 -15z"/>
<path d="M13575 2320 c-3 -5 1 -10 9 -10 9 0 16 5 16 10 0 6 -4 10 -9 10 -6 0
-13 -4 -16 -10z"/>
<path d="M13700 2300 c0 -11 1 -20 3 -20 1 0 10 9 20 20 16 19 16 20 -3 20
-13 0 -20 -7 -20 -20z"/>
<path d="M13942 2271 c4 -13 18 -16 19 -4 0 4 -5 9 -11 12 -7 2 -11 -2 -8 -8z"/>
<path d="M13693 2248 c-19 -9 -23 -19 -23 -60 0 -50 14 -65 23 -25 3 12 10 39
15 60 6 20 9 37 8 36 0 0 -11 -5 -23 -11z"/>
<path d="M13576 2205 c5 -19 2 -25 -10 -25 -25 0 -19 -27 8 -32 20 -4 25 0 30
25 6 29 -7 57 -25 57 -5 0 -7 -11 -3 -25z"/>
<path d="M13640 2200 c0 -11 5 -20 10 -20 6 0 10 9 10 20 0 11 -4 20 -10 20
-5 0 -10 -9 -10 -20z"/>
<path d="M13918 2203 c6 -2 18 -2 25 0 6 3 1 5 -13 5 -14 0 -19 -2 -12 -5z"/>
<path d="M13462 2178 c2 -6 10 -14 16 -16 7 -2 10 2 6 12 -7 18 -28 22 -22 4z"/>
<path d="M13410 2160 c0 -5 7 -10 15 -10 8 0 15 5 15 10 0 6 -7 10 -15 10 -8
0 -15 -4 -15 -10z"/>
<path d="M13546 2101 c-3 -4 6 -6 19 -3 14 2 25 6 25 8 0 8 -39 4 -44 -5z"/>
<path d="M11670 2019 c0 -7 10 -28 22 -48 17 -26 24 -31 26 -19 2 9 17 20 35
24 l32 7 -25 9 c-14 6 -40 16 -57 24 -23 9 -33 10 -33 3z"/>
<path d="M13121 1990 c-1 -8 -17 -32 -37 -53 -19 -20 -34 -43 -31 -50 2 -7 9
-1 17 13 7 14 24 34 37 45 17 14 24 28 20 40 -3 12 -5 14 -6 5z"/>
<path d="M13290 1981 c5 -11 10 -32 10 -48 l1 -28 17 30 17 30 3 -27 c4 -35
19 -36 32 -3 5 14 17 25 27 26 21 1 -74 37 -100 38 -14 1 -16 -3 -7 -18z"/>
<path d="M13205 1980 c-16 -7 -11 -9 20 -9 29 -1 36 2 25 9 -17 11 -19 11 -45
0z"/>
<path d="M13194 1916 c-4 -10 -2 -22 4 -28 8 -8 13 -7 18 6 4 10 2 22 -4 28
-8 8 -13 7 -18 -6z"/>
<path d="M12834 1897 c-3 -10 -2 -23 4 -29 6 -6 8 -17 5 -24 -3 -8 -2 -22 1
-31 6 -15 8 -15 16 -3 14 22 12 64 -4 86 -14 18 -15 18 -22 1z"/>
<path d="M13100 1897 c0 -5 7 -15 15 -23 8 -9 15 -11 15 -5 0 5 9 13 20 16 31
10 24 20 -15 20 -19 0 -35 -4 -35 -8z"/>
<path d="M11280 1885 c-8 -9 -8 -15 -2 -15 12 0 26 19 19 26 -2 2 -10 -2 -17
-11z"/>
<path d="M13306 1876 c-19 -30 -21 -49 -4 -44 11 4 31 58 24 65 -2 2 -11 -8
-20 -21z"/>
<path d="M12056 1881 c-4 -6 -2 -11 3 -11 6 0 12 -10 12 -22 1 -17 3 -18 6 -6
6 23 -12 55 -21 39z"/>
<path d="M13248 1868 c-2 -18 -11 -24 -38 -26 -47 -4 -64 -22 -22 -22 47 0 91
28 92 58 0 22 -29 13 -32 -10z"/>
<path d="M11231 1829 c-21 -27 -34 -65 -45 -136 -5 -33 5 -28 45 25 33 44 35
50 22 69 -13 19 -12 25 2 47 24 36 5 32 -24 -5z"/>
<path d="M13360 1850 c0 -5 5 -10 10 -10 6 0 10 5 10 10 0 6 -4 10 -10 10 -5
0 -10 -4 -10 -10z"/>
<path d="M11343 1824 c-19 -18 -22 -24 -10 -20 10 3 22 6 27 6 4 0 10 9 13 20
7 26 4 25 -30 -6z"/>
<path d="M5972 1825 c0 -11 3 -29 8 -40 11 -25 11 1 0 35 -6 20 -8 21 -8 5z"/>
<path d="M12760 1840 c-7 -18 -7 -39 1 -51 12 -20 16 -8 8 26 -4 17 -8 28 -9
25z"/>
<path d="M13003 1820 c-9 -14 -10 -21 -1 -26 12 -8 40 24 32 37 -8 14 -18 11
-31 -11z"/>
<path d="M12900 1800 c0 -5 5 -10 11 -10 5 0 7 5 4 10 -3 6 -8 10 -11 10 -2 0
-4 -4 -4 -10z"/>
<path d="M13160 1800 c0 -15 42 -49 54 -44 10 4 16 -2 18 -18 2 -13 9 -23 17
-23 21 0 24 20 6 38 -8 9 -15 23 -15 31 0 9 -6 17 -12 17 -43 5 -68 4 -68 -1z"/>
<path d="M12420 1790 c0 -5 5 -10 11 -10 5 0 7 5 4 10 -3 6 -8 10 -11 10 -2 0
-4 -4 -4 -10z"/>
<path d="M11280 1779 c0 -5 5 -7 10 -4 6 3 10 8 10 11 0 2 -4 4 -10 4 -5 0
-10 -5 -10 -11z"/>
<path d="M12720 1776 c0 -9 5 -16 10 -16 6 0 10 4 10 9 0 6 -4 13 -10 16 -5 3
-10 -1 -10 -9z"/>
<path d="M12390 1752 c0 -14 11 -21 26 -15 8 3 11 9 8 14 -7 11 -34 12 -34 1z"/>
<path d="M12860 1750 c0 -5 4 -10 9 -10 5 0 16 -3 25 -6 11 -4 16 -1 16 10 0
10 -9 16 -25 16 -14 0 -25 -4 -25 -10z"/>
<path d="M5997 1698 c19 -86 59 -215 70 -226 7 -7 13 -18 13 -23 0 -6 16 -35
35 -65 19 -30 35 -59 35 -65 0 -5 9 -19 20 -31 20 -22 27 -58 11 -58 -5 0 -14
7 -21 15 -19 23 -33 3 -25 -34 6 -27 11 -31 40 -31 31 0 33 2 37 41 3 38 -2
49 -48 113 -35 47 -60 94 -74 141 -12 38 -28 84 -35 100 -7 17 -17 42 -20 58
-4 15 -11 30 -16 33 -5 3 -9 14 -9 24 0 10 -4 21 -9 24 -5 4 -7 -4 -4 -16z"/>
<path d="M12977 1713 c-4 -3 -7 -15 -7 -25 0 -26 24 -17 28 10 3 21 -8 29 -21
15z"/>
<path d="M12456 1683 c-11 -11 -6 -23 9 -23 8 0 15 4 15 9 0 13 -16 22 -24 14z"/>
<path d="M12110 1666 c0 -15 39 -48 49 -41 16 9 13 35 -3 35 -8 0 -21 3 -30 6
-9 3 -16 3 -16 0z"/>
<path d="M11147 1616 c-14 -25 -28 -60 -32 -78 -4 -18 -12 -42 -18 -53 -17
-31 -19 -95 -3 -110 7 -7 30 -20 50 -29 32 -13 41 -13 78 0 23 8 47 19 54 24
8 8 18 3 33 -17 l21 -28 -7 34 -6 34 24 -16 c34 -24 46 -21 21 6 -31 33 -28
39 16 32 41 -7 42 -8 -35 47 -21 15 -33 32 -33 48 -1 24 -1 24 -15 6 -8 -10
-16 -23 -18 -29 -1 -5 -14 -11 -27 -12 -36 -3 -36 -4 -16 -18 23 -17 19 -80
-6 -85 -10 -2 -18 1 -18 7 0 6 -9 20 -20 31 -14 14 -18 28 -14 44 4 17 -1 30
-16 44 -27 25 -22 56 14 99 20 24 22 31 11 46 -12 16 -15 14 -38 -27z"/>
<path d="M12211 1644 c0 -11 3 -14 6 -6 3 7 2 16 -1 19 -3 4 -6 -2 -5 -13z"/>
<path d="M12417 1633 c-12 -11 -8 -40 7 -53 8 -6 13 -17 10 -25 -3 -7 0 -16 5
-20 19 -11 2 -25 -31 -25 -23 0 -29 -4 -24 -16 3 -9 6 -18 6 -20 0 -13 35 -1
51 17 9 11 21 21 26 22 10 2 5 24 -14 61 -11 20 -12 31 -4 39 6 6 11 15 11 19
0 10 -34 11 -43 1z"/>
<path d="M12240 1600 c0 -34 4 -35 43 -17 40 18 36 47 -8 47 -32 0 -35 -2 -35
-30z"/>
<path d="M12833 1612 c-9 -14 -13 -15 -24 -4 -17 16 -29 15 -29 -3 0 -8 6 -15
14 -15 8 0 23 -11 34 -25 28 -36 38 -31 34 15 -5 46 -13 56 -29 32z"/>
<path d="M12761 1598 c0 -9 -4 -24 -8 -34 -5 -14 -3 -16 12 -11 9 4 24 2 31
-4 11 -9 14 -8 14 1 0 6 -9 14 -19 17 -11 3 -22 15 -24 27 -3 13 -5 15 -6 4z"/>
<path d="M12370 1576 c0 -8 -9 -18 -21 -21 -30 -10 -8 -28 23 -20 19 5 25 13
24 31 -1 25 -26 35 -26 10z"/>
<path d="M12470 1580 c0 -5 7 -10 15 -10 8 0 15 -7 15 -15 0 -8 7 -15 15 -15
21 0 19 9 -7 31 -26 21 -38 24 -38 9z"/>
<path d="M12295 1460 c3 -5 19 -10 35 -10 16 0 32 5 35 10 4 6 -10 10 -35 10
-25 0 -39 -4 -35 -10z"/>
<path d="M12155 1450 c3 -5 10 -10 16 -10 5 0 9 5 9 10 0 6 -7 10 -16 10 -8 0
-12 -4 -9 -10z"/>
<path d="M6190 1163 c-36 -11 -45 -14 -48 -13 -5 1 -58 -31 -79 -48 -12 -11
-32 -38 -44 -61 -18 -35 -20 -50 -13 -89 4 -26 8 -68 7 -94 0 -27 1 -48 3 -48
7 0 63 84 59 90 -11 18 69 18 122 -1 31 -10 77 -19 102 -19 46 0 174 27 261
55 25 8 101 19 170 25 128 11 190 24 190 41 0 11 -1 11 -165 -1 -71 -5 -174
-19 -228 -31 -83 -18 -103 -19 -129 -8 -38 15 -68 63 -68 107 0 18 -4 42 -10
52 -8 15 -15 17 -51 9 -49 -11 -55 -8 -39 20 9 18 8 21 -7 20 -10 0 -25 -3
-33 -6z m-117 -105 c2 -7 -2 -26 -10 -41 -8 -16 -12 -35 -9 -42 3 -9 0 -12
-10 -8 -8 3 -14 18 -14 35 0 49 31 89 43 56z"/>
<path d="M10700 1023 c0 -27 27 -72 45 -75 21 -4 21 -3 7 39 -10 30 -20 43
-33 43 -11 0 -19 -3 -19 -7z"/>
<path d="M9738 883 c7 -3 16 -2 19 1 4 3 -2 6 -13 5 -11 0 -14 -3 -6 -6z"/>
<path d="M7212 873 c-18 -2 -30 -8 -27 -13 7 -12 -16 -17 -125 -29 -103 -12
-213 -37 -302 -70 -71 -26 -93 -26 -143 -1 -22 11 -48 20 -59 20 -19 0 -19 0
0 -21 24 -27 17 -31 -113 -59 -65 -15 -99 -26 -91 -31 25 -14 202 18 438 81
41 11 136 29 210 40 88 14 153 29 186 45 28 14 56 25 62 25 7 0 12 5 12 10 0
6 -3 9 -7 8 -5 0 -23 -3 -41 -5z"/>
<path d="M5997 793 c-4 -3 -7 -11 -7 -17 0 -6 5 -5 12 2 6 6 9 14 7 17 -3 3
-9 2 -12 -2z"/>
<path d="M5980 724 c0 -24 10 -54 29 -83 16 -25 32 -62 35 -82 12 -70 8 -196
-7 -231 -9 -18 -34 -93 -56 -165 -23 -73 -44 -140 -47 -148 -5 -13 21 -15 206
-15 l212 0 33 29 c19 16 60 39 92 51 32 12 77 33 99 48 37 22 40 27 27 40 -12
12 -21 13 -52 3 -50 -14 -52 -14 -49 6 2 14 -5 19 -32 21 -19 1 -42 5 -50 8
-12 4 -13 6 0 14 11 7 8 11 -13 19 -16 6 -43 11 -61 11 -40 0 -56 13 -91 70
-39 64 -85 110 -111 110 -13 0 -35 15 -54 36 -25 29 -30 42 -25 64 3 16 6 47
7 69 0 23 4 41 9 41 23 0 5 19 -23 26 -37 8 -57 29 -58 61 0 12 -4 25 -10 28
-6 4 -10 -9 -10 -31z"/>
<path d="M7159 680 c-9 -5 -68 -23 -132 -39 -63 -17 -154 -46 -202 -66 -70
-29 -97 -36 -127 -31 -28 5 -49 1 -78 -14 -22 -11 -59 -20 -84 -20 -25 0 -47
-4 -51 -9 -3 -6 -26 -13 -50 -17 -79 -11 -66 -28 16 -20 141 13 253 38 359 82
58 24 128 49 155 55 96 20 120 27 160 48 21 12 45 21 52 21 7 0 13 5 13 10 0
12 -10 12 -31 0z"/>
<path d="M9316 554 c-4 -9 -4 -19 -1 -22 2 -3 7 3 11 12 4 9 4 19 1 22 -2 3
-7 -3 -11 -12z"/>
<path d="M9286 493 c-6 -20 -32 -196 -46 -310 -10 -80 -19 -139 -27 -165 -3
-14 2 -18 20 -18 31 0 37 19 37 135 1 50 7 153 14 230 13 138 13 164 2 128z"/>
<path d="M6610 70 l0 -70 29 0 c25 0 28 3 23 25 -2 14 -7 23 -11 20 -4 -2 -6
10 -3 28 3 25 1 29 -7 17 -8 -12 -11 -8 -11 18 0 17 -4 32 -10 32 -6 0 -10
-30 -10 -70z"/>
</g>
</svg>
